{"glyphs":{"0":{"ha":1285,"x_min":58,"x_max":1226,"o":"m 643 -22 q 333 45 465 -22 q 130 235 201 113 q 58 521 58 357 q 130 807 58 685 q 333 997 201 929 q 643 1064 465 1064 q 951 997 819 1064 q 1154 807 1082 929 q 1226 521 1226 685 q 1154 235 1226 357 q 951 45 1082 113 q 643 -22 819 -22 m 643 211 q 861 292 783 211 q 939 521 939 374 q 861 750 939 669 q 643 831 783 831 q 424 750 503 831 q 344 521 344 669 q 424 292 344 374 q 643 211 503 211 z "},"1":{"ha":722,"x_min":19,"x_max":619,"o":"m 619 1042 l 619 0 l 335 0 l 335 942 l 468 818 l 19 739 l 19 961 l 408 1042 l 619 1042 z "},"2":{"ha":1160,"x_min":47,"x_max":1100,"o":"m 47 667 q 128 878 56 789 q 320 1016 200 968 q 592 1064 440 1064 q 844 1020 736 1064 q 1011 899 951 976 q 1071 718 1071 821 q 1028 570 1071 639 q 893 435 985 501 q 653 297 801 369 l 367 154 l 356 228 l 1100 228 l 1100 0 l 69 0 l 69 200 l 517 451 q 678 552 621 511 q 760 628 736 593 q 785 701 785 663 q 762 776 785 744 q 693 825 739 807 q 581 843 647 843 q 444 819 497 843 q 365 755 392 794 q 333 667 339 715 l 47 667 z "},"3":{"ha":1165,"x_min":39,"x_max":1104,"o":"m 65 706 q 136 885 74 804 q 317 1015 199 967 q 604 1064 435 1064 q 856 1028 749 1064 q 1023 926 964 992 q 1082 772 1082 861 q 1040 644 1082 703 q 906 552 997 586 q 669 519 815 518 l 669 549 q 903 529 806 554 q 1052 447 1000 504 q 1104 303 1104 390 q 1043 135 1104 208 q 866 19 982 61 q 582 -22 750 -22 q 299 22 419 -22 q 110 149 178 67 q 39 343 43 232 l 325 343 q 398 236 336 274 q 582 199 460 199 q 752 232 693 199 q 811 325 811 265 q 792 383 811 360 q 726 419 774 407 q 594 431 679 431 l 415 431 l 415 625 l 594 625 q 748 654 704 625 q 792 732 792 683 q 741 814 792 785 q 589 843 690 843 q 422 807 481 843 q 353 706 364 771 l 65 706 z "},"4":{"ha":1196,"x_min":33,"x_max":1150,"o":"m 983 1042 l 983 0 l 699 0 l 699 915 l 786 915 l 244 317 l 243 407 l 1150 407 l 1150 194 l 33 194 l 33 397 l 619 1042 l 983 1042 z "},"5":{"ha":1121,"x_min":40,"x_max":1069,"o":"m 172 1042 l 988 1042 l 988 828 l 257 828 l 372 878 l 314 504 l 243 503 q 326 599 274 556 q 457 667 379 642 q 638 693 535 693 q 867 649 771 693 q 1017 528 964 606 q 1069 350 1069 451 q 1009 158 1069 242 q 835 26 949 74 q 563 -22 722 -22 q 294 23 408 -22 q 115 145 179 68 q 40 318 50 222 l 326 318 q 401 231 340 264 q 563 199 463 199 q 681 217 632 199 q 756 270 729 236 q 782 351 782 304 q 758 431 782 396 q 688 484 735 465 q 571 503 640 503 q 467 490 513 503 q 387 458 421 478 q 329 417 353 439 l 81 417 l 172 1042 z "},"6":{"ha":1190,"x_min":60,"x_max":1133,"o":"m 624 1064 q 863 1023 758 1064 q 1033 912 968 982 q 1111 754 1097 842 l 844 754 q 775 825 825 796 q 631 854 725 854 q 462 816 529 854 q 362 707 394 778 q 329 532 329 636 q 365 343 329 419 q 469 228 401 267 q 636 189 538 189 q 751 208 704 189 q 821 259 797 226 q 844 331 844 292 q 822 403 844 372 q 756 451 800 435 q 644 468 711 468 q 475 429 556 468 q 328 314 394 390 l 231 381 q 342 534 274 467 q 503 640 410 601 q 715 679 597 679 q 939 636 846 679 q 1083 517 1032 593 q 1133 340 1133 442 q 1074 153 1133 235 q 904 24 1015 71 q 632 -22 793 -22 q 313 47 440 -22 q 123 239 186 117 q 60 519 60 361 q 123 801 60 678 q 312 994 186 925 q 624 1064 438 1064 z "},"7":{"ha":1046,"x_min":18,"x_max":1007,"o":"m 171 0 l 744 894 l 744 814 l 18 814 l 18 1042 l 1007 1042 l 1007 813 l 500 0 l 171 0 z "},"8":{"ha":1239,"x_min":58,"x_max":1181,"o":"m 619 1064 q 1013 985 876 1064 q 1149 767 1149 907 q 1031 578 1149 642 q 701 522 913 514 l 701 550 q 1054 500 928 567 q 1181 289 1181 433 q 1037 58 1181 138 q 619 -22 893 -22 q 203 58 347 -22 q 58 289 58 138 q 185 501 58 433 q 539 550 313 568 l 539 522 q 209 578 328 514 q 90 767 90 642 q 226 985 90 907 q 619 1064 363 1064 m 619 197 q 820 227 751 197 q 889 314 889 257 q 820 401 889 372 q 619 431 751 431 q 419 401 488 431 q 350 314 350 372 q 419 227 350 257 q 619 197 488 197 m 619 629 q 752 641 699 629 q 834 677 806 653 q 863 738 863 701 q 800 817 863 789 q 619 844 738 844 q 440 817 503 844 q 378 738 378 789 q 406 677 378 701 q 488 641 433 653 q 619 629 542 629 z "},"9":{"ha":1190,"x_min":56,"x_max":1132,"o":"m 567 -22 q 327 19 432 -22 q 158 131 222 60 q 79 288 93 201 l 344 288 q 416 217 365 246 q 558 188 467 188 q 729 226 663 188 q 828 335 796 264 q 861 510 861 407 q 825 699 861 622 q 720 814 789 775 q 554 853 651 853 q 439 834 485 853 q 369 783 393 815 q 344 711 344 751 q 367 639 344 669 q 435 591 390 608 q 546 574 479 574 q 716 613 635 574 q 863 728 797 651 l 960 661 q 849 508 918 575 q 688 401 781 440 q 474 363 594 363 q 251 406 344 363 q 107 525 157 449 q 56 701 57 601 q 115 889 57 807 q 286 1017 174 971 q 558 1064 399 1064 q 877 994 750 1064 q 1068 803 1004 925 q 1131 522 1132 681 q 1068 241 1132 364 q 878 48 1004 118 q 567 -22 753 -22 z "},"A":{"ha":1329,"x_min":1,"x_max":1328,"o":"m 300 200 l 300 432 l 1018 432 l 1018 200 l 300 200 m 854 1042 l 1328 0 l 1021 0 l 624 919 l 707 919 l 308 0 l 1 0 l 475 1042 l 854 1042 z "},"Á":{"ha":1329,"x_min":1,"x_max":1328,"o":"m 300 200 l 300 432 l 1018 432 l 1018 200 l 300 200 m 854 1042 l 1328 0 l 1021 0 l 624 919 l 707 919 l 308 0 l 1 0 l 475 1042 l 854 1042 m 697 1353 l 1019 1353 l 779 1119 l 493 1119 l 697 1353 z "},"Ă":{"ha":1329,"x_min":1,"x_max":1328,"o":"m 300 200 l 300 432 l 1018 432 l 1018 200 l 300 200 m 854 1042 l 1328 0 l 1021 0 l 624 919 l 707 919 l 308 0 l 1 0 l 475 1042 l 854 1042 m 313 1358 l 528 1358 q 582 1301 549 1321 q 665 1281 615 1281 q 748 1301 714 1281 q 803 1358 782 1321 l 1018 1358 q 891 1170 985 1232 q 665 1108 797 1108 q 440 1170 533 1108 q 313 1358 346 1232 z "},"Ắ":{"ha":1329,"x_min":1,"x_max":1328,"o":"m 300 200 l 300 432 l 1018 432 l 1018 200 l 300 200 m 854 1042 l 1328 0 l 1021 0 l 624 919 l 707 919 l 308 0 l 1 0 l 475 1042 l 854 1042 m 672 1606 l 929 1606 l 761 1385 l 543 1385 l 672 1606 m 311 1358 l 528 1358 q 581 1301 547 1321 q 664 1281 615 1281 q 748 1301 714 1281 q 801 1358 782 1321 l 1018 1358 q 890 1170 983 1232 q 664 1108 797 1108 q 440 1170 533 1108 q 311 1358 346 1232 z "},"Ặ":{"ha":1329,"x_min":1,"x_max":1328,"o":"m 300 200 l 300 432 l 1018 432 l 1018 200 l 300 200 m 854 1042 l 1328 0 l 1021 0 l 624 919 l 707 919 l 308 0 l 1 0 l 475 1042 l 854 1042 m 664 -342 q 544 -305 590 -342 q 499 -204 499 -268 q 544 -104 499 -142 q 664 -67 590 -67 q 785 -104 740 -67 q 831 -204 831 -142 q 785 -305 831 -268 q 664 -342 740 -342 m 313 1358 l 528 1358 q 582 1301 549 1321 q 665 1281 615 1281 q 748 1301 714 1281 q 803 1358 782 1321 l 1018 1358 q 891 1170 985 1232 q 665 1108 797 1108 q 440 1170 533 1108 q 313 1358 346 1232 z "},"Ằ":{"ha":1329,"x_min":1,"x_max":1328,"o":"m 300 200 l 300 432 l 1018 432 l 1018 200 l 300 200 m 854 1042 l 1328 0 l 1021 0 l 624 919 l 707 919 l 308 0 l 1 0 l 475 1042 l 854 1042 m 647 1606 l 776 1385 l 558 1385 l 390 1606 l 647 1606 m 311 1358 l 528 1358 q 581 1301 547 1321 q 664 1281 615 1281 q 748 1301 714 1281 q 801 1358 782 1321 l 1018 1358 q 890 1170 983 1232 q 664 1108 797 1108 q 440 1170 533 1108 q 311 1358 346 1232 z "},"Ẳ":{"ha":1329,"x_min":1,"x_max":1328,"o":"m 300 200 l 300 432 l 1018 432 l 1018 200 l 300 200 m 854 1042 l 1328 0 l 1021 0 l 624 919 l 707 919 l 308 0 l 1 0 l 475 1042 l 854 1042 m 650 1365 l 599 1436 q 659 1466 640 1450 q 678 1497 678 1482 q 600 1539 678 1539 q 558 1536 581 1539 q 514 1528 536 1533 l 514 1672 q 583 1687 540 1681 q 674 1693 625 1693 q 844 1656 783 1693 q 904 1554 904 1619 q 841 1441 904 1489 q 650 1365 778 1393 m 311 1358 l 528 1358 q 581 1301 547 1321 q 664 1281 615 1281 q 748 1301 714 1281 q 801 1358 782 1321 l 1018 1358 q 890 1170 983 1232 q 664 1108 797 1108 q 440 1170 533 1108 q 311 1358 346 1232 z "},"Ẵ":{"ha":1329,"x_min":1,"x_max":1328,"o":"m 300 200 l 300 432 l 1018 432 l 1018 200 l 300 200 m 854 1042 l 1328 0 l 1021 0 l 624 919 l 707 919 l 308 0 l 1 0 l 475 1042 l 854 1042 m 339 1408 q 394 1577 346 1513 q 533 1642 443 1642 q 608 1631 575 1642 q 666 1607 640 1621 q 713 1583 692 1593 q 754 1572 735 1572 q 797 1590 782 1572 q 818 1639 813 1607 l 989 1639 q 934 1469 983 1532 q 794 1406 885 1406 q 720 1417 753 1406 q 663 1441 688 1428 q 615 1465 638 1454 q 574 1475 593 1475 q 532 1458 547 1475 q 510 1408 517 1440 l 339 1408 m 311 1358 l 528 1358 q 581 1301 547 1321 q 664 1281 615 1281 q 748 1301 714 1281 q 801 1358 782 1321 l 1018 1358 q 890 1170 983 1232 q 664 1108 797 1108 q 440 1170 533 1108 q 311 1358 346 1232 z "},"Ǎ":{"ha":1329,"x_min":1,"x_max":1328,"o":"m 300 200 l 300 432 l 1018 432 l 1018 200 l 300 200 m 854 1042 l 1328 0 l 1021 0 l 624 919 l 707 919 l 308 0 l 1 0 l 475 1042 l 854 1042 m 815 1118 l 515 1118 l 304 1353 l 536 1353 l 731 1208 l 600 1208 l 793 1353 l 1025 1353 l 815 1118 z "},"Â":{"ha":1329,"x_min":1,"x_max":1328,"o":"m 300 200 l 300 432 l 1018 432 l 1018 200 l 300 200 m 854 1042 l 1328 0 l 1021 0 l 624 919 l 707 919 l 308 0 l 1 0 l 475 1042 l 854 1042 m 515 1353 l 814 1353 l 1025 1119 l 793 1119 l 599 1264 l 731 1264 l 536 1119 l 304 1119 l 515 1353 z "},"Ấ":{"ha":1329,"x_min":1,"x_max":1328,"o":"m 300 200 l 300 432 l 1018 432 l 1018 200 l 300 200 m 854 1042 l 1328 0 l 1021 0 l 624 919 l 707 919 l 308 0 l 1 0 l 475 1042 l 854 1042 m 1026 1525 l 1283 1525 l 1115 1304 l 897 1304 l 1026 1525 m 515 1353 l 815 1353 l 1026 1119 l 794 1119 l 600 1264 l 731 1264 l 538 1119 l 306 1119 l 515 1353 z "},"Ậ":{"ha":1329,"x_min":1,"x_max":1328,"o":"m 300 200 l 300 432 l 1018 432 l 1018 200 l 300 200 m 854 1042 l 1328 0 l 1021 0 l 624 919 l 707 919 l 308 0 l 1 0 l 475 1042 l 854 1042 m 664 -342 q 544 -305 590 -342 q 499 -204 499 -268 q 544 -104 499 -142 q 664 -67 590 -67 q 785 -104 740 -67 q 831 -204 831 -142 q 785 -305 831 -268 q 664 -342 740 -342 m 515 1353 l 814 1353 l 1025 1119 l 793 1119 l 599 1264 l 731 1264 l 536 1119 l 304 1119 l 515 1353 z "},"Ầ":{"ha":1329,"x_min":1,"x_max":1328,"o":"m 300 200 l 300 432 l 1018 432 l 1018 200 l 300 200 m 854 1042 l 1328 0 l 1021 0 l 624 919 l 707 919 l 308 0 l 1 0 l 475 1042 l 854 1042 m 1018 1525 l 1147 1304 l 929 1304 l 761 1525 l 1018 1525 m 515 1353 l 815 1353 l 1026 1119 l 794 1119 l 600 1264 l 731 1264 l 538 1119 l 306 1119 l 515 1353 z "},"Ẩ":{"ha":1329,"x_min":1,"x_max":1328,"o":"m 300 200 l 300 432 l 1018 432 l 1018 200 l 300 200 m 854 1042 l 1328 0 l 1021 0 l 624 919 l 707 919 l 308 0 l 1 0 l 475 1042 l 854 1042 m 961 1274 l 911 1343 q 970 1374 951 1358 q 989 1406 989 1389 q 911 1446 989 1446 q 869 1444 892 1446 q 825 1436 847 1442 l 825 1581 q 894 1594 851 1589 q 985 1600 936 1600 q 1156 1564 1094 1600 q 1217 1461 1217 1528 q 1153 1349 1217 1397 q 961 1274 1089 1301 m 515 1353 l 815 1353 l 1026 1119 l 794 1119 l 600 1264 l 731 1264 l 538 1119 l 306 1119 l 515 1353 z "},"Ẫ":{"ha":1329,"x_min":1,"x_max":1328,"o":"m 300 200 l 300 432 l 1018 432 l 1018 200 l 300 200 m 854 1042 l 1328 0 l 1021 0 l 624 919 l 707 919 l 308 0 l 1 0 l 475 1042 l 854 1042 m 335 1406 q 391 1574 342 1510 q 529 1639 440 1639 q 603 1628 571 1639 q 662 1605 636 1618 q 709 1581 688 1592 q 751 1569 731 1569 q 793 1587 778 1569 q 814 1638 808 1604 l 985 1638 q 930 1467 979 1529 q 790 1404 881 1404 q 716 1415 749 1404 q 658 1439 683 1425 q 611 1463 633 1453 q 569 1472 589 1472 q 528 1455 543 1472 q 507 1406 513 1438 l 335 1406 m 515 1353 l 814 1353 l 1025 1119 l 793 1119 l 599 1264 l 731 1264 l 536 1119 l 304 1119 l 515 1353 z "},"Ȁ":{"ha":1329,"x_min":1,"x_max":1328,"o":"m 300 200 l 300 432 l 1018 432 l 1018 200 l 300 200 m 854 1042 l 1328 0 l 1021 0 l 624 919 l 707 919 l 308 0 l 1 0 l 475 1042 l 854 1042 m 799 1353 l 971 1119 l 722 1119 l 528 1353 l 799 1353 m 435 1353 l 606 1119 l 357 1119 l 161 1353 l 435 1353 z "},"Ä":{"ha":1329,"x_min":1,"x_max":1328,"o":"m 300 200 l 300 432 l 1018 432 l 1018 200 l 300 200 m 854 1042 l 1328 0 l 1021 0 l 624 919 l 707 919 l 308 0 l 1 0 l 475 1042 l 854 1042 m 450 1118 q 338 1153 381 1118 q 296 1251 296 1189 q 338 1344 296 1310 q 450 1379 381 1379 q 562 1344 519 1379 q 604 1251 604 1310 q 562 1153 604 1189 q 450 1118 519 1118 m 881 1118 q 769 1153 811 1118 q 726 1251 726 1189 q 769 1344 726 1310 q 881 1379 811 1379 q 992 1344 950 1379 q 1035 1251 1035 1310 q 992 1153 1035 1189 q 881 1118 950 1118 z "},"Ǟ":{"ha":1329,"x_min":1,"x_max":1328,"o":"m 300 200 l 300 432 l 1018 432 l 1018 200 l 300 200 m 854 1042 l 1328 0 l 1021 0 l 624 919 l 707 919 l 308 0 l 1 0 l 475 1042 l 854 1042 m 450 1118 q 338 1153 381 1118 q 296 1251 296 1189 q 338 1344 296 1310 q 450 1379 381 1379 q 562 1344 519 1379 q 604 1251 604 1310 q 562 1153 604 1189 q 450 1118 519 1118 m 881 1118 q 769 1153 811 1118 q 726 1251 726 1189 q 769 1344 726 1310 q 881 1379 811 1379 q 992 1344 950 1379 q 1035 1251 1035 1310 q 992 1153 1035 1189 q 881 1118 950 1118 m 328 1444 l 328 1615 l 1004 1615 l 1004 1444 l 328 1444 z "},"Ȧ":{"ha":1329,"x_min":1,"x_max":1328,"o":"m 300 200 l 300 432 l 1018 432 l 1018 200 l 300 200 m 854 1042 l 1328 0 l 1021 0 l 624 919 l 707 919 l 308 0 l 1 0 l 475 1042 l 854 1042 m 664 1118 q 544 1156 590 1118 q 499 1256 499 1193 q 544 1357 499 1319 q 664 1394 590 1394 q 785 1357 740 1394 q 831 1256 831 1319 q 785 1156 831 1193 q 664 1118 740 1118 z "},"Ạ":{"ha":1329,"x_min":1,"x_max":1328,"o":"m 300 200 l 300 432 l 1018 432 l 1018 200 l 300 200 m 854 1042 l 1328 0 l 1021 0 l 624 919 l 707 919 l 308 0 l 1 0 l 475 1042 l 854 1042 m 664 -342 q 544 -305 590 -342 q 499 -204 499 -268 q 544 -104 499 -142 q 664 -67 590 -67 q 785 -104 740 -67 q 831 -204 831 -142 q 785 -305 831 -268 q 664 -342 740 -342 z "},"Ǡ":{"ha":1329,"x_min":1,"x_max":1328,"o":"m 300 200 l 300 432 l 1018 432 l 1018 200 l 300 200 m 854 1042 l 1328 0 l 1021 0 l 624 919 l 707 919 l 308 0 l 1 0 l 475 1042 l 854 1042 m 665 1118 q 546 1156 592 1118 q 500 1256 500 1193 q 546 1357 500 1319 q 665 1394 592 1394 q 787 1357 742 1394 q 832 1256 832 1319 q 787 1156 832 1193 q 665 1118 742 1118 m 326 1444 l 326 1615 l 1003 1615 l 1003 1444 l 326 1444 z "},"À":{"ha":1329,"x_min":1,"x_max":1328,"o":"m 300 200 l 300 432 l 1018 432 l 1018 200 l 300 200 m 854 1042 l 1328 0 l 1021 0 l 624 919 l 707 919 l 308 0 l 1 0 l 475 1042 l 854 1042 m 617 1353 l 821 1119 l 536 1119 l 294 1353 l 617 1353 z "},"Ả":{"ha":1329,"x_min":1,"x_max":1328,"o":"m 300 200 l 300 432 l 1018 432 l 1018 200 l 300 200 m 854 1042 l 1328 0 l 1021 0 l 624 919 l 707 919 l 308 0 l 1 0 l 475 1042 l 854 1042 m 603 1100 l 551 1188 q 644 1214 617 1199 q 672 1246 672 1229 q 651 1269 672 1261 q 589 1278 631 1278 q 530 1274 557 1278 q 472 1264 503 1271 l 472 1407 q 551 1424 500 1415 q 657 1432 603 1432 q 844 1397 779 1432 q 910 1286 910 1363 q 840 1171 910 1217 q 603 1100 769 1125 z "},"Ȃ":{"ha":1329,"x_min":1,"x_max":1328,"o":"m 300 200 l 300 432 l 1018 432 l 1018 200 l 300 200 m 854 1042 l 1328 0 l 1021 0 l 624 919 l 707 919 l 308 0 l 1 0 l 475 1042 l 854 1042 m 1018 1113 l 801 1113 q 748 1170 782 1150 q 665 1190 714 1190 q 581 1170 615 1190 q 528 1113 547 1150 l 311 1113 q 440 1301 346 1239 q 665 1364 533 1364 q 891 1301 797 1364 q 1018 1113 985 1239 z "},"Ɑ":{"ha":1364,"x_min":54,"x_max":1293,"o":"m 1018 0 l 972 378 l 1017 521 l 972 663 l 1018 1042 l 1293 1042 l 1228 521 l 1293 0 l 1018 0 m 1096 521 q 1001 235 1072 357 q 819 45 929 113 q 567 -22 710 -22 q 298 46 414 -22 q 118 236 182 114 q 54 521 54 358 q 118 806 54 683 q 298 996 182 928 q 567 1064 414 1064 q 819 998 708 1064 q 1002 810 931 932 q 1096 521 1074 689 m 344 521 q 382 372 344 438 q 486 269 419 307 q 642 232 553 232 q 791 269 721 232 q 915 372 861 307 q 996 521 968 438 q 915 670 968 606 q 792 772 863 735 q 642 810 722 810 q 487 772 554 810 q 382 670 419 735 q 344 521 344 606 z "},"Ɒ":{"ha":1364,"x_min":71,"x_max":1311,"o":"m 347 0 l 71 0 l 136 521 l 71 1042 l 347 1042 l 393 663 l 347 521 l 393 378 l 347 0 m 268 521 q 364 810 293 689 q 546 998 435 932 q 797 1064 657 1064 q 1067 996 951 1064 q 1247 806 1182 928 q 1311 521 1311 683 q 1247 236 1311 358 q 1067 46 1182 114 q 797 -22 951 -22 q 545 45 656 -22 q 365 235 435 113 q 268 521 294 357 m 1019 521 q 982 670 1019 606 q 878 772 944 735 q 724 810 811 810 q 573 772 643 810 q 450 670 503 735 q 369 521 397 606 q 450 372 397 438 q 573 269 503 307 q 724 232 643 232 q 878 269 811 232 q 982 372 944 307 q 1019 521 1019 438 z "},"Ā":{"ha":1329,"x_min":1,"x_max":1328,"o":"m 300 200 l 300 432 l 1018 432 l 1018 200 l 300 200 m 854 1042 l 1328 0 l 1021 0 l 624 919 l 707 919 l 308 0 l 1 0 l 475 1042 l 854 1042 m 326 1147 l 326 1318 l 1003 1318 l 1003 1147 l 326 1147 z "},"Ą":{"ha":1329,"x_min":1,"x_max":1328,"o":"m 300 200 l 300 432 l 1018 432 l 1018 200 l 300 200 m 854 1042 l 1328 0 l 1021 0 l 624 919 l 707 919 l 308 0 l 1 0 l 475 1042 l 854 1042 m 1203 28 l 1297 17 l 1297 0 l 1328 0 q 1240 -30 1278 -14 q 1181 -62 1201 -46 q 1161 -96 1161 -78 q 1247 -135 1161 -135 q 1290 -132 1269 -135 q 1328 -125 1310 -129 l 1328 -275 q 1267 -287 1310 -281 q 1176 -294 1224 -294 q 1019 -258 1079 -294 q 958 -160 958 -221 q 1019 -49 958 -96 q 1203 28 1081 -3 z "},"Å":{"ha":1329,"x_min":1,"x_max":1328,"o":"m 300 200 l 300 432 l 1018 432 l 1018 200 l 300 200 m 854 1042 l 1328 0 l 1021 0 l 624 919 l 707 919 l 308 0 l 1 0 l 475 1042 l 854 1042 m 664 1094 q 461 1144 533 1094 q 389 1283 389 1194 q 461 1424 389 1374 q 664 1474 533 1474 q 868 1424 796 1474 q 940 1283 940 1374 q 868 1144 940 1194 q 664 1094 796 1094 m 664 1218 q 755 1235 726 1218 q 783 1283 783 1253 q 755 1333 783 1317 q 664 1350 726 1350 q 574 1333 603 1350 q 546 1283 546 1317 q 574 1235 546 1253 q 664 1218 603 1218 z "},"Ǻ":{"ha":1329,"x_min":1,"x_max":1328,"o":"m 653 1703 l 908 1703 l 763 1444 l 554 1444 l 653 1703 m 300 200 l 300 432 l 1018 432 l 1018 200 l 300 200 m 854 1042 l 1328 0 l 1021 0 l 624 919 l 707 919 l 308 0 l 1 0 l 475 1042 l 854 1042 m 665 1094 q 462 1144 535 1094 q 389 1283 389 1194 q 462 1424 389 1374 q 665 1474 535 1474 q 869 1424 797 1474 q 940 1283 940 1374 q 869 1144 940 1194 q 665 1094 797 1094 m 665 1218 q 755 1235 726 1218 q 783 1283 783 1253 q 755 1333 783 1317 q 665 1350 726 1350 q 575 1333 603 1350 q 547 1283 547 1317 q 575 1235 547 1253 q 665 1218 603 1218 z "},"Ḁ":{"ha":1329,"x_min":1,"x_max":1328,"o":"m 300 200 l 300 432 l 1018 432 l 1018 200 l 300 200 m 854 1042 l 1328 0 l 1021 0 l 624 919 l 707 919 l 308 0 l 1 0 l 475 1042 l 854 1042 m 665 -444 q 472 -393 542 -444 q 401 -251 401 -342 q 472 -110 401 -161 q 665 -58 542 -58 q 858 -110 789 -58 q 928 -251 928 -161 q 858 -393 928 -342 q 665 -444 789 -444 m 665 -329 q 742 -308 715 -329 q 769 -251 769 -287 q 742 -194 769 -214 q 665 -174 715 -174 q 588 -194 617 -174 q 560 -251 560 -214 q 588 -308 560 -287 q 665 -329 615 -329 z "},"Ⱥ":{"ha":1331,"x_min":1,"x_max":1329,"o":"m 896 1211 l 1068 1211 l 522 -169 l 350 -169 l 896 1211 m 301 200 l 301 432 l 1018 432 l 1018 200 l 301 200 m 854 1042 l 1329 0 l 1021 0 l 624 919 l 707 919 l 310 0 l 1 0 l 476 1042 l 854 1042 z "},"Ã":{"ha":1329,"x_min":1,"x_max":1328,"o":"m 300 200 l 300 432 l 1018 432 l 1018 200 l 300 200 m 854 1042 l 1328 0 l 1021 0 l 624 919 l 707 919 l 308 0 l 1 0 l 475 1042 l 854 1042 m 286 1126 q 358 1300 300 1236 q 531 1364 417 1364 q 604 1354 568 1364 q 672 1331 640 1344 q 733 1308 704 1318 q 786 1299 761 1299 q 834 1313 815 1299 q 858 1357 853 1328 l 1042 1357 q 969 1183 1028 1247 q 799 1118 911 1118 q 724 1128 760 1118 q 656 1152 689 1139 q 595 1175 624 1165 q 542 1185 567 1185 q 494 1170 514 1185 q 469 1126 475 1156 l 286 1126 z "},"Ɐ":{"ha":1329,"x_min":1,"x_max":1328,"o":"m 1029 842 l 1029 610 l 313 610 l 313 842 l 1029 842 m 475 0 l 1 1042 l 308 1042 l 707 122 l 624 122 l 1021 1042 l 1328 1042 l 854 0 l 475 0 z "},"Æ":{"ha":1749,"x_min":6,"x_max":1692,"o":"m 1088 417 l 1160 233 l 1692 233 l 1692 0 l 954 0 l 594 965 l 694 965 l 313 0 l 6 0 l 442 1042 l 1665 1042 l 1665 808 l 942 808 l 1013 625 l 1625 625 l 1625 417 l 1088 417 m 281 200 l 281 432 l 963 432 l 963 200 l 281 200 z "},"Ǽ":{"ha":1749,"x_min":6,"x_max":1692,"o":"m 1088 417 l 1160 233 l 1692 233 l 1692 0 l 954 0 l 594 965 l 694 965 l 313 0 l 6 0 l 442 1042 l 1665 1042 l 1665 808 l 942 808 l 1013 625 l 1625 625 l 1625 417 l 1088 417 m 281 200 l 281 432 l 963 432 l 963 200 l 281 200 m 1061 1353 l 1383 1353 l 1143 1119 l 857 1119 l 1061 1353 z "},"Ǣ":{"ha":1749,"x_min":6,"x_max":1692,"o":"m 1088 417 l 1160 233 l 1692 233 l 1692 0 l 954 0 l 594 965 l 694 965 l 313 0 l 6 0 l 442 1042 l 1665 1042 l 1665 808 l 942 808 l 1013 625 l 1625 625 l 1625 417 l 1088 417 m 281 200 l 281 432 l 963 432 l 963 200 l 281 200 m 692 1147 l 692 1318 l 1368 1318 l 1368 1147 l 692 1147 z "},"B":{"ha":1226,"x_min":65,"x_max":1182,"o":"m 803 510 l 826 564 q 1026 527 947 561 q 1143 433 1104 493 q 1182 293 1182 372 q 1143 142 1182 208 q 1027 38 1104 76 q 835 0 950 0 l 65 0 l 146 535 l 65 1042 l 807 1042 q 1032 974 951 1042 q 1113 788 1113 907 q 1082 663 1113 722 q 984 562 1051 603 q 803 510 917 521 m 350 67 l 239 201 l 757 201 q 854 232 819 201 q 889 317 889 263 q 851 403 889 371 q 740 436 814 436 l 313 436 l 313 633 l 701 633 q 785 663 751 633 q 819 744 819 693 q 790 813 819 786 q 707 840 761 840 l 240 840 l 350 975 l 421 535 l 350 67 z "},"Ḃ":{"ha":1226,"x_min":65,"x_max":1182,"o":"m 803 510 l 826 564 q 1026 527 947 561 q 1143 433 1104 493 q 1182 293 1182 372 q 1143 142 1182 208 q 1027 38 1104 76 q 835 0 950 0 l 65 0 l 146 535 l 65 1042 l 807 1042 q 1032 974 951 1042 q 1113 788 1113 907 q 1082 663 1113 722 q 984 562 1051 603 q 803 510 917 521 m 350 67 l 239 201 l 757 201 q 854 232 819 201 q 889 317 889 263 q 851 403 889 371 q 740 436 814 436 l 313 436 l 313 633 l 701 633 q 785 663 751 633 q 819 744 819 693 q 790 813 819 786 q 707 840 761 840 l 240 840 l 350 975 l 421 535 l 350 67 m 592 1118 q 472 1156 518 1118 q 426 1256 426 1193 q 472 1357 426 1319 q 592 1394 518 1394 q 713 1357 668 1394 q 758 1256 758 1319 q 713 1156 758 1193 q 592 1118 668 1118 z "},"Ḅ":{"ha":1226,"x_min":65,"x_max":1182,"o":"m 803 510 l 826 564 q 1026 527 947 561 q 1143 433 1104 493 q 1182 293 1182 372 q 1143 142 1182 208 q 1027 38 1104 76 q 835 0 950 0 l 65 0 l 146 535 l 65 1042 l 807 1042 q 1032 974 951 1042 q 1113 788 1113 907 q 1082 663 1113 722 q 984 562 1051 603 q 803 510 917 521 m 350 67 l 239 201 l 757 201 q 854 232 819 201 q 889 317 889 263 q 851 403 889 371 q 740 436 814 436 l 313 436 l 313 633 l 701 633 q 785 663 751 633 q 819 744 819 693 q 790 813 819 786 q 707 840 761 840 l 240 840 l 350 975 l 421 535 l 350 67 m 621 -342 q 501 -305 547 -342 q 456 -204 456 -268 q 501 -104 456 -142 q 621 -67 547 -67 q 742 -104 697 -67 q 788 -204 788 -142 q 742 -305 788 -268 q 621 -342 697 -342 z "},"Ꞵ":{"ha":1240,"x_min":97,"x_max":1196,"o":"m 971 549 q 1097 496 1047 532 q 1171 408 1146 460 q 1196 293 1196 357 q 1157 142 1196 208 q 1041 38 1118 76 q 849 0 964 0 l 382 0 l 382 -229 l 97 -229 l 97 1042 l 821 1042 q 1046 974 965 1042 q 1126 788 1126 907 q 1110 695 1126 740 q 1060 612 1094 650 q 971 549 1026 574 m 835 744 q 805 813 835 786 q 721 840 775 840 l 382 840 l 382 632 l 715 632 q 801 662 767 632 q 835 744 835 692 m 382 201 l 771 201 q 869 232 833 201 q 904 317 904 263 q 866 404 904 371 q 754 438 828 438 l 382 438 l 382 201 z "},"Ɓ":{"ha":1514,"x_min":25,"x_max":1468,"o":"m 300 1042 l 1093 1042 q 1318 974 1238 1042 q 1399 788 1399 907 q 1369 663 1399 722 q 1271 562 1339 603 q 1090 510 1203 521 l 1114 564 q 1313 527 1233 561 q 1430 433 1392 493 q 1468 293 1468 372 q 1430 142 1468 208 q 1314 38 1392 76 q 1121 0 1236 0 l 353 0 l 433 535 l 363 978 l 467 831 l 365 831 q 292 806 317 831 q 267 726 267 782 q 275 647 267 685 q 294 576 283 608 l 81 576 q 43 674 61 619 q 25 792 25 728 q 94 974 25 907 q 300 1042 164 1042 m 636 67 l 526 201 l 1044 201 q 1142 232 1107 201 q 1176 317 1176 263 q 1138 403 1176 371 q 1026 436 1100 436 l 600 436 l 600 633 l 988 633 q 1073 663 1039 633 q 1107 744 1107 693 q 1078 813 1107 786 q 993 840 1049 840 l 528 840 l 636 975 l 708 535 l 636 67 z "},"Ḇ":{"ha":1226,"x_min":65,"x_max":1182,"o":"m 803 510 l 826 564 q 1026 527 947 561 q 1143 433 1104 493 q 1182 293 1182 372 q 1143 142 1182 208 q 1027 38 1104 76 q 835 0 950 0 l 65 0 l 146 535 l 65 1042 l 807 1042 q 1032 974 951 1042 q 1113 788 1113 907 q 1082 663 1113 722 q 984 562 1051 603 q 803 510 917 521 m 350 67 l 239 201 l 757 201 q 854 232 819 201 q 889 317 889 263 q 851 403 889 371 q 740 436 814 436 l 313 436 l 313 633 l 701 633 q 785 663 751 633 q 819 744 819 693 q 790 813 819 786 q 707 840 761 840 l 240 840 l 350 975 l 421 535 l 350 67 m 299 -260 l 299 -90 l 975 -90 l 975 -260 l 299 -260 z "},"Ƀ":{"ha":1292,"x_min":29,"x_max":1247,"o":"m 29 397 l 722 397 l 722 238 l 29 238 l 29 397 m 868 510 l 892 564 q 1091 527 1013 561 q 1208 433 1169 493 q 1247 293 1247 372 q 1208 142 1247 208 q 1092 38 1169 76 q 899 0 1015 0 l 131 0 l 211 535 l 131 1042 l 872 1042 q 1097 974 1017 1042 q 1178 788 1178 907 q 1147 663 1178 722 q 1049 562 1117 603 q 868 510 982 521 m 414 67 l 304 199 l 821 199 q 919 230 883 199 q 954 317 954 261 q 916 405 954 371 q 804 439 878 439 l 378 439 l 378 631 l 765 631 q 850 661 815 631 q 885 744 885 692 q 855 815 885 788 q 771 843 825 843 l 306 843 l 414 975 l 486 535 l 414 67 z "},"C":{"ha":1297,"x_min":51,"x_max":1254,"o":"m 1254 436 q 1160 195 1239 299 q 952 35 1081 92 q 657 -22 824 -22 q 339 46 475 -22 q 127 236 203 114 q 51 521 51 358 q 127 806 51 683 q 339 996 203 928 q 657 1064 475 1064 q 952 1007 824 1064 q 1160 847 1081 950 q 1254 606 1239 743 l 965 606 q 911 719 951 672 q 806 790 871 765 q 657 815 742 815 q 489 780 560 815 q 381 678 418 744 q 343 521 343 613 q 381 363 343 429 q 489 262 418 297 q 657 226 560 226 q 806 250 742 226 q 911 321 871 274 q 965 436 951 368 l 1254 436 z "},"Ć":{"ha":1297,"x_min":51,"x_max":1254,"o":"m 1254 436 q 1160 195 1239 299 q 952 35 1081 92 q 657 -22 824 -22 q 339 46 475 -22 q 127 236 203 114 q 51 521 51 358 q 127 806 51 683 q 339 996 203 928 q 657 1064 475 1064 q 952 1007 824 1064 q 1160 847 1081 950 q 1254 606 1239 743 l 965 606 q 911 719 951 672 q 806 790 871 765 q 657 815 742 815 q 489 780 560 815 q 381 678 418 744 q 343 521 343 613 q 381 363 343 429 q 489 262 418 297 q 657 226 560 226 q 806 250 742 226 q 911 321 871 274 q 965 436 951 368 l 1254 436 m 685 1353 l 1007 1353 l 767 1119 l 481 1119 l 685 1353 z "},"Č":{"ha":1297,"x_min":51,"x_max":1254,"o":"m 1254 436 q 1160 195 1239 299 q 952 35 1081 92 q 657 -22 824 -22 q 339 46 475 -22 q 127 236 203 114 q 51 521 51 358 q 127 806 51 683 q 339 996 203 928 q 657 1064 475 1064 q 952 1007 824 1064 q 1160 847 1081 950 q 1254 606 1239 743 l 965 606 q 911 719 951 672 q 806 790 871 765 q 657 815 742 815 q 489 780 560 815 q 381 678 418 744 q 343 521 343 613 q 381 363 343 429 q 489 262 418 297 q 657 226 560 226 q 806 250 742 226 q 911 321 871 274 q 965 436 951 368 l 1254 436 m 803 1118 l 503 1118 l 292 1353 l 525 1353 l 718 1208 l 588 1208 l 782 1353 l 1014 1353 l 803 1118 z "},"Ç":{"ha":1297,"x_min":51,"x_max":1254,"o":"m 1254 436 q 1160 195 1239 299 q 952 35 1081 92 q 657 -22 824 -22 q 339 46 475 -22 q 127 236 203 114 q 51 521 51 358 q 127 806 51 683 q 339 996 203 928 q 657 1064 475 1064 q 952 1007 824 1064 q 1160 847 1081 950 q 1254 606 1239 743 l 965 606 q 911 719 951 672 q 806 790 871 765 q 657 815 742 815 q 489 780 560 815 q 381 678 418 744 q 343 521 343 613 q 381 363 343 429 q 489 262 418 297 q 657 226 560 226 q 806 250 742 226 q 911 321 871 274 q 965 436 951 368 l 1254 436 m 597 28 l 735 28 l 664 -97 l 592 -92 q 666 -65 628 -75 q 750 -54 704 -54 q 899 -91 847 -54 q 950 -192 950 -128 q 882 -306 950 -261 q 683 -350 814 -350 q 493 -309 569 -350 q 396 -196 417 -268 l 579 -196 q 615 -222 590 -211 q 683 -233 639 -233 q 751 -219 729 -233 q 774 -186 774 -206 q 755 -155 774 -167 q 699 -143 736 -143 q 655 -146 676 -143 q 618 -156 633 -149 l 478 -156 l 597 28 z "},"Ḉ":{"ha":1297,"x_min":51,"x_max":1254,"o":"m 1254 436 q 1160 195 1239 299 q 952 35 1081 92 q 657 -22 824 -22 q 339 46 475 -22 q 127 236 203 114 q 51 521 51 358 q 127 806 51 683 q 339 996 203 928 q 657 1064 475 1064 q 952 1007 824 1064 q 1160 847 1081 950 q 1254 606 1239 743 l 965 606 q 911 719 951 672 q 806 790 871 765 q 657 815 742 815 q 489 780 560 815 q 381 678 418 744 q 343 521 343 613 q 381 363 343 429 q 489 262 418 297 q 657 226 560 226 q 806 250 742 226 q 911 321 871 274 q 965 436 951 368 l 1254 436 m 597 28 l 735 28 l 664 -97 l 592 -92 q 666 -65 628 -75 q 750 -54 704 -54 q 899 -91 847 -54 q 950 -192 950 -128 q 882 -306 950 -261 q 683 -350 814 -350 q 493 -309 569 -350 q 396 -196 417 -268 l 579 -196 q 615 -222 590 -211 q 683 -233 639 -233 q 751 -219 729 -233 q 774 -186 774 -206 q 755 -155 774 -167 q 699 -143 736 -143 q 655 -146 676 -143 q 618 -156 633 -149 l 478 -156 l 597 28 m 685 1353 l 1007 1353 l 767 1119 l 481 1119 l 685 1353 z "},"Ĉ":{"ha":1297,"x_min":51,"x_max":1254,"o":"m 1254 436 q 1160 195 1239 299 q 952 35 1081 92 q 657 -22 824 -22 q 339 46 475 -22 q 127 236 203 114 q 51 521 51 358 q 127 806 51 683 q 339 996 203 928 q 657 1064 475 1064 q 952 1007 824 1064 q 1160 847 1081 950 q 1254 606 1239 743 l 965 606 q 911 719 951 672 q 806 790 871 765 q 657 815 742 815 q 489 780 560 815 q 381 678 418 744 q 343 521 343 613 q 381 363 343 429 q 489 262 418 297 q 657 226 560 226 q 806 250 742 226 q 911 321 871 274 q 965 436 951 368 l 1254 436 m 503 1353 l 801 1353 l 1013 1119 l 781 1119 l 586 1264 l 718 1264 l 524 1119 l 292 1119 l 503 1353 z "},"Ċ":{"ha":1297,"x_min":51,"x_max":1254,"o":"m 1254 436 q 1160 195 1239 299 q 952 35 1081 92 q 657 -22 824 -22 q 339 46 475 -22 q 127 236 203 114 q 51 521 51 358 q 127 806 51 683 q 339 996 203 928 q 657 1064 475 1064 q 952 1007 824 1064 q 1160 847 1081 950 q 1254 606 1239 743 l 965 606 q 911 719 951 672 q 806 790 871 765 q 657 815 742 815 q 489 780 560 815 q 381 678 418 744 q 343 521 343 613 q 381 363 343 429 q 489 262 418 297 q 657 226 560 226 q 806 250 742 226 q 911 321 871 274 q 965 436 951 368 l 1254 436 m 653 1118 q 533 1156 579 1118 q 488 1256 488 1193 q 533 1357 488 1319 q 653 1394 579 1394 q 774 1357 729 1394 q 819 1256 819 1319 q 774 1156 819 1193 q 653 1118 729 1118 z "},"Ꭓ":{"ha":1135,"x_min":-15,"x_max":1149,"o":"m 661 338 l 661 525 l 1149 -229 l 842 -229 l 504 318 l 628 318 l 288 -229 l -15 -229 l 475 524 l 475 340 l 14 1042 l 325 1042 l 632 549 l 510 549 l 813 1042 l 1119 1042 l 661 338 z "},"Ƈ":{"ha":1369,"x_min":53,"x_max":1415,"o":"m 649 1064 q 952 986 835 1064 q 1128 774 1069 908 l 1046 797 q 985 908 1014 849 q 957 1029 957 968 q 985 1142 957 1090 q 1075 1224 1014 1193 q 1232 1256 1136 1256 q 1328 1248 1282 1256 q 1415 1226 1375 1240 l 1415 1014 q 1360 1028 1388 1022 q 1301 1035 1333 1035 q 1206 1006 1236 1035 q 1175 928 1175 978 q 1184 867 1175 900 q 1207 793 1193 833 q 1232 710 1217 760 q 1256 606 1247 660 l 967 606 q 913 719 953 672 q 808 790 872 765 q 657 815 743 815 q 490 780 560 815 q 381 678 419 744 q 343 521 343 613 q 381 365 343 431 q 490 263 419 299 q 657 226 560 226 q 808 250 743 226 q 913 321 872 274 q 967 436 953 368 l 1256 436 q 1161 195 1240 299 q 953 35 1082 92 q 658 -22 824 -22 q 340 46 476 -22 q 128 236 204 114 q 53 521 53 358 q 128 806 53 685 q 339 996 204 928 q 649 1064 474 1064 z "},"Ȼ":{"ha":1299,"x_min":53,"x_max":1256,"o":"m 806 1211 l 1033 1211 l 488 -169 l 260 -169 l 806 1211 m 1256 436 q 1161 195 1240 299 q 953 35 1082 92 q 658 -22 824 -22 q 340 46 476 -22 q 128 236 204 114 q 53 521 53 358 q 128 806 53 683 q 340 996 204 928 q 658 1064 476 1064 q 953 1007 824 1064 q 1161 847 1082 950 q 1256 606 1240 743 l 965 606 q 911 719 951 672 q 807 790 871 765 q 657 815 743 815 q 490 780 560 815 q 381 678 419 744 q 343 521 343 613 q 381 363 343 429 q 490 262 419 297 q 657 226 560 226 q 807 250 743 226 q 911 321 871 274 q 965 436 951 368 l 1256 436 z "},"D":{"ha":1286,"x_min":97,"x_max":1235,"o":"m 617 1042 q 941 977 801 1042 q 1158 795 1081 913 q 1235 521 1235 678 q 1158 247 1235 364 q 941 65 1081 129 q 617 0 801 0 l 97 0 l 97 1042 l 617 1042 m 383 121 l 246 256 l 639 256 q 801 288 732 256 q 907 381 869 321 q 944 521 944 440 q 907 662 944 603 q 801 753 869 721 q 639 786 732 786 l 246 786 l 383 921 l 383 121 z "},"Ǳ":{"ha":2382,"x_min":97,"x_max":2324,"o":"m 617 1042 q 941 977 801 1042 q 1158 795 1081 913 q 1235 521 1235 678 q 1158 247 1235 364 q 941 65 1081 129 q 617 0 801 0 l 97 0 l 97 1042 l 617 1042 m 383 121 l 246 256 l 639 256 q 801 288 732 256 q 907 381 869 321 q 944 521 944 440 q 907 662 944 603 q 801 753 869 721 q 639 786 732 786 l 246 786 l 383 921 l 383 121 m 1318 0 l 1318 208 l 2000 878 l 2208 817 l 1322 817 l 1322 1043 l 2319 1043 l 2319 835 l 1638 164 l 1458 226 l 2324 226 l 2324 0 l 1318 0 z "},"Ǆ":{"ha":2382,"x_min":97,"x_max":2324,"o":"m 617 1042 q 941 977 801 1042 q 1158 795 1081 913 q 1235 521 1235 678 q 1158 247 1235 364 q 941 65 1081 129 q 617 0 801 0 l 97 0 l 97 1042 l 617 1042 m 383 121 l 246 256 l 639 256 q 801 288 732 256 q 907 381 869 321 q 944 521 944 440 q 907 662 944 603 q 801 753 869 721 q 639 786 732 786 l 246 786 l 383 921 l 383 121 m 1318 0 l 1318 208 l 2000 878 l 2208 817 l 1322 817 l 1322 1043 l 2319 1043 l 2319 835 l 1638 164 l 1458 226 l 2324 226 l 2324 0 l 1318 0 m 1971 1118 l 1671 1118 l 1460 1353 l 1693 1353 l 1886 1208 l 1756 1208 l 1950 1353 l 2182 1353 l 1971 1118 z "},"Ɖ":{"ha":1321,"x_min":38,"x_max":1269,"o":"m 38 618 l 654 618 l 654 426 l 38 426 l 38 618 m 651 1042 q 976 977 838 1042 q 1192 795 1115 913 q 1269 521 1269 678 q 1192 247 1269 364 q 976 65 1115 129 q 651 0 838 0 l 132 0 l 132 1042 l 651 1042 m 418 121 l 281 256 l 674 256 q 835 288 767 256 q 942 381 904 321 q 979 521 979 440 q 942 662 979 603 q 835 753 904 721 q 674 786 767 786 l 281 786 l 418 921 l 418 121 z "},"Ď":{"ha":1286,"x_min":97,"x_max":1235,"o":"m 617 1042 q 941 977 801 1042 q 1158 795 1081 913 q 1235 521 1235 678 q 1158 247 1235 364 q 941 65 1081 129 q 617 0 801 0 l 97 0 l 97 1042 l 617 1042 m 383 121 l 246 256 l 639 256 q 801 288 732 256 q 907 381 869 321 q 944 521 944 440 q 907 662 944 603 q 801 753 869 721 q 639 786 732 786 l 246 786 l 383 921 l 383 121 m 756 1118 l 457 1118 l 244 1353 l 478 1353 l 672 1208 l 540 1208 l 735 1353 l 967 1353 l 756 1118 z "},"Ḑ":{"ha":1286,"x_min":97,"x_max":1235,"o":"m 617 1042 q 941 977 801 1042 q 1158 795 1081 913 q 1235 521 1235 678 q 1158 247 1235 364 q 941 65 1081 129 q 617 0 801 0 l 97 0 l 97 1042 l 617 1042 m 383 121 l 246 256 l 639 256 q 801 288 732 256 q 907 381 869 321 q 944 521 944 440 q 907 662 944 603 q 801 753 869 721 q 639 786 732 786 l 246 786 l 383 921 l 383 121 m 474 -429 l 606 -217 l 617 -296 q 507 -264 549 -296 q 465 -178 465 -232 q 506 -92 465 -124 q 617 -61 547 -61 q 727 -93 686 -61 q 768 -181 768 -125 q 749 -250 768 -218 q 685 -337 729 -282 l 610 -429 l 474 -429 z "},"Ḓ":{"ha":1286,"x_min":97,"x_max":1235,"o":"m 617 1042 q 941 977 801 1042 q 1158 795 1081 913 q 1235 521 1235 678 q 1158 247 1235 364 q 941 65 1081 129 q 617 0 801 0 l 97 0 l 97 1042 l 617 1042 m 383 121 l 246 256 l 639 256 q 801 288 732 256 q 907 381 869 321 q 944 521 944 440 q 907 662 944 603 q 801 753 869 721 q 639 786 732 786 l 246 786 l 383 921 l 383 121 m 471 -58 l 761 -58 l 960 -321 l 736 -321 l 550 -128 l 682 -128 l 497 -321 l 272 -321 l 471 -58 z "},"Đ":{"ha":1321,"x_min":38,"x_max":1269,"o":"m 38 618 l 654 618 l 654 426 l 38 426 l 38 618 m 651 1042 q 976 977 838 1042 q 1192 795 1115 913 q 1269 521 1269 678 q 1192 247 1269 364 q 976 65 1115 129 q 651 0 838 0 l 132 0 l 132 1042 l 651 1042 m 418 121 l 281 256 l 674 256 q 835 288 767 256 q 942 381 904 321 q 979 521 979 440 q 942 662 979 603 q 835 753 904 721 q 674 786 767 786 l 281 786 l 418 921 l 418 121 z "},"Ḋ":{"ha":1286,"x_min":97,"x_max":1235,"o":"m 617 1042 q 941 977 801 1042 q 1158 795 1081 913 q 1235 521 1235 678 q 1158 247 1235 364 q 941 65 1081 129 q 617 0 801 0 l 97 0 l 97 1042 l 617 1042 m 383 121 l 246 256 l 639 256 q 801 288 732 256 q 907 381 869 321 q 944 521 944 440 q 907 662 944 603 q 801 753 869 721 q 639 786 732 786 l 246 786 l 383 921 l 383 121 m 606 1118 q 486 1156 532 1118 q 440 1256 440 1193 q 486 1357 440 1319 q 606 1394 532 1394 q 727 1357 682 1394 q 772 1256 772 1319 q 727 1156 772 1193 q 606 1118 682 1118 z "},"Ḍ":{"ha":1286,"x_min":97,"x_max":1235,"o":"m 617 1042 q 941 977 801 1042 q 1158 795 1081 913 q 1235 521 1235 678 q 1158 247 1235 364 q 941 65 1081 129 q 617 0 801 0 l 97 0 l 97 1042 l 617 1042 m 383 121 l 246 256 l 639 256 q 801 288 732 256 q 907 381 869 321 q 944 521 944 440 q 907 662 944 603 q 801 753 869 721 q 639 786 732 786 l 246 786 l 383 921 l 383 121 m 615 -342 q 496 -305 542 -342 q 450 -204 450 -268 q 496 -104 450 -142 q 615 -67 542 -67 q 737 -104 692 -67 q 782 -204 782 -142 q 737 -305 782 -268 q 615 -342 692 -342 z "},"Ɗ":{"ha":1613,"x_min":25,"x_max":1561,"o":"m 318 1042 l 943 1042 q 1268 977 1129 1042 q 1484 795 1407 913 q 1561 521 1561 678 q 1484 247 1561 364 q 1268 65 1407 129 q 943 0 1129 0 l 424 0 l 424 911 l 504 800 l 372 800 q 297 778 324 800 q 271 703 271 757 q 278 635 271 668 q 294 576 285 601 l 81 576 q 43 672 61 619 q 25 790 25 725 q 96 974 25 907 q 318 1042 167 1042 m 710 121 l 572 256 l 965 256 q 1127 288 1058 256 q 1233 381 1196 321 q 1271 521 1271 440 q 1233 662 1271 603 q 1127 753 1196 721 q 965 786 1058 786 l 589 786 l 710 910 l 710 121 z "},"Ḏ":{"ha":1286,"x_min":97,"x_max":1235,"o":"m 617 1042 q 941 977 801 1042 q 1158 795 1081 913 q 1235 521 1235 678 q 1158 247 1235 364 q 941 65 1081 129 q 617 0 801 0 l 97 0 l 97 1042 l 617 1042 m 383 121 l 246 256 l 639 256 q 801 288 732 256 q 907 381 869 321 q 944 521 944 440 q 907 662 944 603 q 801 753 869 721 q 639 786 732 786 l 246 786 l 383 921 l 383 121 m 293 -260 l 293 -90 l 969 -90 l 969 -260 l 293 -260 z "},"ǲ":{"ha":2231,"x_min":97,"x_max":2176,"o":"m 617 1042 q 941 977 801 1042 q 1158 795 1081 913 q 1235 521 1235 678 q 1158 247 1235 364 q 941 65 1081 129 q 617 0 801 0 l 97 0 l 97 1042 l 617 1042 m 383 121 l 246 256 l 639 256 q 801 288 732 256 q 907 381 869 321 q 944 521 944 440 q 907 662 944 603 q 801 753 869 721 q 639 786 732 786 l 246 786 l 383 921 l 383 121 m 1319 0 l 1319 197 l 1867 628 l 2067 590 l 1324 590 l 1324 793 l 2174 793 l 2174 596 l 1628 167 l 1458 204 l 2176 204 l 2176 0 l 1319 0 z "},"ǅ":{"ha":2231,"x_min":97,"x_max":2176,"o":"m 617 1042 q 941 977 801 1042 q 1158 795 1081 913 q 1235 521 1235 678 q 1158 247 1235 364 q 941 65 1081 129 q 617 0 801 0 l 97 0 l 97 1042 l 617 1042 m 383 121 l 246 256 l 639 256 q 801 288 732 256 q 907 381 869 321 q 944 521 944 440 q 907 662 944 603 q 801 753 869 721 q 639 786 732 786 l 246 786 l 383 921 l 383 121 m 1319 0 l 1319 197 l 1867 628 l 2067 590 l 1324 590 l 1324 793 l 2174 793 l 2174 596 l 1628 167 l 1458 204 l 2176 204 l 2176 0 l 1319 0 m 1894 871 l 1604 871 l 1406 1133 l 1629 1133 l 1815 940 l 1683 940 l 1868 1133 l 2093 1133 l 1894 871 z "},"Ð":{"ha":1321,"x_min":38,"x_max":1269,"o":"m 38 618 l 654 618 l 654 426 l 38 426 l 38 618 m 651 1042 q 976 977 838 1042 q 1192 795 1115 913 q 1269 521 1269 678 q 1192 247 1269 364 q 976 65 1115 129 q 651 0 838 0 l 132 0 l 132 1042 l 651 1042 m 418 121 l 281 256 l 674 256 q 835 288 767 256 q 942 381 904 321 q 979 521 979 440 q 942 662 979 603 q 835 753 904 721 q 674 786 767 786 l 281 786 l 418 921 l 418 121 z "},"E":{"ha":1103,"x_min":65,"x_max":1033,"o":"m 988 625 l 988 417 l 225 417 l 225 625 l 988 625 m 421 521 l 353 103 l 236 233 l 1033 233 l 1033 0 l 65 0 l 144 521 l 65 1042 l 1026 1042 l 1026 808 l 236 808 l 353 939 l 421 521 z "},"É":{"ha":1103,"x_min":65,"x_max":1033,"o":"m 988 625 l 988 417 l 225 417 l 225 625 l 988 625 m 421 521 l 353 103 l 236 233 l 1033 233 l 1033 0 l 65 0 l 144 521 l 65 1042 l 1026 1042 l 1026 808 l 236 808 l 353 939 l 421 521 m 588 1353 l 910 1353 l 669 1119 l 383 1119 l 588 1353 z "},"Ĕ":{"ha":1103,"x_min":65,"x_max":1033,"o":"m 988 625 l 988 417 l 225 417 l 225 625 l 988 625 m 421 521 l 353 103 l 236 233 l 1033 233 l 1033 0 l 65 0 l 144 521 l 65 1042 l 1026 1042 l 1026 808 l 236 808 l 353 939 l 421 521 m 203 1358 l 418 1358 q 472 1301 439 1321 q 556 1281 506 1281 q 638 1301 604 1281 q 693 1358 672 1321 l 908 1358 q 781 1170 875 1232 q 556 1108 688 1108 q 330 1170 424 1108 q 203 1358 236 1232 z "},"Ě":{"ha":1103,"x_min":65,"x_max":1033,"o":"m 988 625 l 988 417 l 225 417 l 225 625 l 988 625 m 421 521 l 353 103 l 236 233 l 1033 233 l 1033 0 l 65 0 l 144 521 l 65 1042 l 1026 1042 l 1026 808 l 236 808 l 353 939 l 421 521 m 706 1118 l 406 1118 l 194 1353 l 428 1353 l 621 1208 l 490 1208 l 685 1353 l 917 1353 l 706 1118 z "},"Ȩ":{"ha":1103,"x_min":65,"x_max":1033,"o":"m 988 625 l 988 417 l 225 417 l 225 625 l 988 625 m 421 521 l 353 103 l 236 233 l 1033 233 l 1033 0 l 65 0 l 144 521 l 65 1042 l 1026 1042 l 1026 808 l 236 808 l 353 939 l 421 521 m 519 28 l 657 28 l 586 -97 l 514 -92 q 588 -65 550 -75 q 672 -54 626 -54 q 821 -91 769 -54 q 872 -192 872 -128 q 804 -306 872 -261 q 606 -350 736 -350 q 415 -309 492 -350 q 318 -196 339 -268 l 501 -196 q 537 -222 513 -211 q 606 -233 561 -233 q 674 -219 651 -233 q 696 -186 696 -206 q 677 -155 696 -167 q 621 -143 658 -143 q 577 -146 599 -143 q 540 -156 556 -149 l 400 -156 l 519 28 z "},"Ḝ":{"ha":1103,"x_min":65,"x_max":1033,"o":"m 988 625 l 988 417 l 225 417 l 225 625 l 988 625 m 421 521 l 353 103 l 236 233 l 1033 233 l 1033 0 l 65 0 l 144 521 l 65 1042 l 1026 1042 l 1026 808 l 236 808 l 353 939 l 421 521 m 519 28 l 657 28 l 586 -97 l 514 -92 q 588 -65 550 -75 q 672 -54 626 -54 q 821 -91 769 -54 q 872 -192 872 -128 q 804 -306 872 -261 q 606 -350 736 -350 q 415 -309 492 -350 q 318 -196 339 -268 l 501 -196 q 537 -222 513 -211 q 606 -233 561 -233 q 674 -219 651 -233 q 696 -186 696 -206 q 677 -155 696 -167 q 621 -143 658 -143 q 577 -146 599 -143 q 540 -156 556 -149 l 400 -156 l 519 28 m 203 1358 l 418 1358 q 472 1301 439 1321 q 556 1281 506 1281 q 638 1301 604 1281 q 693 1358 672 1321 l 908 1358 q 781 1170 875 1232 q 556 1108 688 1108 q 330 1170 424 1108 q 203 1358 236 1232 z "},"Ê":{"ha":1103,"x_min":65,"x_max":1033,"o":"m 988 625 l 988 417 l 225 417 l 225 625 l 988 625 m 421 521 l 353 103 l 236 233 l 1033 233 l 1033 0 l 65 0 l 144 521 l 65 1042 l 1026 1042 l 1026 808 l 236 808 l 353 939 l 421 521 m 406 1353 l 704 1353 l 915 1119 l 683 1119 l 489 1264 l 621 1264 l 426 1119 l 194 1119 l 406 1353 z "},"Ế":{"ha":1103,"x_min":65,"x_max":1174,"o":"m 988 625 l 988 417 l 225 417 l 225 625 l 988 625 m 421 521 l 353 103 l 236 233 l 1033 233 l 1033 0 l 65 0 l 144 521 l 65 1042 l 1026 1042 l 1026 808 l 236 808 l 353 939 l 421 521 m 917 1525 l 1174 1525 l 1006 1304 l 788 1304 l 917 1525 m 406 1353 l 706 1353 l 917 1119 l 685 1119 l 490 1264 l 621 1264 l 428 1119 l 196 1119 l 406 1353 z "},"Ḙ":{"ha":1103,"x_min":65,"x_max":1033,"o":"m 988 625 l 988 417 l 225 417 l 225 625 l 988 625 m 421 521 l 353 103 l 236 233 l 1033 233 l 1033 0 l 65 0 l 144 521 l 65 1042 l 1026 1042 l 1026 808 l 236 808 l 353 939 l 421 521 m 432 -58 l 722 -58 l 921 -321 l 697 -321 l 511 -128 l 643 -128 l 458 -321 l 233 -321 l 432 -58 z "},"Ệ":{"ha":1103,"x_min":65,"x_max":1033,"o":"m 988 625 l 988 417 l 225 417 l 225 625 l 988 625 m 421 521 l 353 103 l 236 233 l 1033 233 l 1033 0 l 65 0 l 144 521 l 65 1042 l 1026 1042 l 1026 808 l 236 808 l 353 939 l 421 521 m 576 -342 q 457 -305 503 -342 q 411 -204 411 -268 q 457 -104 411 -142 q 576 -67 503 -67 q 698 -104 653 -67 q 743 -204 743 -142 q 698 -305 743 -268 q 576 -342 653 -342 m 406 1353 l 704 1353 l 915 1119 l 683 1119 l 489 1264 l 621 1264 l 426 1119 l 194 1119 l 406 1353 z "},"Ề":{"ha":1103,"x_min":65,"x_max":1038,"o":"m 988 625 l 988 417 l 225 417 l 225 625 l 988 625 m 421 521 l 353 103 l 236 233 l 1033 233 l 1033 0 l 65 0 l 144 521 l 65 1042 l 1026 1042 l 1026 808 l 236 808 l 353 939 l 421 521 m 908 1525 l 1038 1304 l 819 1304 l 651 1525 l 908 1525 m 406 1353 l 706 1353 l 917 1119 l 685 1119 l 490 1264 l 621 1264 l 428 1119 l 196 1119 l 406 1353 z "},"Ể":{"ha":1103,"x_min":65,"x_max":1107,"o":"m 988 625 l 988 417 l 225 417 l 225 625 l 988 625 m 421 521 l 353 103 l 236 233 l 1033 233 l 1033 0 l 65 0 l 144 521 l 65 1042 l 1026 1042 l 1026 808 l 236 808 l 353 939 l 421 521 m 851 1274 l 801 1343 q 860 1374 842 1358 q 879 1406 879 1389 q 801 1446 879 1446 q 760 1444 782 1446 q 715 1436 738 1442 l 715 1581 q 784 1594 742 1589 q 875 1600 826 1600 q 1046 1564 985 1600 q 1107 1461 1107 1528 q 1043 1349 1107 1397 q 851 1274 979 1301 m 406 1353 l 706 1353 l 917 1119 l 685 1119 l 490 1264 l 621 1264 l 428 1119 l 196 1119 l 406 1353 z "},"Ễ":{"ha":1103,"x_min":65,"x_max":1033,"o":"m 988 625 l 988 417 l 225 417 l 225 625 l 988 625 m 421 521 l 353 103 l 236 233 l 1033 233 l 1033 0 l 65 0 l 144 521 l 65 1042 l 1026 1042 l 1026 808 l 236 808 l 353 939 l 421 521 m 225 1406 q 281 1574 232 1510 q 419 1639 331 1639 q 494 1628 461 1639 q 552 1605 526 1618 q 599 1581 578 1592 q 642 1569 621 1569 q 683 1587 668 1569 q 704 1638 699 1604 l 875 1638 q 820 1467 869 1529 q 681 1404 771 1404 q 606 1415 639 1404 q 549 1439 574 1425 q 501 1463 524 1453 q 460 1472 479 1472 q 418 1455 433 1472 q 397 1406 403 1438 l 225 1406 m 406 1353 l 704 1353 l 915 1119 l 683 1119 l 489 1264 l 621 1264 l 426 1119 l 194 1119 l 406 1353 z "},"Ȅ":{"ha":1103,"x_min":53,"x_max":1033,"o":"m 988 625 l 988 417 l 225 417 l 225 625 l 988 625 m 421 521 l 353 103 l 236 233 l 1033 233 l 1033 0 l 65 0 l 144 521 l 65 1042 l 1026 1042 l 1026 808 l 236 808 l 353 939 l 421 521 m 690 1353 l 861 1119 l 614 1119 l 418 1353 l 690 1353 m 325 1353 l 496 1119 l 247 1119 l 53 1353 l 325 1353 z "},"Ë":{"ha":1103,"x_min":65,"x_max":1033,"o":"m 988 625 l 988 417 l 225 417 l 225 625 l 988 625 m 421 521 l 353 103 l 236 233 l 1033 233 l 1033 0 l 65 0 l 144 521 l 65 1042 l 1026 1042 l 1026 808 l 236 808 l 353 939 l 421 521 m 340 1118 q 228 1153 271 1118 q 186 1251 186 1189 q 228 1344 186 1310 q 340 1379 271 1379 q 452 1344 410 1379 q 494 1251 494 1310 q 452 1153 494 1189 q 340 1118 410 1118 m 771 1118 q 659 1153 701 1118 q 617 1251 617 1189 q 659 1344 617 1310 q 771 1379 701 1379 q 883 1344 840 1379 q 925 1251 925 1310 q 883 1153 925 1189 q 771 1118 840 1118 z "},"Ė":{"ha":1103,"x_min":65,"x_max":1033,"o":"m 988 625 l 988 417 l 225 417 l 225 625 l 988 625 m 421 521 l 353 103 l 236 233 l 1033 233 l 1033 0 l 65 0 l 144 521 l 65 1042 l 1026 1042 l 1026 808 l 236 808 l 353 939 l 421 521 m 556 1118 q 436 1156 482 1118 q 390 1256 390 1193 q 436 1357 390 1319 q 556 1394 482 1394 q 677 1357 632 1394 q 722 1256 722 1319 q 677 1156 722 1193 q 556 1118 632 1118 z "},"Ẹ":{"ha":1103,"x_min":65,"x_max":1033,"o":"m 988 625 l 988 417 l 225 417 l 225 625 l 988 625 m 421 521 l 353 103 l 236 233 l 1033 233 l 1033 0 l 65 0 l 144 521 l 65 1042 l 1026 1042 l 1026 808 l 236 808 l 353 939 l 421 521 m 576 -342 q 457 -305 503 -342 q 411 -204 411 -268 q 457 -104 411 -142 q 576 -67 503 -67 q 698 -104 653 -67 q 743 -204 743 -142 q 698 -305 743 -268 q 576 -342 653 -342 z "},"È":{"ha":1103,"x_min":65,"x_max":1033,"o":"m 988 625 l 988 417 l 225 417 l 225 625 l 988 625 m 421 521 l 353 103 l 236 233 l 1033 233 l 1033 0 l 65 0 l 144 521 l 65 1042 l 1026 1042 l 1026 808 l 236 808 l 353 939 l 421 521 m 508 1353 l 713 1119 l 426 1119 l 186 1353 l 508 1353 z "},"Ẻ":{"ha":1103,"x_min":65,"x_max":1033,"o":"m 988 625 l 988 417 l 225 417 l 225 625 l 988 625 m 421 521 l 353 103 l 236 233 l 1033 233 l 1033 0 l 65 0 l 144 521 l 65 1042 l 1026 1042 l 1026 808 l 236 808 l 353 939 l 421 521 m 493 1100 l 442 1188 q 535 1214 507 1199 q 563 1246 563 1229 q 542 1269 563 1261 q 479 1278 521 1278 q 420 1274 447 1278 q 363 1264 393 1271 l 363 1407 q 442 1424 390 1415 q 547 1432 493 1432 q 735 1397 669 1432 q 800 1286 800 1363 q 730 1171 800 1217 q 493 1100 660 1125 z "},"Ȇ":{"ha":1103,"x_min":65,"x_max":1033,"o":"m 988 625 l 988 417 l 225 417 l 225 625 l 988 625 m 421 521 l 353 103 l 236 233 l 1033 233 l 1033 0 l 65 0 l 144 521 l 65 1042 l 1026 1042 l 1026 808 l 236 808 l 353 939 l 421 521 m 908 1113 l 693 1113 q 639 1170 672 1150 q 556 1190 606 1190 q 473 1170 507 1190 q 418 1113 439 1150 l 203 1113 q 331 1301 238 1239 q 556 1364 425 1364 q 782 1301 689 1364 q 908 1113 875 1239 z "},"Ē":{"ha":1103,"x_min":65,"x_max":1033,"o":"m 988 625 l 988 417 l 225 417 l 225 625 l 988 625 m 421 521 l 353 103 l 236 233 l 1033 233 l 1033 0 l 65 0 l 144 521 l 65 1042 l 1026 1042 l 1026 808 l 236 808 l 353 939 l 421 521 m 218 1147 l 218 1318 l 894 1318 l 894 1147 l 218 1147 z "},"Ḗ":{"ha":1103,"x_min":65,"x_max":1033,"o":"m 988 625 l 988 417 l 225 417 l 225 625 l 988 625 m 421 521 l 353 103 l 236 233 l 1033 233 l 1033 0 l 65 0 l 144 521 l 65 1042 l 1026 1042 l 1026 808 l 236 808 l 353 939 l 421 521 m 218 1147 l 218 1318 l 894 1318 l 894 1147 l 218 1147 m 588 1633 l 910 1633 l 669 1400 l 383 1400 l 588 1633 z "},"Ḕ":{"ha":1103,"x_min":65,"x_max":1033,"o":"m 988 625 l 988 417 l 225 417 l 225 625 l 988 625 m 421 521 l 353 103 l 236 233 l 1033 233 l 1033 0 l 65 0 l 144 521 l 65 1042 l 1026 1042 l 1026 808 l 236 808 l 353 939 l 421 521 m 218 1147 l 218 1318 l 894 1318 l 894 1147 l 218 1147 m 508 1635 l 713 1400 l 426 1400 l 186 1635 l 508 1635 z "},"Ę":{"ha":1103,"x_min":65,"x_max":1033,"o":"m 988 625 l 988 417 l 225 417 l 225 625 l 988 625 m 421 521 l 353 103 l 236 233 l 1033 233 l 1033 0 l 65 0 l 144 521 l 65 1042 l 1026 1042 l 1026 808 l 236 808 l 353 939 l 421 521 m 908 28 l 1003 17 l 1003 0 l 1033 0 q 945 -30 983 -14 q 887 -62 907 -46 q 867 -96 867 -78 q 953 -135 867 -135 q 995 -132 975 -135 q 1033 -125 1015 -129 l 1033 -275 q 972 -287 1015 -281 q 882 -294 929 -294 q 724 -258 785 -294 q 664 -160 664 -221 q 725 -49 664 -96 q 908 28 786 -3 z "},"Ɛ":{"ha":1165,"x_min":61,"x_max":1126,"o":"m 1099 706 l 813 706 q 742 807 801 771 q 576 843 683 843 q 424 814 475 843 q 372 732 372 785 q 416 654 372 683 q 571 625 460 625 l 749 625 l 749 431 l 571 431 q 439 419 486 431 q 372 383 392 407 q 353 325 353 360 q 413 232 353 265 q 583 199 472 199 q 767 236 704 199 q 839 343 829 274 l 1126 343 q 1054 149 1122 232 q 866 22 986 67 q 583 -22 746 -22 q 300 19 417 -22 q 122 135 183 61 q 61 303 61 208 q 113 447 61 390 q 263 529 165 504 q 496 549 361 554 l 496 519 q 259 552 350 518 q 126 644 168 586 q 83 772 83 703 q 142 926 83 861 q 309 1028 201 992 q 561 1064 417 1064 q 849 1015 731 1064 q 1030 885 967 967 q 1099 706 1093 804 z "},"Ǝ":{"ha":1103,"x_min":68,"x_max":1036,"o":"m 115 625 l 878 625 l 878 417 l 115 417 l 115 625 m 682 521 l 749 939 l 865 808 l 75 808 l 75 1042 l 1036 1042 l 957 521 l 1036 0 l 68 0 l 68 233 l 865 233 l 749 103 l 682 521 z "},"Ʃ":{"ha":1100,"x_min":57,"x_max":1051,"o":"m 57 0 l 57 208 l 524 565 l 524 478 l 69 833 l 69 1042 l 1032 1042 l 1032 814 l 181 814 l 281 963 l 722 615 l 722 429 l 325 125 l 197 228 l 1051 228 l 1051 0 l 57 0 z "},"Ɇ":{"ha":1103,"x_min":65,"x_max":1033,"o":"m 753 1211 l 979 1211 l 561 -169 l 335 -169 l 753 1211 m 988 625 l 988 417 l 225 417 l 225 625 l 988 625 m 421 521 l 353 103 l 236 233 l 1033 233 l 1033 0 l 65 0 l 144 521 l 65 1042 l 1026 1042 l 1026 808 l 236 808 l 353 939 l 421 521 z "},"Ẽ":{"ha":1103,"x_min":65,"x_max":1033,"o":"m 988 625 l 988 417 l 225 417 l 225 625 l 988 625 m 421 521 l 353 103 l 236 233 l 1033 233 l 1033 0 l 65 0 l 144 521 l 65 1042 l 1026 1042 l 1026 808 l 236 808 l 353 939 l 421 521 m 178 1126 q 250 1300 192 1236 q 422 1364 308 1364 q 496 1354 460 1364 q 564 1331 532 1344 q 624 1308 596 1318 q 678 1299 653 1299 q 726 1313 707 1299 q 750 1357 744 1328 l 933 1357 q 861 1183 919 1247 q 690 1118 803 1118 q 616 1128 651 1118 q 548 1152 581 1139 q 487 1175 515 1165 q 433 1185 458 1185 q 386 1170 406 1185 q 361 1126 367 1156 l 178 1126 z "},"Ḛ":{"ha":1103,"x_min":65,"x_max":1033,"o":"m 988 625 l 988 417 l 225 417 l 225 625 l 988 625 m 421 521 l 353 103 l 236 233 l 1033 233 l 1033 0 l 65 0 l 144 521 l 65 1042 l 1026 1042 l 1026 808 l 236 808 l 353 939 l 421 521 m 228 -311 q 285 -122 235 -192 q 433 -53 335 -53 q 506 -63 471 -53 q 573 -87 542 -74 q 632 -113 604 -101 q 682 -125 660 -125 q 731 -106 713 -125 q 756 -54 750 -87 l 924 -54 q 868 -243 918 -172 q 718 -314 818 -314 q 645 -302 681 -314 q 578 -276 610 -290 q 519 -252 547 -262 q 469 -242 492 -242 q 421 -260 440 -242 q 396 -311 401 -278 l 228 -311 z "},"Ə":{"ha":1297,"x_min":49,"x_max":1244,"o":"m 644 1065 q 894 1025 785 1065 q 1083 911 1004 985 q 1203 738 1163 838 q 1244 519 1244 639 q 1169 235 1244 357 q 958 46 1093 114 q 646 -22 824 -22 q 388 24 500 -22 q 201 152 276 69 q 87 345 125 235 q 49 585 49 456 l 983 585 l 983 396 l 239 396 l 349 461 q 394 326 356 383 q 496 237 432 268 q 644 206 560 206 q 807 242 738 206 q 915 347 876 278 q 953 515 953 415 q 915 687 953 617 q 808 794 878 757 q 644 831 738 831 q 503 808 563 831 q 406 747 443 785 q 350 661 368 708 l 60 661 q 163 873 85 782 q 363 1015 240 964 q 644 1065 485 1065 z "},"Ʒ":{"ha":1138,"x_min":21,"x_max":1086,"o":"m 89 1042 l 1032 1042 l 1032 833 l 571 531 l 540 611 l 644 611 q 899 575 801 611 q 1042 474 997 539 q 1086 321 1086 408 q 1028 143 1086 221 q 853 22 969 65 q 565 -22 738 -22 q 282 22 403 -22 q 94 149 161 67 q 21 343 26 232 l 308 343 q 381 236 318 274 q 565 199 443 199 q 737 235 679 199 q 794 335 794 271 q 774 402 794 374 q 706 445 753 431 q 578 460 658 460 l 407 460 l 407 646 l 889 958 l 921 821 l 89 821 l 89 1042 z "},"Ǯ":{"ha":1138,"x_min":21,"x_max":1086,"o":"m 89 1042 l 1032 1042 l 1032 833 l 571 531 l 540 611 l 644 611 q 899 575 801 611 q 1042 474 997 539 q 1086 321 1086 408 q 1028 143 1086 221 q 853 22 969 65 q 565 -22 738 -22 q 282 22 403 -22 q 94 149 161 67 q 21 343 26 232 l 308 343 q 381 236 318 274 q 565 199 443 199 q 737 235 679 199 q 794 335 794 271 q 774 402 794 374 q 706 445 753 431 q 578 460 658 460 l 407 460 l 407 646 l 889 958 l 921 821 l 89 821 l 89 1042 m 701 1118 l 403 1118 l 192 1353 l 424 1353 l 618 1208 l 486 1208 l 681 1353 l 913 1353 l 701 1118 z "},"Ƹ":{"ha":1138,"x_min":51,"x_max":1117,"o":"m 1049 1042 l 1049 821 l 217 821 l 249 958 l 731 646 l 731 460 l 560 460 q 433 445 481 460 q 364 402 385 431 q 343 335 343 374 q 401 235 343 271 q 572 199 458 199 q 757 236 694 199 q 829 343 819 274 l 1117 343 q 1044 149 1113 232 q 856 22 976 67 q 572 -22 736 -22 q 285 22 401 -22 q 110 143 168 65 q 51 321 51 221 q 96 474 51 408 q 238 575 140 539 q 493 611 336 611 l 597 611 l 567 531 l 106 833 l 106 1042 l 1049 1042 z "},"F":{"ha":1071,"x_min":97,"x_max":1019,"o":"m 238 615 l 993 615 l 993 372 l 238 372 l 238 615 m 1019 1042 l 1019 799 l 247 799 l 385 936 l 385 0 l 97 0 l 97 1042 l 1019 1042 z "},"Ḟ":{"ha":1071,"x_min":97,"x_max":1019,"o":"m 238 615 l 993 615 l 993 372 l 238 372 l 238 615 m 1019 1042 l 1019 799 l 247 799 l 385 936 l 385 0 l 97 0 l 97 1042 l 1019 1042 m 543 1118 q 424 1156 469 1118 q 378 1256 378 1193 q 424 1357 378 1319 q 543 1394 469 1394 q 665 1357 619 1394 q 710 1256 710 1319 q 665 1156 710 1193 q 543 1118 619 1118 z "},"Ƒ":{"ha":1071,"x_min":-160,"x_max":1019,"o":"m 238 615 l 993 615 l 993 372 l 238 372 l 238 615 m 385 97 q 297 -162 385 -72 q 33 -251 208 -251 q -67 -245 -15 -251 q -160 -224 -118 -239 l -160 -10 q -104 -24 -135 -18 q -37 -31 -74 -31 q 65 7 33 -31 q 97 117 97 44 l 97 1042 l 1019 1042 l 1019 799 l 247 799 l 385 936 l 385 97 z "},"G":{"ha":1339,"x_min":53,"x_max":1264,"o":"m 1164 451 q 1126 272 1160 357 q 1027 119 1092 186 q 866 15 963 53 q 642 -22 769 -22 q 413 13 519 -22 q 224 118 306 49 q 98 289 143 188 q 53 521 53 390 q 99 753 53 651 q 227 924 144 854 q 419 1028 310 993 q 657 1064 528 1064 q 954 1011 829 1064 q 1156 867 1079 958 q 1254 654 1232 775 l 964 654 q 908 745 950 707 q 802 803 865 783 q 658 824 739 824 q 490 790 561 824 q 381 688 419 756 q 342 521 342 621 q 383 350 342 419 q 502 246 425 281 q 683 211 579 211 q 863 240 785 211 q 987 324 940 268 q 1040 457 1033 379 l 1164 451 m 711 336 l 711 539 l 1264 539 l 1264 0 l 1060 0 l 1019 413 l 1074 336 l 711 336 z "},"Ǵ":{"ha":1339,"x_min":53,"x_max":1264,"o":"m 1164 451 q 1126 272 1160 357 q 1027 119 1092 186 q 866 15 963 53 q 642 -22 769 -22 q 413 13 519 -22 q 224 118 306 49 q 98 289 143 188 q 53 521 53 390 q 99 753 53 651 q 227 924 144 854 q 419 1028 310 993 q 657 1064 528 1064 q 954 1011 829 1064 q 1156 867 1079 958 q 1254 654 1232 775 l 964 654 q 908 745 950 707 q 802 803 865 783 q 658 824 739 824 q 490 790 561 824 q 381 688 419 756 q 342 521 342 621 q 383 350 342 419 q 502 246 425 281 q 683 211 579 211 q 863 240 785 211 q 987 324 940 268 q 1040 457 1033 379 l 1164 451 m 711 336 l 711 539 l 1264 539 l 1264 0 l 1060 0 l 1019 413 l 1074 336 l 711 336 m 689 1353 l 1011 1353 l 771 1119 l 485 1119 l 689 1353 z "},"Ğ":{"ha":1339,"x_min":53,"x_max":1264,"o":"m 1164 451 q 1126 272 1160 357 q 1027 119 1092 186 q 866 15 963 53 q 642 -22 769 -22 q 413 13 519 -22 q 224 118 306 49 q 98 289 143 188 q 53 521 53 390 q 99 753 53 651 q 227 924 144 854 q 419 1028 310 993 q 657 1064 528 1064 q 954 1011 829 1064 q 1156 867 1079 958 q 1254 654 1232 775 l 964 654 q 908 745 950 707 q 802 803 865 783 q 658 824 739 824 q 490 790 561 824 q 381 688 419 756 q 342 521 342 621 q 383 350 342 419 q 502 246 425 281 q 683 211 579 211 q 863 240 785 211 q 987 324 940 268 q 1040 457 1033 379 l 1164 451 m 711 336 l 711 539 l 1264 539 l 1264 0 l 1060 0 l 1019 413 l 1074 336 l 711 336 m 304 1358 l 519 1358 q 574 1301 540 1321 q 657 1281 607 1281 q 740 1301 706 1281 q 794 1358 774 1321 l 1010 1358 q 883 1170 976 1232 q 657 1108 789 1108 q 431 1170 525 1108 q 304 1358 338 1232 z "},"Ǧ":{"ha":1339,"x_min":53,"x_max":1264,"o":"m 1164 451 q 1126 272 1160 357 q 1027 119 1092 186 q 866 15 963 53 q 642 -22 769 -22 q 413 13 519 -22 q 224 118 306 49 q 98 289 143 188 q 53 521 53 390 q 99 753 53 651 q 227 924 144 854 q 419 1028 310 993 q 657 1064 528 1064 q 954 1011 829 1064 q 1156 867 1079 958 q 1254 654 1232 775 l 964 654 q 908 745 950 707 q 802 803 865 783 q 658 824 739 824 q 490 790 561 824 q 381 688 419 756 q 342 521 342 621 q 383 350 342 419 q 502 246 425 281 q 683 211 579 211 q 863 240 785 211 q 987 324 940 268 q 1040 457 1033 379 l 1164 451 m 711 336 l 711 539 l 1264 539 l 1264 0 l 1060 0 l 1019 413 l 1074 336 l 711 336 m 807 1118 l 508 1118 l 296 1353 l 529 1353 l 724 1208 l 592 1208 l 786 1353 l 1018 1353 l 807 1118 z "},"Ĝ":{"ha":1339,"x_min":53,"x_max":1264,"o":"m 1164 451 q 1126 272 1160 357 q 1027 119 1092 186 q 866 15 963 53 q 642 -22 769 -22 q 413 13 519 -22 q 224 118 306 49 q 98 289 143 188 q 53 521 53 390 q 99 753 53 651 q 227 924 144 854 q 419 1028 310 993 q 657 1064 528 1064 q 954 1011 829 1064 q 1156 867 1079 958 q 1254 654 1232 775 l 964 654 q 908 745 950 707 q 802 803 865 783 q 658 824 739 824 q 490 790 561 824 q 381 688 419 756 q 342 521 342 621 q 383 350 342 419 q 502 246 425 281 q 683 211 579 211 q 863 240 785 211 q 987 324 940 268 q 1040 457 1033 379 l 1164 451 m 711 336 l 711 539 l 1264 539 l 1264 0 l 1060 0 l 1019 413 l 1074 336 l 711 336 m 508 1353 l 807 1353 l 1018 1119 l 786 1119 l 592 1264 l 724 1264 l 529 1119 l 297 1119 l 508 1353 z "},"Ģ":{"ha":1339,"x_min":53,"x_max":1264,"o":"m 1164 451 q 1126 272 1160 357 q 1027 119 1092 186 q 866 15 963 53 q 642 -22 769 -22 q 413 13 519 -22 q 224 118 306 49 q 98 289 143 188 q 53 521 53 390 q 99 753 53 651 q 227 924 144 854 q 419 1028 310 993 q 657 1064 528 1064 q 954 1011 829 1064 q 1156 867 1079 958 q 1254 654 1232 775 l 964 654 q 908 745 950 707 q 802 803 865 783 q 658 824 739 824 q 490 790 561 824 q 381 688 419 756 q 342 521 342 621 q 383 350 342 419 q 502 246 425 281 q 683 211 579 211 q 863 240 785 211 q 987 324 940 268 q 1040 457 1033 379 l 1164 451 m 711 336 l 711 539 l 1264 539 l 1264 0 l 1060 0 l 1019 413 l 1074 336 l 711 336 m 528 -429 l 660 -217 l 671 -296 q 561 -264 603 -296 q 519 -178 519 -232 q 560 -92 519 -124 q 671 -61 601 -61 q 781 -93 740 -61 q 822 -181 822 -125 q 803 -250 822 -218 q 739 -337 783 -282 l 664 -429 l 528 -429 z "},"Ġ":{"ha":1339,"x_min":53,"x_max":1264,"o":"m 1164 451 q 1126 272 1160 357 q 1027 119 1092 186 q 866 15 963 53 q 642 -22 769 -22 q 413 13 519 -22 q 224 118 306 49 q 98 289 143 188 q 53 521 53 390 q 99 753 53 651 q 227 924 144 854 q 419 1028 310 993 q 657 1064 528 1064 q 954 1011 829 1064 q 1156 867 1079 958 q 1254 654 1232 775 l 964 654 q 908 745 950 707 q 802 803 865 783 q 658 824 739 824 q 490 790 561 824 q 381 688 419 756 q 342 521 342 621 q 383 350 342 419 q 502 246 425 281 q 683 211 579 211 q 863 240 785 211 q 987 324 940 268 q 1040 457 1033 379 l 1164 451 m 711 336 l 711 539 l 1264 539 l 1264 0 l 1060 0 l 1019 413 l 1074 336 l 711 336 m 657 1118 q 538 1156 583 1118 q 492 1256 492 1193 q 538 1357 492 1319 q 657 1394 583 1394 q 778 1357 733 1394 q 824 1256 824 1319 q 778 1156 824 1193 q 657 1118 733 1118 z "},"Ɠ":{"ha":1389,"x_min":54,"x_max":1421,"o":"m 643 -22 q 415 13 521 -22 q 227 118 308 49 q 100 289 146 188 q 54 521 54 390 q 102 757 54 656 q 232 926 150 858 q 419 1029 314 994 q 642 1064 525 1064 q 932 997 815 1064 q 1121 781 1049 929 l 1051 797 q 991 908 1019 849 q 963 1029 963 968 q 992 1143 963 1092 q 1081 1225 1021 1194 q 1238 1256 1142 1256 q 1334 1248 1288 1256 q 1421 1226 1381 1240 l 1421 1014 q 1367 1028 1394 1022 q 1307 1035 1339 1035 q 1211 1006 1242 1035 q 1181 928 1181 978 q 1190 867 1181 900 q 1213 793 1199 833 q 1234 724 1222 760 q 1254 654 1246 689 l 965 654 q 910 745 951 707 q 804 803 868 783 q 660 824 740 824 q 492 790 563 824 q 383 688 421 756 q 344 521 344 621 q 386 350 344 419 q 504 246 428 281 q 686 211 581 211 q 865 240 788 211 q 988 324 942 268 q 1043 457 1035 379 l 1167 451 q 1128 272 1163 357 q 1030 119 1094 186 q 869 15 965 53 q 643 -22 772 -22 m 714 363 l 714 539 l 1265 539 l 1265 0 l 1063 0 l 1021 413 l 1076 363 l 714 363 z "},"Ɂ":{"ha":1050,"x_min":11,"x_max":1028,"o":"m 547 1064 q 809 1022 703 1064 q 972 906 915 981 q 1028 733 1028 832 q 1011 626 1028 674 q 958 539 994 579 q 865 456 922 499 l 776 392 q 701 323 726 356 q 667 251 675 290 q 658 151 658 211 l 658 0 l 369 0 l 369 201 q 387 338 369 282 q 440 440 404 394 q 532 525 475 485 l 626 594 q 694 647 669 626 q 727 685 718 667 q 736 729 736 704 q 686 812 736 781 q 535 843 636 843 q 367 805 426 843 q 297 697 308 767 l 11 697 q 80 881 17 797 q 261 1015 143 965 q 547 1064 379 1064 z "},"Ḡ":{"ha":1339,"x_min":53,"x_max":1264,"o":"m 1164 451 q 1126 272 1160 357 q 1027 119 1092 186 q 866 15 963 53 q 642 -22 769 -22 q 413 13 519 -22 q 224 118 306 49 q 98 289 143 188 q 53 521 53 390 q 99 753 53 651 q 227 924 144 854 q 419 1028 310 993 q 657 1064 528 1064 q 954 1011 829 1064 q 1156 867 1079 958 q 1254 654 1232 775 l 964 654 q 908 745 950 707 q 802 803 865 783 q 658 824 739 824 q 490 790 561 824 q 381 688 419 756 q 342 521 342 621 q 383 350 342 419 q 502 246 425 281 q 683 211 579 211 q 863 240 785 211 q 987 324 940 268 q 1040 457 1033 379 l 1164 451 m 711 336 l 711 539 l 1264 539 l 1264 0 l 1060 0 l 1019 413 l 1074 336 l 711 336 m 319 1147 l 319 1318 l 996 1318 l 996 1147 l 319 1147 z "},"Ɡ":{"ha":1299,"x_min":53,"x_max":1207,"o":"m 921 301 l 921 471 l 932 511 l 932 751 l 921 786 l 921 1042 l 1207 1042 l 1207 319 q 1164 71 1207 178 q 1040 -108 1121 -36 q 849 -216 960 -181 q 601 -251 738 -251 q 357 -217 469 -251 q 147 -118 244 -182 l 147 136 q 373 22 260 53 q 581 -10 486 -10 q 763 24 686 -10 q 880 128 839 58 q 921 301 921 197 m 506 153 q 324 185 407 153 q 181 277 242 217 q 86 422 119 338 q 53 608 53 506 q 86 796 53 713 q 181 940 119 879 q 324 1032 242 1000 q 506 1064 407 1064 q 690 1032 607 1064 q 838 948 774 1000 q 944 835 901 896 q 1008 713 986 774 q 1031 604 1031 653 q 1008 492 1031 553 q 944 371 986 431 q 838 262 901 311 q 690 183 774 213 q 506 153 607 153 m 594 383 q 790 440 704 383 q 933 608 876 496 q 789 778 876 722 q 594 833 701 833 q 463 806 519 833 q 374 727 406 778 q 342 608 342 676 q 374 490 342 540 q 463 411 406 439 q 594 383 519 383 z "},"Ǥ":{"ha":1388,"x_min":53,"x_max":1381,"o":"m 667 385 l 1381 385 l 1381 246 l 667 246 l 667 385 m 726 586 l 1264 586 l 1264 521 l 1168 521 q 1136 303 1168 403 q 1040 131 1104 204 q 876 18 975 58 q 644 -22 778 -22 q 336 44 469 -22 q 128 233 203 111 q 53 521 53 356 q 99 753 53 651 q 227 924 144 854 q 419 1028 310 993 q 657 1064 528 1064 q 944 1015 825 1064 q 1139 882 1064 967 q 1246 688 1214 797 l 943 688 q 892 756 931 724 q 797 806 854 788 q 665 825 739 825 q 494 790 567 825 q 381 688 421 756 q 342 521 342 621 q 378 358 342 429 q 489 249 415 288 q 674 210 563 210 q 872 239 792 210 q 993 322 953 268 q 1033 449 1033 376 l 1033 489 l 1075 419 l 726 419 l 726 586 m 1046 556 l 1264 556 l 1264 1 l 1082 1 l 1046 556 z "},"Ȝ":{"ha":1138,"x_min":21,"x_max":1086,"o":"m 89 1042 l 1032 1042 l 1032 833 l 571 531 l 540 611 l 644 611 q 899 575 801 611 q 1042 474 997 539 q 1086 321 1086 408 q 1028 143 1086 221 q 853 22 969 65 q 565 -22 738 -22 q 282 22 403 -22 q 94 149 161 67 q 21 343 26 232 l 308 343 q 381 236 318 274 q 565 199 443 199 q 737 235 679 199 q 794 335 794 271 q 774 402 794 374 q 706 445 753 431 q 578 460 658 460 l 407 460 l 407 646 l 889 958 l 921 821 l 89 821 l 89 1042 z "},"H":{"ha":1303,"x_min":97,"x_max":1206,"o":"m 97 1042 l 385 1042 l 385 0 l 97 0 l 97 1042 m 917 1042 l 1206 1042 l 1206 0 l 917 0 l 917 1042 m 258 657 l 1036 657 l 1036 401 l 258 401 l 258 657 z "},"Ħ":{"ha":1353,"x_min":29,"x_max":1324,"o":"m 122 1042 l 410 1042 l 410 0 l 122 0 l 122 1042 m 943 1042 l 1232 1042 l 1232 0 l 943 0 l 943 1042 m 263 617 l 1042 617 l 1042 379 l 263 379 l 263 617 m 29 940 l 1324 940 l 1324 747 l 29 747 l 29 940 z "},"Ḫ":{"ha":1303,"x_min":97,"x_max":1206,"o":"m 97 1042 l 385 1042 l 385 0 l 97 0 l 97 1042 m 917 1042 l 1206 1042 l 1206 0 l 917 0 l 917 1042 m 258 657 l 1036 657 l 1036 401 l 258 401 l 258 657 m 332 -58 l 540 -58 q 585 -132 551 -106 q 669 -158 618 -158 q 753 -132 719 -158 q 799 -58 788 -106 l 1007 -58 q 901 -258 988 -185 q 669 -331 814 -331 q 439 -258 525 -331 q 332 -58 353 -185 z "},"Ȟ":{"ha":1303,"x_min":97,"x_max":1206,"o":"m 97 1042 l 385 1042 l 385 0 l 97 0 l 97 1042 m 917 1042 l 1206 1042 l 1206 0 l 917 0 l 917 1042 m 258 657 l 1036 657 l 1036 401 l 258 401 l 258 657 m 801 1118 l 501 1118 l 290 1353 l 522 1353 l 717 1208 l 586 1208 l 779 1353 l 1011 1353 l 801 1118 z "},"Ḩ":{"ha":1303,"x_min":-19,"x_max":1206,"o":"m 97 1042 l 385 1042 l 385 0 l 97 0 l 97 1042 m 917 1042 l 1206 1042 l 1206 0 l 917 0 l 917 1042 m 258 657 l 1036 657 l 1036 401 l 258 401 l 258 657 m 182 28 l 319 28 l 249 -97 l 176 -92 q 251 -65 213 -75 q 335 -54 289 -54 q 483 -91 432 -54 q 535 -192 535 -128 q 467 -306 535 -261 q 268 -350 399 -350 q 78 -309 154 -350 q -19 -196 1 -268 l 164 -196 q 199 -222 175 -211 q 268 -233 224 -233 q 336 -219 314 -233 q 358 -186 358 -206 q 340 -155 358 -167 q 283 -143 321 -143 q 240 -146 261 -143 q 203 -156 218 -149 l 63 -156 l 182 28 z "},"Ĥ":{"ha":1303,"x_min":97,"x_max":1206,"o":"m 97 1042 l 385 1042 l 385 0 l 97 0 l 97 1042 m 917 1042 l 1206 1042 l 1206 0 l 917 0 l 917 1042 m 258 657 l 1036 657 l 1036 401 l 258 401 l 258 657 m 501 1353 l 800 1353 l 1011 1119 l 779 1119 l 585 1264 l 717 1264 l 522 1119 l 290 1119 l 501 1353 z "},"Ḧ":{"ha":1303,"x_min":97,"x_max":1206,"o":"m 97 1042 l 385 1042 l 385 0 l 97 0 l 97 1042 m 917 1042 l 1206 1042 l 1206 0 l 917 0 l 917 1042 m 258 657 l 1036 657 l 1036 401 l 258 401 l 258 657 m 436 1118 q 324 1153 367 1118 q 282 1251 282 1189 q 324 1344 282 1310 q 436 1379 367 1379 q 548 1344 506 1379 q 590 1251 590 1310 q 548 1153 590 1189 q 436 1118 506 1118 m 867 1118 q 755 1153 797 1118 q 713 1251 713 1189 q 755 1344 713 1310 q 867 1379 797 1379 q 978 1344 936 1379 q 1021 1251 1021 1310 q 978 1153 1021 1189 q 867 1118 936 1118 z "},"Ḣ":{"ha":1303,"x_min":97,"x_max":1206,"o":"m 97 1042 l 385 1042 l 385 0 l 97 0 l 97 1042 m 917 1042 l 1206 1042 l 1206 0 l 917 0 l 917 1042 m 258 657 l 1036 657 l 1036 401 l 258 401 l 258 657 m 650 1118 q 531 1156 576 1118 q 485 1256 485 1193 q 531 1357 485 1319 q 650 1394 576 1394 q 772 1357 726 1394 q 817 1256 817 1319 q 772 1156 817 1193 q 650 1118 726 1118 z "},"Ḥ":{"ha":1303,"x_min":97,"x_max":1206,"o":"m 97 1042 l 385 1042 l 385 0 l 97 0 l 97 1042 m 917 1042 l 1206 1042 l 1206 0 l 917 0 l 917 1042 m 258 657 l 1036 657 l 1036 401 l 258 401 l 258 657 m 650 -342 q 531 -305 576 -342 q 485 -204 485 -268 q 531 -104 485 -142 q 650 -67 576 -67 q 772 -104 726 -67 q 817 -204 817 -142 q 772 -305 817 -268 q 650 -342 726 -342 z "},"Ꜧ":{"ha":1303,"x_min":97,"x_max":1206,"o":"m 97 1042 l 385 1042 l 385 0 l 97 0 l 97 1042 m 258 657 l 1036 657 l 1036 401 l 258 401 l 258 657 m 917 1042 l 1206 1042 l 1206 78 q 1165 -98 1206 -24 q 1041 -212 1125 -172 q 825 -251 957 -251 q 690 -240 753 -251 q 585 -212 626 -228 l 585 4 q 672 -22 624 -14 q 771 -31 719 -31 q 882 3 847 -31 q 917 115 917 36 l 917 1042 z "},"Ɦ":{"ha":1628,"x_min":25,"x_max":1532,"o":"m 711 1042 l 711 0 l 422 0 l 422 933 l 543 800 l 372 800 q 297 778 324 800 q 271 703 271 757 q 278 635 271 668 q 294 576 285 601 l 82 576 q 41 672 57 619 q 25 790 25 725 q 96 974 25 907 q 318 1042 167 1042 l 711 1042 m 1243 1042 l 1532 1042 l 1532 0 l 1243 0 l 1243 1042 m 583 657 l 1363 657 l 1363 401 l 583 401 l 583 657 z "},"Ɥ":{"ha":1199,"x_min":79,"x_max":1101,"o":"m 79 1042 l 368 1042 l 368 401 l 79 401 l 79 1042 m 813 1042 l 1101 1042 l 1101 0 l 813 0 l 813 1042 m 240 656 l 932 656 l 932 401 l 240 401 l 240 656 z "},"I":{"ha":482,"x_min":97,"x_max":385,"o":"m 97 1042 l 385 1042 l 385 0 l 97 0 l 97 1042 z "},"Ĳ":{"ha":1174,"x_min":75,"x_max":1090,"o":"m 75 1042 l 364 1042 l 364 575 l 75 575 l 75 1042 m 78 485 l 361 485 l 361 450 q 412 282 361 340 q 581 224 463 224 q 749 278 696 224 q 801 428 801 332 l 801 1042 l 1090 1042 l 1090 413 q 1026 179 1090 276 q 848 30 963 82 q 581 -22 733 -22 q 318 31 429 -22 q 145 186 207 85 q 79 428 83 288 l 78 485 z "},"Í":{"ha":482,"x_min":68,"x_max":596,"o":"m 97 1042 l 385 1042 l 385 0 l 97 0 l 97 1042 m 272 1353 l 594 1353 l 354 1119 l 68 1119 l 272 1353 z "},"Ĭ":{"ha":482,"x_min":-47,"x_max":529,"o":"m -47 1353 l 150 1353 q 179 1289 157 1313 q 240 1265 201 1265 q 303 1289 281 1265 q 332 1353 325 1313 l 529 1353 q 442 1175 518 1242 q 240 1108 365 1108 q 41 1175 118 1108 q -47 1353 -36 1242 m 97 1042 l 385 1042 l 385 0 l 97 0 l 97 1042 z "},"Ǐ":{"ha":482,"x_min":-121,"x_max":601,"o":"m 97 1042 l 385 1042 l 385 0 l 97 0 l 97 1042 m 390 1118 l 92 1118 l -121 1353 l 113 1353 l 307 1208 l 175 1208 l 369 1353 l 601 1353 l 390 1118 z "},"Î":{"ha":482,"x_min":-57,"x_max":539,"o":"m 96 1353 l 386 1353 l 539 1119 l 339 1119 l 206 1261 l 275 1261 l 142 1119 l -57 1119 l 96 1353 m 97 1042 l 385 1042 l 385 0 l 97 0 l 97 1042 z "},"Ȉ":{"ha":482,"x_min":-124,"x_max":539,"o":"m 408 1353 l 539 1119 l 324 1119 l 181 1353 l 408 1353 m 104 1353 l 233 1119 l 19 1119 l -124 1353 l 104 1353 m 97 1042 l 385 1042 l 385 0 l 97 0 l 97 1042 z "},"Ï":{"ha":482,"x_min":-40,"x_max":522,"o":"m 88 1118 q -6 1153 28 1118 q -40 1249 -40 1188 q -6 1345 -40 1311 q 88 1379 28 1379 q 180 1345 146 1379 q 214 1249 214 1311 q 180 1153 214 1188 q 88 1118 146 1118 m 394 1118 q 302 1153 336 1118 q 268 1249 268 1188 q 302 1345 268 1311 q 394 1379 336 1379 q 488 1345 454 1379 q 522 1249 522 1311 q 488 1153 522 1188 q 394 1118 454 1118 m 97 1042 l 385 1042 l 385 0 l 97 0 l 97 1042 z "},"Ḯ":{"ha":482,"x_min":-40,"x_max":596,"o":"m 88 1118 q -6 1153 28 1118 q -40 1249 -40 1188 q -6 1345 -40 1311 q 88 1379 28 1379 q 180 1345 146 1379 q 214 1249 214 1311 q 180 1153 214 1188 q 88 1118 146 1118 m 394 1118 q 302 1153 336 1118 q 268 1249 268 1188 q 302 1345 268 1311 q 394 1379 336 1379 q 488 1345 454 1379 q 522 1249 522 1311 q 488 1153 522 1188 q 394 1118 454 1118 m 97 1042 l 385 1042 l 385 0 l 97 0 l 97 1042 m 274 1675 l 596 1675 l 356 1442 l 69 1442 l 274 1675 z "},"İ":{"ha":482,"x_min":75,"x_max":407,"o":"m 97 1042 l 385 1042 l 385 0 l 97 0 l 97 1042 m 240 1118 q 121 1156 167 1118 q 75 1256 75 1193 q 121 1357 75 1319 q 240 1394 167 1394 q 362 1357 317 1394 q 407 1256 407 1319 q 362 1156 407 1193 q 240 1118 317 1118 z "},"Ị":{"ha":482,"x_min":75,"x_max":407,"o":"m 97 1042 l 385 1042 l 385 0 l 97 0 l 97 1042 m 240 -342 q 121 -305 167 -342 q 75 -204 75 -268 q 121 -104 75 -142 q 240 -67 167 -67 q 362 -104 317 -67 q 407 -204 407 -142 q 362 -305 407 -268 q 240 -342 317 -342 z "},"Ì":{"ha":482,"x_min":-129,"x_max":397,"o":"m 97 1042 l 385 1042 l 385 0 l 97 0 l 97 1042 m 193 1353 l 397 1119 l 111 1119 l -129 1353 l 193 1353 z "},"Ỉ":{"ha":482,"x_min":47,"x_max":486,"o":"m 97 1042 l 385 1042 l 385 0 l 97 0 l 97 1042 m 178 1100 l 126 1188 q 219 1214 192 1199 q 247 1246 247 1229 q 226 1269 247 1261 q 164 1278 206 1278 q 105 1274 132 1278 q 47 1264 78 1271 l 47 1407 q 126 1424 75 1415 q 232 1432 178 1432 q 419 1397 354 1432 q 485 1286 485 1363 q 415 1171 485 1217 q 178 1100 344 1125 z "},"Ȋ":{"ha":482,"x_min":-112,"x_max":593,"o":"m 97 1042 l 385 1042 l 385 0 l 97 0 l 97 1042 m 593 1113 l 378 1113 q 324 1170 357 1150 q 240 1190 290 1190 q 158 1170 192 1190 q 104 1113 124 1150 l -112 1113 q 16 1301 -78 1239 q 240 1364 110 1364 q 467 1301 374 1364 q 593 1113 560 1239 z "},"Ī":{"ha":482,"x_min":-19,"x_max":501,"o":"m -19 1147 l -19 1318 l 501 1318 l 501 1147 l -19 1147 m 97 1042 l 385 1042 l 385 0 l 97 0 l 97 1042 z "},"Į":{"ha":482,"x_min":39,"x_max":407,"o":"m 253 17 l 353 17 l 353 0 l 385 0 q 290 -44 324 -22 q 256 -96 256 -67 q 328 -135 256 -135 q 368 -132 347 -135 q 407 -125 389 -129 l 407 -275 q 346 -287 389 -281 q 257 -294 303 -294 q 99 -258 160 -294 q 39 -158 39 -221 q 94 -55 39 -99 q 253 17 149 -11 m 97 1042 l 385 1042 l 385 0 l 97 0 l 97 1042 z "},"Ɩ":{"ha":604,"x_min":90,"x_max":576,"o":"m 90 1042 l 378 1042 l 378 326 q 401 229 378 260 q 482 199 424 199 q 529 203 506 199 q 576 214 553 207 l 576 1 q 499 -16 543 -10 q 404 -22 456 -22 q 166 63 242 -22 q 90 310 90 149 l 90 1042 z "},"Ɨ":{"ha":583,"x_min":29,"x_max":553,"o":"m 29 438 l 29 633 l 553 633 l 553 438 l 29 438 m 147 1042 l 436 1042 l 436 0 l 147 0 l 147 1042 z "},"Ĩ":{"ha":482,"x_min":-40,"x_max":521,"o":"m -40 1122 q 10 1292 -33 1229 q 138 1354 54 1354 q 197 1344 172 1354 q 242 1319 222 1333 q 281 1295 263 1306 q 321 1285 300 1285 q 360 1303 346 1285 q 381 1351 375 1321 l 521 1351 q 471 1183 515 1246 q 343 1121 426 1121 q 284 1131 310 1121 q 238 1156 258 1142 q 200 1180 218 1169 q 161 1190 182 1190 q 122 1173 136 1190 q 101 1122 107 1156 l -40 1122 m 97 1042 l 385 1042 l 385 0 l 97 0 l 97 1042 z "},"Ḭ":{"ha":482,"x_min":-40,"x_max":521,"o":"m -40 -287 q 10 -119 -33 -181 q 138 -57 54 -57 q 197 -67 172 -57 q 242 -92 222 -78 q 281 -116 263 -106 q 321 -126 300 -126 q 360 -108 346 -126 q 381 -58 375 -90 l 521 -58 q 471 -228 515 -165 q 343 -290 426 -290 q 284 -280 310 -290 q 238 -256 258 -269 q 200 -231 218 -242 q 161 -221 182 -221 q 122 -238 136 -221 q 101 -287 107 -256 l -40 -287 m 97 1042 l 385 1042 l 385 0 l 97 0 l 97 1042 z "},"J":{"ha":1119,"x_min":25,"x_max":1035,"o":"m 25 513 l 307 513 l 307 478 q 358 291 307 356 q 526 226 408 226 q 694 287 642 226 q 747 456 747 347 l 747 1042 l 1035 1042 l 1035 440 q 971 192 1035 296 q 793 33 907 88 q 526 -22 679 -22 q 263 35 376 -22 q 88 199 150 92 q 26 456 26 307 l 25 513 z "},"Ĵ":{"ha":1119,"x_min":25,"x_max":1189,"o":"m 746 1353 l 1036 1353 l 1189 1119 l 990 1119 l 857 1261 l 926 1261 l 793 1119 l 593 1119 l 746 1353 m 25 513 l 307 513 l 307 478 q 358 291 307 356 q 526 226 408 226 q 694 287 642 226 q 747 456 747 347 l 747 1042 l 1035 1042 l 1035 440 q 971 192 1035 296 q 793 33 907 88 q 526 -22 679 -22 q 263 35 376 -22 q 88 199 150 92 q 26 456 26 307 l 25 513 z "},"Ʝ":{"ha":1204,"x_min":18,"x_max":1150,"o":"m 1051 440 q 992 201 1051 306 q 811 37 932 96 q 504 -22 690 -22 q 233 21 342 -22 q 72 135 125 64 q 18 290 18 207 q 47 408 18 353 q 136 505 76 463 q 289 570 196 547 q 510 593 382 593 q 753 562 636 593 q 970 479 869 531 q 1150 369 1071 428 l 1150 133 q 1017 233 1092 186 q 858 315 943 279 q 685 370 774 350 q 511 390 596 390 q 353 363 404 390 q 303 294 303 335 q 323 249 303 269 q 386 217 343 229 q 496 204 429 204 q 698 263 632 204 q 764 428 764 321 l 764 1042 l 1051 1042 l 1051 440 z "},"Ɉ":{"ha":1188,"x_min":25,"x_max":1154,"o":"m 529 713 l 1154 713 l 1154 517 l 529 517 l 529 713 m 25 513 l 307 513 l 307 478 q 358 291 307 356 q 526 226 408 226 q 694 287 642 226 q 747 456 747 347 l 747 1042 l 1035 1042 l 1035 440 q 971 192 1035 296 q 793 33 907 88 q 526 -22 679 -22 q 263 35 376 -22 q 88 199 150 92 q 26 456 26 307 l 25 513 z "},"K":{"ha":1208,"x_min":97,"x_max":1215,"o":"m 97 0 l 97 1042 l 383 1042 l 383 229 l 307 289 l 897 1042 l 1201 1042 l 357 0 l 97 0 m 594 497 l 806 672 l 1215 0 l 889 0 l 594 497 z "},"Ḱ":{"ha":1208,"x_min":97,"x_max":1215,"o":"m 97 0 l 97 1042 l 383 1042 l 383 229 l 307 289 l 897 1042 l 1201 1042 l 357 0 l 97 0 m 594 497 l 806 672 l 1215 0 l 889 0 l 594 497 m 671 1353 l 993 1353 l 753 1119 l 467 1119 l 671 1353 z "},"Ǩ":{"ha":1208,"x_min":97,"x_max":1215,"o":"m 97 0 l 97 1042 l 383 1042 l 383 229 l 307 289 l 897 1042 l 1201 1042 l 357 0 l 97 0 m 594 497 l 806 672 l 1215 0 l 889 0 l 594 497 m 789 1118 l 490 1118 l 279 1353 l 511 1353 l 706 1208 l 574 1208 l 768 1353 l 1000 1353 l 789 1118 z "},"Ķ":{"ha":1208,"x_min":97,"x_max":1215,"o":"m 97 0 l 97 1042 l 383 1042 l 383 229 l 307 289 l 897 1042 l 1201 1042 l 357 0 l 97 0 m 594 497 l 806 672 l 1215 0 l 889 0 l 594 497 m 486 -429 l 618 -217 l 629 -296 q 519 -264 561 -296 q 478 -178 478 -232 q 519 -92 478 -124 q 629 -61 560 -61 q 740 -93 699 -61 q 781 -181 781 -125 q 761 -250 781 -218 q 697 -337 742 -282 l 622 -429 l 486 -429 z "},"Ḳ":{"ha":1208,"x_min":97,"x_max":1215,"o":"m 97 0 l 97 1042 l 383 1042 l 383 229 l 307 289 l 897 1042 l 1201 1042 l 357 0 l 97 0 m 594 497 l 806 672 l 1215 0 l 889 0 l 594 497 m 629 -342 q 510 -305 556 -342 q 464 -204 464 -268 q 510 -104 464 -142 q 629 -67 556 -67 q 751 -104 706 -67 q 796 -204 796 -142 q 751 -305 796 -268 q 629 -342 706 -342 z "},"Ƙ":{"ha":1235,"x_min":97,"x_max":1217,"o":"m 588 501 l 796 675 l 1217 0 l 888 0 l 588 501 m 97 0 l 97 1042 l 383 1042 l 383 229 l 306 289 l 774 921 q 842 997 807 964 q 926 1047 878 1029 q 1042 1064 974 1064 q 1129 1057 1090 1064 q 1203 1040 1168 1050 l 1203 828 q 1142 842 1168 838 q 1090 846 1117 846 q 1012 826 1040 846 q 957 774 983 806 l 357 0 l 97 0 z "},"Ḵ":{"ha":1208,"x_min":97,"x_max":1215,"o":"m 97 0 l 97 1042 l 383 1042 l 383 229 l 307 289 l 897 1042 l 1201 1042 l 357 0 l 97 0 m 594 497 l 806 672 l 1215 0 l 889 0 l 594 497 m 307 -260 l 307 -90 l 983 -90 l 983 -260 l 307 -260 z "},"L":{"ha":1061,"x_min":97,"x_max":1035,"o":"m 385 1042 l 385 128 l 256 256 l 1035 256 l 1035 0 l 97 0 l 97 1042 l 385 1042 z "},"Ǉ":{"ha":2161,"x_min":97,"x_max":2076,"o":"m 385 1042 l 385 128 l 256 256 l 1035 256 l 1035 0 l 97 0 l 97 1042 l 385 1042 m 1067 513 l 1349 513 l 1349 478 q 1399 291 1349 356 q 1568 226 1450 226 q 1736 287 1683 226 q 1789 456 1789 347 l 1789 1042 l 2076 1042 l 2076 440 q 2013 192 2076 296 q 1835 33 1949 88 q 1568 -22 1721 -22 q 1305 35 1418 -22 q 1130 199 1192 92 q 1068 456 1068 307 l 1067 513 z "},"Ĺ":{"ha":1061,"x_min":68,"x_max":1035,"o":"m 385 1042 l 385 128 l 256 256 l 1035 256 l 1035 0 l 97 0 l 97 1042 l 385 1042 m 272 1353 l 594 1353 l 354 1119 l 68 1119 l 272 1353 z "},"Ƚ":{"ha":1113,"x_min":31,"x_max":1086,"o":"m 31 685 l 763 685 l 763 489 l 31 489 l 31 685 m 436 1042 l 436 128 l 307 256 l 1086 256 l 1086 0 l 147 0 l 147 1042 l 436 1042 z "},"Ɬ":{"ha":1306,"x_min":8,"x_max":1279,"o":"m 231 799 q 372 762 315 799 q 456 665 428 725 q 485 533 485 606 l 485 361 l 376 361 l 376 533 q 342 628 376 597 q 263 658 308 658 q 211 643 229 658 q 193 603 193 628 q 217 556 193 575 q 297 538 240 538 q 369 544 332 538 q 447 558 407 550 l 553 590 q 708 649 628 611 q 881 742 789 686 l 881 560 q 722 481 803 517 q 560 424 640 446 l 461 400 q 378 387 421 392 q 292 382 335 382 q 83 440 157 382 q 8 596 8 497 q 66 741 8 683 q 231 799 124 799 m 631 1042 l 631 128 l 501 256 l 1279 256 l 1279 0 l 342 0 l 342 1042 l 631 1042 z "},"Ľ":{"ha":1061,"x_min":97,"x_max":1035,"o":"m 385 1042 l 385 128 l 256 256 l 1035 256 l 1035 0 l 97 0 l 97 1042 l 385 1042 m 565 1042 l 813 1042 l 719 708 l 525 708 l 565 1042 z "},"Ḽ":{"ha":1061,"x_min":97,"x_max":1035,"o":"m 385 1042 l 385 128 l 256 256 l 1035 256 l 1035 0 l 97 0 l 97 1042 l 385 1042 m 440 -58 l 731 -58 l 929 -321 l 706 -321 l 519 -128 l 651 -128 l 467 -321 l 242 -321 l 440 -58 z "},"Ļ":{"ha":1061,"x_min":97,"x_max":1035,"o":"m 385 1042 l 385 128 l 256 256 l 1035 256 l 1035 0 l 97 0 l 97 1042 l 385 1042 m 442 -429 l 574 -217 l 585 -296 q 475 -264 517 -296 q 433 -178 433 -232 q 474 -92 433 -124 q 585 -61 515 -61 q 695 -93 654 -61 q 736 -181 736 -125 q 717 -250 736 -218 q 653 -337 697 -282 l 578 -429 l 442 -429 z "},"Ŀ":{"ha":1061,"x_min":97,"x_max":1035,"o":"m 385 1042 l 385 128 l 256 256 l 1035 256 l 1035 0 l 97 0 l 97 1042 l 385 1042 m 772 485 q 689 506 726 485 q 630 565 651 528 q 608 647 608 601 q 630 731 608 694 q 689 790 651 768 q 772 811 726 811 q 856 790 818 811 q 914 731 893 768 q 935 647 935 694 q 914 565 935 601 q 856 506 893 528 q 772 485 818 485 z "},"Ḷ":{"ha":1061,"x_min":97,"x_max":1035,"o":"m 385 1042 l 385 128 l 256 256 l 1035 256 l 1035 0 l 97 0 l 97 1042 l 385 1042 m 585 -342 q 465 -305 511 -342 q 419 -204 419 -268 q 465 -104 419 -142 q 585 -67 511 -67 q 706 -104 661 -67 q 751 -204 751 -142 q 706 -305 751 -268 q 585 -342 661 -342 z "},"Ḹ":{"ha":1061,"x_min":-97,"x_max":1035,"o":"m 385 1042 l 385 128 l 256 256 l 1035 256 l 1035 0 l 97 0 l 97 1042 l 385 1042 m 585 -342 q 465 -305 511 -342 q 419 -204 419 -268 q 465 -104 419 -142 q 585 -67 511 -67 q 706 -104 661 -67 q 751 -204 751 -142 q 706 -305 751 -268 q 585 -342 661 -342 m -97 1147 l -97 1318 l 579 1318 l 579 1147 l -97 1147 z "},"ǈ":{"ha":1501,"x_min":97,"x_max":1447,"o":"m 385 1042 l 385 128 l 256 256 l 1035 256 l 1035 0 l 97 0 l 97 1042 l 385 1042 m 1139 806 l 1282 778 l 1424 806 l 1424 -229 l 1139 -229 l 1139 806 m 1281 871 q 1161 908 1207 871 q 1115 1008 1115 944 q 1161 1108 1115 1071 q 1281 1146 1207 1146 q 1402 1108 1357 1146 q 1447 1008 1447 1071 q 1402 908 1447 944 q 1281 871 1357 871 z "},"Ḻ":{"ha":1061,"x_min":97,"x_max":1035,"o":"m 385 1042 l 385 128 l 256 256 l 1035 256 l 1035 0 l 97 0 l 97 1042 l 385 1042 m 263 -260 l 263 -90 l 939 -90 l 939 -260 l 263 -260 z "},"Ł":{"ha":1108,"x_min":50,"x_max":1082,"o":"m 50 614 l 749 797 l 749 601 l 50 418 l 50 614 m 432 1042 l 432 128 l 303 256 l 1082 256 l 1082 0 l 144 0 l 144 1042 l 432 1042 z "},"M":{"ha":1717,"x_min":97,"x_max":1619,"o":"m 1619 1042 l 1619 0 l 1346 0 l 1346 939 l 1407 932 l 1004 0 l 713 0 l 308 929 l 371 936 l 371 0 l 97 0 l 97 1042 l 542 1042 l 915 147 l 804 147 l 1175 1042 l 1619 1042 z "},"Ḿ":{"ha":1717,"x_min":97,"x_max":1619,"o":"m 1619 1042 l 1619 0 l 1346 0 l 1346 939 l 1407 932 l 1004 0 l 713 0 l 308 929 l 371 936 l 371 0 l 97 0 l 97 1042 l 542 1042 l 915 147 l 804 147 l 1175 1042 l 1619 1042 m 890 1353 l 1213 1353 l 972 1119 l 686 1119 l 890 1353 z "},"Ṁ":{"ha":1717,"x_min":97,"x_max":1619,"o":"m 1619 1042 l 1619 0 l 1346 0 l 1346 939 l 1407 932 l 1004 0 l 713 0 l 308 929 l 371 936 l 371 0 l 97 0 l 97 1042 l 542 1042 l 915 147 l 804 147 l 1175 1042 l 1619 1042 m 858 1118 q 739 1156 785 1118 q 693 1256 693 1193 q 739 1357 693 1319 q 858 1394 785 1394 q 980 1357 935 1394 q 1025 1256 1025 1319 q 980 1156 1025 1193 q 858 1118 935 1118 z "},"Ṃ":{"ha":1717,"x_min":97,"x_max":1619,"o":"m 1619 1042 l 1619 0 l 1346 0 l 1346 939 l 1407 932 l 1004 0 l 713 0 l 308 929 l 371 936 l 371 0 l 97 0 l 97 1042 l 542 1042 l 915 147 l 804 147 l 1175 1042 l 1619 1042 m 858 -342 q 739 -305 785 -342 q 693 -204 693 -268 q 739 -104 693 -142 q 858 -67 785 -67 q 980 -104 935 -67 q 1025 -204 1025 -142 q 980 -305 1025 -268 q 858 -342 935 -342 z "},"Ɱ":{"ha":1717,"x_min":97,"x_max":1619,"o":"m 1346 117 l 1346 939 l 1407 932 l 1004 0 l 713 0 l 308 929 l 371 936 l 371 0 l 97 0 l 97 1042 l 542 1042 l 915 147 l 804 147 l 1175 1042 l 1619 1042 l 1619 97 q 1539 -162 1619 -72 q 1282 -251 1458 -251 q 1182 -245 1233 -251 q 1089 -224 1131 -239 l 1089 -10 q 1144 -24 1114 -18 q 1211 -31 1175 -31 q 1314 7 1282 -31 q 1346 117 1346 44 z "},"Ɯ":{"ha":1718,"x_min":89,"x_max":1661,"o":"m 1661 0 l 1372 0 l 1321 326 l 1321 1042 l 1608 1042 l 1608 274 l 1661 0 m 1047 -22 q 862 24 939 -22 q 744 156 785 71 q 704 358 704 242 l 704 1042 l 993 1042 l 993 399 q 1033 267 993 313 q 1147 221 1072 221 q 1240 245 1201 221 q 1300 315 1279 269 q 1321 421 1321 360 l 1408 375 q 1341 157 1393 246 q 1213 23 1289 68 q 1047 -22 1138 -22 m 433 -22 q 247 23 324 -22 q 130 152 171 68 q 89 350 89 236 l 89 1042 l 376 1042 l 376 399 q 417 267 376 313 q 532 221 457 221 q 624 245 586 221 q 683 315 663 269 q 704 421 704 360 l 794 375 q 728 157 779 246 q 601 23 676 68 q 433 -22 525 -22 z "},"N":{"ha":1350,"x_min":97,"x_max":1253,"o":"m 1063 201 l 974 183 l 974 1042 l 1253 1042 l 1253 0 l 890 0 l 289 857 l 376 875 l 376 0 l 97 0 l 97 1042 l 469 1042 l 1063 201 z "},"Ǌ":{"ha":2469,"x_min":97,"x_max":2385,"o":"m 1063 201 l 974 183 l 974 1042 l 1253 1042 l 1253 0 l 890 0 l 289 857 l 376 875 l 376 0 l 97 0 l 97 1042 l 469 1042 l 1063 201 m 1375 513 l 1657 513 l 1657 478 q 1708 291 1657 356 q 1876 226 1758 226 q 2044 287 1992 226 q 2097 456 2097 347 l 2097 1042 l 2385 1042 l 2385 440 q 2321 192 2385 296 q 2143 33 2257 88 q 1876 -22 2029 -22 q 1613 35 1726 -22 q 1438 199 1500 92 q 1376 456 1376 307 l 1375 513 z "},"Ń":{"ha":1350,"x_min":97,"x_max":1253,"o":"m 1063 201 l 974 183 l 974 1042 l 1253 1042 l 1253 0 l 890 0 l 289 857 l 376 875 l 376 0 l 97 0 l 97 1042 l 469 1042 l 1063 201 m 725 1353 l 1047 1353 l 807 1119 l 521 1119 l 725 1353 z "},"Ň":{"ha":1350,"x_min":97,"x_max":1253,"o":"m 1063 201 l 974 183 l 974 1042 l 1253 1042 l 1253 0 l 890 0 l 289 857 l 376 875 l 376 0 l 97 0 l 97 1042 l 469 1042 l 1063 201 m 843 1118 l 544 1118 l 333 1353 l 565 1353 l 760 1208 l 628 1208 l 822 1353 l 1054 1353 l 843 1118 z "},"Ṋ":{"ha":1350,"x_min":97,"x_max":1253,"o":"m 1063 201 l 974 183 l 974 1042 l 1253 1042 l 1253 0 l 890 0 l 289 857 l 376 875 l 376 0 l 97 0 l 97 1042 l 469 1042 l 1063 201 m 531 -58 l 821 -58 l 1019 -321 l 796 -321 l 610 -128 l 742 -128 l 557 -321 l 332 -321 l 531 -58 z "},"Ņ":{"ha":1350,"x_min":97,"x_max":1253,"o":"m 1063 201 l 974 183 l 974 1042 l 1253 1042 l 1253 0 l 890 0 l 289 857 l 376 875 l 376 0 l 97 0 l 97 1042 l 469 1042 l 1063 201 m 532 -429 l 664 -217 l 675 -296 q 565 -264 607 -296 q 524 -178 524 -232 q 565 -92 524 -124 q 675 -61 606 -61 q 785 -93 744 -61 q 826 -181 826 -125 q 807 -250 826 -218 q 743 -337 788 -282 l 668 -429 l 532 -429 z "},"Ṅ":{"ha":1350,"x_min":97,"x_max":1253,"o":"m 1063 201 l 974 183 l 974 1042 l 1253 1042 l 1253 0 l 890 0 l 289 857 l 376 875 l 376 0 l 97 0 l 97 1042 l 469 1042 l 1063 201 m 693 1118 q 574 1156 619 1118 q 528 1256 528 1193 q 574 1357 528 1319 q 693 1394 619 1394 q 815 1357 769 1394 q 860 1256 860 1319 q 815 1156 860 1193 q 693 1118 769 1118 z "},"Ṇ":{"ha":1350,"x_min":97,"x_max":1253,"o":"m 1063 201 l 974 183 l 974 1042 l 1253 1042 l 1253 0 l 890 0 l 289 857 l 376 875 l 376 0 l 97 0 l 97 1042 l 469 1042 l 1063 201 m 675 -342 q 556 -305 601 -342 q 510 -204 510 -268 q 556 -104 510 -142 q 675 -67 601 -67 q 797 -104 751 -67 q 842 -204 842 -142 q 797 -305 842 -268 q 675 -342 751 -342 z "},"Ǹ":{"ha":1350,"x_min":97,"x_max":1253,"o":"m 1063 201 l 974 183 l 974 1042 l 1253 1042 l 1253 0 l 890 0 l 289 857 l 376 875 l 376 0 l 97 0 l 97 1042 l 469 1042 l 1063 201 m 646 1353 l 850 1119 l 565 1119 l 324 1353 l 646 1353 z "},"Ɲ":{"ha":1350,"x_min":-160,"x_max":1253,"o":"m 97 1042 l 469 1042 l 1061 201 l 974 183 l 974 1042 l 1253 1042 l 1253 0 l 890 0 l 289 857 l 376 875 l 376 101 q 290 -161 376 -71 q 26 -251 204 -251 q -70 -245 -21 -251 q -160 -226 -119 -239 l -160 -12 q -104 -25 -135 -19 q -40 -31 -74 -31 q 65 7 33 -31 q 97 118 97 44 l 97 1042 z "},"ǋ":{"ha":1790,"x_min":97,"x_max":1736,"o":"m 1063 201 l 974 183 l 974 1042 l 1253 1042 l 1253 0 l 890 0 l 289 857 l 376 875 l 376 0 l 97 0 l 97 1042 l 469 1042 l 1063 201 m 1428 806 l 1571 778 l 1713 806 l 1713 -229 l 1428 -229 l 1428 806 m 1569 871 q 1450 908 1496 871 q 1404 1008 1404 944 q 1450 1108 1404 1071 q 1569 1146 1496 1146 q 1691 1108 1646 1146 q 1736 1008 1736 1071 q 1691 908 1736 944 q 1569 871 1646 871 z "},"Ṉ":{"ha":1350,"x_min":97,"x_max":1253,"o":"m 1063 201 l 974 183 l 974 1042 l 1253 1042 l 1253 0 l 890 0 l 289 857 l 376 875 l 376 0 l 97 0 l 97 1042 l 469 1042 l 1063 201 m 353 -260 l 353 -90 l 1029 -90 l 1029 -260 l 353 -260 z "},"Ƞ":{"ha":1244,"x_min":97,"x_max":1157,"o":"m 97 1042 l 385 1042 l 385 0 l 97 0 l 97 1042 m 743 1064 q 965 1014 872 1064 q 1108 870 1058 964 q 1157 650 1157 776 l 1157 -229 l 869 -229 l 869 583 q 810 749 869 692 q 638 807 750 807 q 501 778 558 807 q 415 697 444 750 q 385 572 385 644 l 294 618 q 383 877 321 779 q 536 1019 444 975 q 743 1064 628 1064 z "},"Ñ":{"ha":1350,"x_min":97,"x_max":1253,"o":"m 1063 201 l 974 183 l 974 1042 l 1253 1042 l 1253 0 l 890 0 l 289 857 l 376 875 l 376 0 l 97 0 l 97 1042 l 469 1042 l 1063 201 m 315 1126 q 388 1300 329 1236 q 560 1364 446 1364 q 633 1354 597 1364 q 701 1331 669 1344 q 762 1308 733 1318 q 815 1299 790 1299 q 863 1313 844 1299 q 888 1357 882 1328 l 1071 1357 q 999 1183 1057 1247 q 828 1118 940 1118 q 753 1128 789 1118 q 685 1152 718 1139 q 624 1175 653 1165 q 571 1185 596 1185 q 524 1170 543 1185 q 499 1126 504 1156 l 315 1126 z "},"Ŋ":{"ha":1279,"x_min":97,"x_max":1193,"o":"m 97 1042 l 385 1042 l 385 0 l 97 0 l 97 1042 m 1193 654 l 1193 78 q 1152 -98 1193 -24 q 1026 -212 1111 -172 q 810 -251 942 -251 q 674 -240 738 -251 q 569 -212 611 -228 l 569 4 q 656 -21 607 -11 q 760 -31 706 -31 q 872 3 838 -31 q 906 110 906 38 l 906 586 q 841 750 906 693 q 656 807 776 807 q 510 778 571 807 q 417 695 449 749 q 385 567 385 642 l 292 618 q 388 877 321 779 q 552 1019 456 975 q 761 1064 649 1064 q 993 1014 896 1064 q 1142 872 1090 964 q 1193 654 1193 779 z "},"O":{"ha":1340,"x_min":51,"x_max":1289,"o":"m 669 -22 q 345 46 485 -22 q 128 236 206 114 q 51 521 51 358 q 128 806 51 683 q 345 996 206 928 q 669 1064 485 1064 q 994 996 856 1064 q 1211 806 1133 928 q 1289 521 1289 683 q 1211 236 1289 358 q 994 46 1133 114 q 669 -22 856 -22 m 669 235 q 844 269 771 235 q 958 368 918 304 q 997 521 997 432 q 958 674 997 610 q 844 772 918 738 q 669 807 771 807 q 496 772 569 807 q 382 674 422 738 q 342 521 342 610 q 382 368 342 432 q 496 269 422 304 q 669 235 569 235 z "},"Ó":{"ha":1340,"x_min":51,"x_max":1289,"o":"m 669 -22 q 345 46 485 -22 q 128 236 206 114 q 51 521 51 358 q 128 806 51 683 q 345 996 206 928 q 669 1064 485 1064 q 994 996 856 1064 q 1211 806 1133 928 q 1289 521 1289 683 q 1211 236 1289 358 q 994 46 1133 114 q 669 -22 856 -22 m 669 235 q 844 269 771 235 q 958 368 918 304 q 997 521 997 432 q 958 674 997 610 q 844 772 918 738 q 669 807 771 807 q 496 772 569 807 q 382 674 422 738 q 342 521 342 610 q 382 368 342 432 q 496 269 422 304 q 669 235 569 235 m 701 1353 l 1024 1353 l 783 1119 l 497 1119 l 701 1353 z "},"Ŏ":{"ha":1340,"x_min":51,"x_max":1289,"o":"m 669 -22 q 345 46 485 -22 q 128 236 206 114 q 51 521 51 358 q 128 806 51 683 q 345 996 206 928 q 669 1064 485 1064 q 994 996 856 1064 q 1211 806 1133 928 q 1289 521 1289 683 q 1211 236 1289 358 q 994 46 1133 114 q 669 -22 856 -22 m 669 235 q 844 269 771 235 q 958 368 918 304 q 997 521 997 432 q 958 674 997 610 q 844 772 918 738 q 669 807 771 807 q 496 772 569 807 q 382 674 422 738 q 342 521 342 610 q 382 368 342 432 q 496 269 422 304 q 669 235 569 235 m 317 1358 l 532 1358 q 586 1301 553 1321 q 669 1281 619 1281 q 752 1301 718 1281 q 807 1358 786 1321 l 1022 1358 q 895 1170 989 1232 q 669 1108 801 1108 q 444 1170 538 1108 q 317 1358 350 1232 z "},"Ǒ":{"ha":1340,"x_min":51,"x_max":1289,"o":"m 669 -22 q 345 46 485 -22 q 128 236 206 114 q 51 521 51 358 q 128 806 51 683 q 345 996 206 928 q 669 1064 485 1064 q 994 996 856 1064 q 1211 806 1133 928 q 1289 521 1289 683 q 1211 236 1289 358 q 994 46 1133 114 q 669 -22 856 -22 m 669 235 q 844 269 771 235 q 958 368 918 304 q 997 521 997 432 q 958 674 997 610 q 844 772 918 738 q 669 807 771 807 q 496 772 569 807 q 382 674 422 738 q 342 521 342 610 q 382 368 342 432 q 496 269 422 304 q 669 235 569 235 m 819 1118 l 521 1118 l 308 1353 l 542 1353 l 736 1208 l 604 1208 l 799 1353 l 1031 1353 l 819 1118 z "},"Ɵ":{"ha":1340,"x_min":51,"x_max":1289,"o":"m 126 625 l 1174 625 l 1174 417 l 126 417 l 126 625 m 669 -22 q 345 46 485 -22 q 128 236 206 114 q 51 521 51 358 q 128 806 51 683 q 345 996 206 928 q 669 1064 485 1064 q 994 996 856 1064 q 1211 806 1133 928 q 1289 521 1289 683 q 1211 236 1289 358 q 994 46 1133 114 q 669 -22 856 -22 m 669 219 q 849 256 774 219 q 965 360 924 292 q 1006 521 1006 428 q 965 682 1006 614 q 849 786 924 750 q 669 822 774 822 q 492 786 567 822 q 375 682 417 750 q 333 521 333 614 q 375 360 333 428 q 492 256 417 292 q 669 219 567 219 z "},"Ô":{"ha":1340,"x_min":51,"x_max":1289,"o":"m 669 -22 q 345 46 485 -22 q 128 236 206 114 q 51 521 51 358 q 128 806 51 683 q 345 996 206 928 q 669 1064 485 1064 q 994 996 856 1064 q 1211 806 1133 928 q 1289 521 1289 683 q 1211 236 1289 358 q 994 46 1133 114 q 669 -22 856 -22 m 669 235 q 844 269 771 235 q 958 368 918 304 q 997 521 997 432 q 958 674 997 610 q 844 772 918 738 q 669 807 771 807 q 496 772 569 807 q 382 674 422 738 q 342 521 342 610 q 382 368 342 432 q 496 269 422 304 q 669 235 569 235 m 521 1353 l 819 1353 l 1031 1119 l 799 1119 l 604 1264 l 736 1264 l 542 1119 l 310 1119 l 521 1353 z "},"Ố":{"ha":1340,"x_min":51,"x_max":1289,"o":"m 669 -22 q 345 46 485 -22 q 128 236 206 114 q 51 521 51 358 q 128 806 51 683 q 345 996 206 928 q 669 1064 485 1064 q 994 996 856 1064 q 1211 806 1133 928 q 1289 521 1289 683 q 1211 236 1289 358 q 994 46 1133 114 q 669 -22 856 -22 m 669 235 q 844 269 771 235 q 958 368 918 304 q 997 521 997 432 q 958 674 997 610 q 844 772 918 738 q 669 807 771 807 q 496 772 569 807 q 382 674 422 738 q 342 521 342 610 q 382 368 342 432 q 496 269 422 304 q 669 235 569 235 m 1031 1525 l 1288 1525 l 1119 1304 l 901 1304 l 1031 1525 m 519 1353 l 819 1353 l 1031 1119 l 799 1119 l 604 1264 l 735 1264 l 542 1119 l 310 1119 l 519 1353 z "},"Ộ":{"ha":1340,"x_min":51,"x_max":1289,"o":"m 669 -22 q 345 46 485 -22 q 128 236 206 114 q 51 521 51 358 q 128 806 51 683 q 345 996 206 928 q 669 1064 485 1064 q 994 996 856 1064 q 1211 806 1133 928 q 1289 521 1289 683 q 1211 236 1289 358 q 994 46 1133 114 q 669 -22 856 -22 m 669 235 q 844 269 771 235 q 958 368 918 304 q 997 521 997 432 q 958 674 997 610 q 844 772 918 738 q 669 807 771 807 q 496 772 569 807 q 382 674 422 738 q 342 521 342 610 q 382 368 342 432 q 496 269 422 304 q 669 235 569 235 m 669 -342 q 550 -305 596 -342 q 504 -204 504 -268 q 550 -104 504 -142 q 669 -67 596 -67 q 791 -104 746 -67 q 836 -204 836 -142 q 791 -305 836 -268 q 669 -342 746 -342 m 521 1353 l 819 1353 l 1031 1119 l 799 1119 l 604 1264 l 736 1264 l 542 1119 l 310 1119 l 521 1353 z "},"Ồ":{"ha":1340,"x_min":51,"x_max":1289,"o":"m 669 -22 q 345 46 485 -22 q 128 236 206 114 q 51 521 51 358 q 128 806 51 683 q 345 996 206 928 q 669 1064 485 1064 q 994 996 856 1064 q 1211 806 1133 928 q 1289 521 1289 683 q 1211 236 1289 358 q 994 46 1133 114 q 669 -22 856 -22 m 669 235 q 844 269 771 235 q 958 368 918 304 q 997 521 997 432 q 958 674 997 610 q 844 772 918 738 q 669 807 771 807 q 496 772 569 807 q 382 674 422 738 q 342 521 342 610 q 382 368 342 432 q 496 269 422 304 q 669 235 569 235 m 1022 1525 l 1151 1304 l 933 1304 l 765 1525 l 1022 1525 m 519 1353 l 819 1353 l 1031 1119 l 799 1119 l 604 1264 l 735 1264 l 542 1119 l 310 1119 l 519 1353 z "},"Ổ":{"ha":1340,"x_min":51,"x_max":1289,"o":"m 669 -22 q 345 46 485 -22 q 128 236 206 114 q 51 521 51 358 q 128 806 51 683 q 345 996 206 928 q 669 1064 485 1064 q 994 996 856 1064 q 1211 806 1133 928 q 1289 521 1289 683 q 1211 236 1289 358 q 994 46 1133 114 q 669 -22 856 -22 m 669 235 q 844 269 771 235 q 958 368 918 304 q 997 521 997 432 q 958 674 997 610 q 844 772 918 738 q 669 807 771 807 q 496 772 569 807 q 382 674 422 738 q 342 521 342 610 q 382 368 342 432 q 496 269 422 304 q 669 235 569 235 m 965 1274 l 915 1343 q 974 1374 956 1358 q 993 1406 993 1389 q 915 1446 993 1446 q 874 1444 896 1446 q 829 1436 851 1442 l 829 1581 q 898 1594 856 1589 q 989 1600 940 1600 q 1160 1564 1099 1600 q 1221 1461 1221 1528 q 1157 1349 1221 1397 q 965 1274 1093 1301 m 519 1353 l 819 1353 l 1031 1119 l 799 1119 l 604 1264 l 735 1264 l 542 1119 l 310 1119 l 519 1353 z "},"Ỗ":{"ha":1340,"x_min":51,"x_max":1289,"o":"m 669 -22 q 345 46 485 -22 q 128 236 206 114 q 51 521 51 358 q 128 806 51 683 q 345 996 206 928 q 669 1064 485 1064 q 994 996 856 1064 q 1211 806 1133 928 q 1289 521 1289 683 q 1211 236 1289 358 q 994 46 1133 114 q 669 -22 856 -22 m 669 235 q 844 269 771 235 q 958 368 918 304 q 997 521 997 432 q 958 674 997 610 q 844 772 918 738 q 669 807 771 807 q 496 772 569 807 q 382 674 422 738 q 342 521 342 610 q 382 368 342 432 q 496 269 422 304 q 669 235 569 235 m 340 1406 q 397 1574 347 1510 q 535 1639 446 1639 q 609 1628 576 1639 q 667 1605 642 1618 q 715 1581 693 1592 q 757 1569 736 1569 q 799 1587 783 1569 q 819 1638 814 1604 l 990 1638 q 935 1467 985 1529 q 796 1404 886 1404 q 722 1415 754 1404 q 664 1439 689 1425 q 617 1463 639 1453 q 575 1472 594 1472 q 533 1455 549 1472 q 513 1406 518 1438 l 340 1406 m 521 1353 l 819 1353 l 1031 1119 l 799 1119 l 604 1264 l 736 1264 l 542 1119 l 310 1119 l 521 1353 z "},"Ȍ":{"ha":1340,"x_min":51,"x_max":1289,"o":"m 669 -22 q 345 46 485 -22 q 128 236 206 114 q 51 521 51 358 q 128 806 51 683 q 345 996 206 928 q 669 1064 485 1064 q 994 996 856 1064 q 1211 806 1133 928 q 1289 521 1289 683 q 1211 236 1289 358 q 994 46 1133 114 q 669 -22 856 -22 m 669 235 q 844 269 771 235 q 958 368 918 304 q 997 521 997 432 q 958 674 997 610 q 844 772 918 738 q 669 807 771 807 q 496 772 569 807 q 382 674 422 738 q 342 521 342 610 q 382 368 342 432 q 496 269 422 304 q 669 235 569 235 m 804 1353 l 975 1119 l 728 1119 l 532 1353 l 804 1353 m 439 1353 l 610 1119 l 363 1119 l 167 1353 l 439 1353 z "},"Ö":{"ha":1340,"x_min":51,"x_max":1289,"o":"m 669 -22 q 345 46 485 -22 q 128 236 206 114 q 51 521 51 358 q 128 806 51 683 q 345 996 206 928 q 669 1064 485 1064 q 994 996 856 1064 q 1211 806 1133 928 q 1289 521 1289 683 q 1211 236 1289 358 q 994 46 1133 114 q 669 -22 856 -22 m 669 235 q 844 269 771 235 q 958 368 918 304 q 997 521 997 432 q 958 674 997 610 q 844 772 918 738 q 669 807 771 807 q 496 772 569 807 q 382 674 422 738 q 342 521 342 610 q 382 368 342 432 q 496 269 422 304 q 669 235 569 235 m 454 1118 q 342 1153 385 1118 q 300 1251 300 1189 q 342 1344 300 1310 q 454 1379 385 1379 q 566 1344 524 1379 q 608 1251 608 1310 q 566 1153 608 1189 q 454 1118 524 1118 m 885 1118 q 773 1153 815 1118 q 731 1251 731 1189 q 773 1344 731 1310 q 885 1379 815 1379 q 997 1344 954 1379 q 1039 1251 1039 1310 q 997 1153 1039 1189 q 885 1118 954 1118 z "},"Ȫ":{"ha":1340,"x_min":51,"x_max":1289,"o":"m 669 -22 q 345 46 485 -22 q 128 236 206 114 q 51 521 51 358 q 128 806 51 683 q 345 996 206 928 q 669 1064 485 1064 q 994 996 856 1064 q 1211 806 1133 928 q 1289 521 1289 683 q 1211 236 1289 358 q 994 46 1133 114 q 669 -22 856 -22 m 669 235 q 844 269 771 235 q 958 368 918 304 q 997 521 997 432 q 958 674 997 610 q 844 772 918 738 q 669 807 771 807 q 496 772 569 807 q 382 674 422 738 q 342 521 342 610 q 382 368 342 432 q 496 269 422 304 q 669 235 569 235 m 456 1118 q 344 1153 386 1118 q 301 1251 301 1189 q 344 1344 301 1310 q 456 1379 386 1379 q 567 1344 525 1379 q 610 1251 610 1310 q 567 1153 610 1189 q 456 1118 525 1118 m 886 1118 q 774 1153 817 1118 q 732 1251 732 1189 q 774 1344 732 1310 q 886 1379 817 1379 q 998 1344 956 1379 q 1040 1251 1040 1310 q 998 1153 1040 1189 q 886 1118 956 1118 m 333 1444 l 333 1615 l 1010 1615 l 1010 1444 l 333 1444 z "},"Ȯ":{"ha":1340,"x_min":51,"x_max":1289,"o":"m 669 -22 q 345 46 485 -22 q 128 236 206 114 q 51 521 51 358 q 128 806 51 683 q 345 996 206 928 q 669 1064 485 1064 q 994 996 856 1064 q 1211 806 1133 928 q 1289 521 1289 683 q 1211 236 1289 358 q 994 46 1133 114 q 669 -22 856 -22 m 669 235 q 844 269 771 235 q 958 368 918 304 q 997 521 997 432 q 958 674 997 610 q 844 772 918 738 q 669 807 771 807 q 496 772 569 807 q 382 674 422 738 q 342 521 342 610 q 382 368 342 432 q 496 269 422 304 q 669 235 569 235 m 669 1118 q 550 1156 596 1118 q 504 1256 504 1193 q 550 1357 504 1319 q 669 1394 596 1394 q 791 1357 746 1394 q 836 1256 836 1319 q 791 1156 836 1193 q 669 1118 746 1118 z "},"Ȱ":{"ha":1340,"x_min":51,"x_max":1289,"o":"m 669 -22 q 345 46 485 -22 q 128 236 206 114 q 51 521 51 358 q 128 806 51 683 q 345 996 206 928 q 669 1064 485 1064 q 994 996 856 1064 q 1211 806 1133 928 q 1289 521 1289 683 q 1211 236 1289 358 q 994 46 1133 114 q 669 -22 856 -22 m 669 235 q 844 269 771 235 q 958 368 918 304 q 997 521 997 432 q 958 674 997 610 q 844 772 918 738 q 669 807 771 807 q 496 772 569 807 q 382 674 422 738 q 342 521 342 610 q 382 368 342 432 q 496 269 422 304 q 669 235 569 235 m 669 1118 q 550 1156 596 1118 q 504 1256 504 1193 q 550 1357 504 1319 q 669 1394 596 1394 q 791 1357 746 1394 q 836 1256 836 1319 q 791 1156 836 1193 q 669 1118 746 1118 m 332 1444 l 332 1615 l 1008 1615 l 1008 1444 l 332 1444 z "},"Ọ":{"ha":1340,"x_min":51,"x_max":1289,"o":"m 669 -22 q 345 46 485 -22 q 128 236 206 114 q 51 521 51 358 q 128 806 51 683 q 345 996 206 928 q 669 1064 485 1064 q 994 996 856 1064 q 1211 806 1133 928 q 1289 521 1289 683 q 1211 236 1289 358 q 994 46 1133 114 q 669 -22 856 -22 m 669 235 q 844 269 771 235 q 958 368 918 304 q 997 521 997 432 q 958 674 997 610 q 844 772 918 738 q 669 807 771 807 q 496 772 569 807 q 382 674 422 738 q 342 521 342 610 q 382 368 342 432 q 496 269 422 304 q 669 235 569 235 m 669 -342 q 550 -305 596 -342 q 504 -204 504 -268 q 550 -104 504 -142 q 669 -67 596 -67 q 791 -104 746 -67 q 836 -204 836 -142 q 791 -305 836 -268 q 669 -342 746 -342 z "},"Ò":{"ha":1340,"x_min":51,"x_max":1289,"o":"m 669 -22 q 345 46 485 -22 q 128 236 206 114 q 51 521 51 358 q 128 806 51 683 q 345 996 206 928 q 669 1064 485 1064 q 994 996 856 1064 q 1211 806 1133 928 q 1289 521 1289 683 q 1211 236 1289 358 q 994 46 1133 114 q 669 -22 856 -22 m 669 235 q 844 269 771 235 q 958 368 918 304 q 997 521 997 432 q 958 674 997 610 q 844 772 918 738 q 669 807 771 807 q 496 772 569 807 q 382 674 422 738 q 342 521 342 610 q 382 368 342 432 q 496 269 422 304 q 669 235 569 235 m 622 1353 l 826 1119 l 540 1119 l 300 1353 l 622 1353 z "},"Ỏ":{"ha":1340,"x_min":51,"x_max":1289,"o":"m 669 -22 q 345 46 485 -22 q 128 236 206 114 q 51 521 51 358 q 128 806 51 683 q 345 996 206 928 q 669 1064 485 1064 q 994 996 856 1064 q 1211 806 1133 928 q 1289 521 1289 683 q 1211 236 1289 358 q 994 46 1133 114 q 669 -22 856 -22 m 669 235 q 844 269 771 235 q 958 368 918 304 q 997 521 997 432 q 958 674 997 610 q 844 772 918 738 q 669 807 771 807 q 496 772 569 807 q 382 674 422 738 q 342 521 342 610 q 382 368 342 432 q 496 269 422 304 q 669 235 569 235 m 607 1100 l 556 1188 q 649 1214 621 1199 q 676 1246 676 1229 q 656 1269 676 1261 q 593 1278 635 1278 q 534 1274 561 1278 q 476 1264 507 1271 l 476 1407 q 556 1424 504 1415 q 661 1432 607 1432 q 849 1397 783 1432 q 914 1286 914 1363 q 844 1171 914 1217 q 607 1100 774 1125 z "},"Ơ":{"ha":1349,"x_min":51,"x_max":1325,"o":"m 669 -22 q 345 46 485 -22 q 128 236 206 114 q 51 521 51 358 q 128 806 51 683 q 345 996 206 928 q 669 1064 485 1064 q 773 1058 729 1064 q 853 1046 817 1053 q 913 1034 883 1039 q 972 1029 943 1029 q 1072 1056 1043 1029 q 1100 1118 1100 1083 q 1090 1168 1100 1142 q 1061 1222 1081 1194 l 1279 1222 q 1313 1152 1301 1189 q 1325 1079 1325 1115 q 1277 958 1325 1008 q 1139 889 1229 908 q 1249 726 1210 819 q 1288 521 1288 633 q 1210 236 1288 358 q 994 46 1133 114 q 669 -22 854 -22 m 669 235 q 844 269 771 235 q 958 368 918 304 q 997 521 997 432 q 958 674 997 610 q 844 772 918 738 q 669 807 771 807 q 494 772 568 807 q 381 674 421 738 q 342 521 342 610 q 381 368 342 432 q 494 269 421 304 q 669 235 568 235 z "},"Ớ":{"ha":1349,"x_min":51,"x_max":1325,"o":"m 669 -22 q 345 46 485 -22 q 128 236 206 114 q 51 521 51 358 q 128 806 51 683 q 345 996 206 928 q 669 1064 485 1064 q 773 1058 729 1064 q 853 1046 817 1053 q 913 1034 883 1039 q 972 1029 943 1029 q 1072 1056 1043 1029 q 1100 1118 1100 1083 q 1090 1168 1100 1142 q 1061 1222 1081 1194 l 1279 1222 q 1313 1152 1301 1189 q 1325 1079 1325 1115 q 1277 958 1325 1008 q 1139 889 1229 908 q 1249 726 1210 819 q 1288 521 1288 633 q 1210 236 1288 358 q 994 46 1133 114 q 669 -22 854 -22 m 669 235 q 844 269 771 235 q 958 368 918 304 q 997 521 997 432 q 958 674 997 610 q 844 772 918 738 q 669 807 771 807 q 494 772 568 807 q 381 674 421 738 q 342 521 342 610 q 381 368 342 432 q 494 269 421 304 q 669 235 568 235 m 693 1353 l 1015 1353 l 775 1119 l 489 1119 l 693 1353 z "},"Ợ":{"ha":1349,"x_min":51,"x_max":1325,"o":"m 669 -22 q 345 46 485 -22 q 128 236 206 114 q 51 521 51 358 q 128 806 51 683 q 345 996 206 928 q 669 1064 485 1064 q 773 1058 729 1064 q 853 1046 817 1053 q 913 1034 883 1039 q 972 1029 943 1029 q 1072 1056 1043 1029 q 1100 1118 1100 1083 q 1090 1168 1100 1142 q 1061 1222 1081 1194 l 1279 1222 q 1313 1152 1301 1189 q 1325 1079 1325 1115 q 1277 958 1325 1008 q 1139 889 1229 908 q 1249 726 1210 819 q 1288 521 1288 633 q 1210 236 1288 358 q 994 46 1133 114 q 669 -22 854 -22 m 669 235 q 844 269 771 235 q 958 368 918 304 q 997 521 997 432 q 958 674 997 610 q 844 772 918 738 q 669 807 771 807 q 494 772 568 807 q 381 674 421 738 q 342 521 342 610 q 381 368 342 432 q 494 269 421 304 q 669 235 568 235 m 661 -342 q 542 -305 588 -342 q 496 -204 496 -268 q 542 -104 496 -142 q 661 -67 588 -67 q 783 -104 738 -67 q 828 -204 828 -142 q 783 -305 828 -268 q 661 -342 738 -342 z "},"Ờ":{"ha":1349,"x_min":51,"x_max":1325,"o":"m 669 -22 q 345 46 485 -22 q 128 236 206 114 q 51 521 51 358 q 128 806 51 683 q 345 996 206 928 q 669 1064 485 1064 q 773 1058 729 1064 q 853 1046 817 1053 q 913 1034 883 1039 q 972 1029 943 1029 q 1072 1056 1043 1029 q 1100 1118 1100 1083 q 1090 1168 1100 1142 q 1061 1222 1081 1194 l 1279 1222 q 1313 1152 1301 1189 q 1325 1079 1325 1115 q 1277 958 1325 1008 q 1139 889 1229 908 q 1249 726 1210 819 q 1288 521 1288 633 q 1210 236 1288 358 q 994 46 1133 114 q 669 -22 854 -22 m 669 235 q 844 269 771 235 q 958 368 918 304 q 997 521 997 432 q 958 674 997 610 q 844 772 918 738 q 669 807 771 807 q 494 772 568 807 q 381 674 421 738 q 342 521 342 610 q 381 368 342 432 q 494 269 421 304 q 669 235 568 235 m 613 1353 l 818 1119 l 532 1119 l 290 1353 l 613 1353 z "},"Ở":{"ha":1349,"x_min":51,"x_max":1325,"o":"m 669 -22 q 345 46 485 -22 q 128 236 206 114 q 51 521 51 358 q 128 806 51 683 q 345 996 206 928 q 669 1064 485 1064 q 773 1058 729 1064 q 853 1046 817 1053 q 913 1034 883 1039 q 972 1029 943 1029 q 1072 1056 1043 1029 q 1100 1118 1100 1083 q 1090 1168 1100 1142 q 1061 1222 1081 1194 l 1279 1222 q 1313 1152 1301 1189 q 1325 1079 1325 1115 q 1277 958 1325 1008 q 1139 889 1229 908 q 1249 726 1210 819 q 1288 521 1288 633 q 1210 236 1288 358 q 994 46 1133 114 q 669 -22 854 -22 m 669 235 q 844 269 771 235 q 958 368 918 304 q 997 521 997 432 q 958 674 997 610 q 844 772 918 738 q 669 807 771 807 q 494 772 568 807 q 381 674 421 738 q 342 521 342 610 q 381 368 342 432 q 494 269 421 304 q 669 235 568 235 m 599 1100 l 547 1188 q 640 1214 613 1199 q 668 1246 668 1229 q 647 1269 668 1261 q 585 1278 626 1278 q 526 1274 553 1278 q 468 1264 499 1271 l 468 1407 q 547 1424 496 1415 q 653 1432 599 1432 q 840 1397 775 1432 q 906 1286 906 1363 q 835 1171 906 1217 q 599 1100 765 1125 z "},"Ỡ":{"ha":1349,"x_min":51,"x_max":1325,"o":"m 669 -22 q 345 46 485 -22 q 128 236 206 114 q 51 521 51 358 q 128 806 51 683 q 345 996 206 928 q 669 1064 485 1064 q 773 1058 729 1064 q 853 1046 817 1053 q 913 1034 883 1039 q 972 1029 943 1029 q 1072 1056 1043 1029 q 1100 1118 1100 1083 q 1090 1168 1100 1142 q 1061 1222 1081 1194 l 1279 1222 q 1313 1152 1301 1189 q 1325 1079 1325 1115 q 1277 958 1325 1008 q 1139 889 1229 908 q 1249 726 1210 819 q 1288 521 1288 633 q 1210 236 1288 358 q 994 46 1133 114 q 669 -22 854 -22 m 669 235 q 844 269 771 235 q 958 368 918 304 q 997 521 997 432 q 958 674 997 610 q 844 772 918 738 q 669 807 771 807 q 494 772 568 807 q 381 674 421 738 q 342 521 342 610 q 381 368 342 432 q 494 269 421 304 q 669 235 568 235 m 282 1126 q 354 1300 296 1236 q 526 1364 413 1364 q 600 1354 564 1364 q 668 1331 636 1344 q 728 1308 700 1318 q 782 1299 757 1299 q 830 1313 811 1299 q 854 1357 849 1328 l 1038 1357 q 965 1183 1024 1247 q 794 1118 907 1118 q 720 1128 756 1118 q 652 1152 685 1139 q 591 1175 619 1165 q 538 1185 563 1185 q 490 1170 510 1185 q 465 1126 471 1156 l 282 1126 z "},"Ő":{"ha":1340,"x_min":51,"x_max":1289,"o":"m 669 -22 q 345 46 485 -22 q 128 236 206 114 q 51 521 51 358 q 128 806 51 683 q 345 996 206 928 q 669 1064 485 1064 q 994 996 856 1064 q 1211 806 1133 928 q 1289 521 1289 683 q 1211 236 1289 358 q 994 46 1133 114 q 669 -22 856 -22 m 669 235 q 844 269 771 235 q 958 368 918 304 q 997 521 997 432 q 958 674 997 610 q 844 772 918 738 q 669 807 771 807 q 496 772 569 807 q 382 674 422 738 q 342 521 342 610 q 382 368 342 432 q 496 269 422 304 q 669 235 569 235 m 544 1353 l 815 1353 l 621 1119 l 372 1119 l 544 1353 m 908 1353 l 1182 1353 l 986 1119 l 738 1119 l 908 1353 z "},"Ȏ":{"ha":1340,"x_min":51,"x_max":1289,"o":"m 669 -22 q 345 46 485 -22 q 128 236 206 114 q 51 521 51 358 q 128 806 51 683 q 345 996 206 928 q 669 1064 485 1064 q 994 996 856 1064 q 1211 806 1133 928 q 1289 521 1289 683 q 1211 236 1289 358 q 994 46 1133 114 q 669 -22 856 -22 m 669 235 q 844 269 771 235 q 958 368 918 304 q 997 521 997 432 q 958 674 997 610 q 844 772 918 738 q 669 807 771 807 q 496 772 569 807 q 382 674 422 738 q 342 521 342 610 q 382 368 342 432 q 496 269 422 304 q 669 235 569 235 m 1022 1113 l 807 1113 q 753 1170 786 1150 q 669 1190 719 1190 q 587 1170 621 1190 q 533 1113 553 1150 l 317 1113 q 445 1301 351 1239 q 669 1364 539 1364 q 896 1301 803 1364 q 1022 1113 989 1239 z "},"Ō":{"ha":1340,"x_min":51,"x_max":1289,"o":"m 669 -22 q 345 46 485 -22 q 128 236 206 114 q 51 521 51 358 q 128 806 51 683 q 345 996 206 928 q 669 1064 485 1064 q 994 996 856 1064 q 1211 806 1133 928 q 1289 521 1289 683 q 1211 236 1289 358 q 994 46 1133 114 q 669 -22 856 -22 m 669 235 q 844 269 771 235 q 958 368 918 304 q 997 521 997 432 q 958 674 997 610 q 844 772 918 738 q 669 807 771 807 q 496 772 569 807 q 382 674 422 738 q 342 521 342 610 q 382 368 342 432 q 496 269 422 304 q 669 235 569 235 m 332 1147 l 332 1318 l 1008 1318 l 1008 1147 l 332 1147 z "},"Ṓ":{"ha":1340,"x_min":51,"x_max":1289,"o":"m 669 -22 q 345 46 485 -22 q 128 236 206 114 q 51 521 51 358 q 128 806 51 683 q 345 996 206 928 q 669 1064 485 1064 q 994 996 856 1064 q 1211 806 1133 928 q 1289 521 1289 683 q 1211 236 1289 358 q 994 46 1133 114 q 669 -22 856 -22 m 669 235 q 844 269 771 235 q 958 368 918 304 q 997 521 997 432 q 958 674 997 610 q 844 772 918 738 q 669 807 771 807 q 496 772 569 807 q 382 674 422 738 q 342 521 342 610 q 382 368 342 432 q 496 269 422 304 q 669 235 569 235 m 332 1147 l 332 1318 l 1008 1318 l 1008 1147 l 332 1147 m 701 1633 l 1024 1633 l 783 1400 l 497 1400 l 701 1633 z "},"Ṑ":{"ha":1340,"x_min":51,"x_max":1289,"o":"m 669 -22 q 345 46 485 -22 q 128 236 206 114 q 51 521 51 358 q 128 806 51 683 q 345 996 206 928 q 669 1064 485 1064 q 994 996 856 1064 q 1211 806 1133 928 q 1289 521 1289 683 q 1211 236 1289 358 q 994 46 1133 114 q 669 -22 856 -22 m 669 235 q 844 269 771 235 q 958 368 918 304 q 997 521 997 432 q 958 674 997 610 q 844 772 918 738 q 669 807 771 807 q 496 772 569 807 q 382 674 422 738 q 342 521 342 610 q 382 368 342 432 q 496 269 422 304 q 669 235 569 235 m 332 1147 l 332 1318 l 1008 1318 l 1008 1147 l 332 1147 m 622 1635 l 826 1400 l 540 1400 l 300 1635 l 622 1635 z "},"Ꞷ":{"ha":1613,"x_min":56,"x_max":1557,"o":"m 56 507 q 119 786 56 665 q 301 977 182 907 q 588 1051 419 1047 l 588 800 q 458 760 513 793 q 376 665 404 726 q 347 507 347 603 q 396 300 347 372 q 528 228 444 228 q 617 256 582 228 q 669 343 653 283 q 685 499 685 403 l 685 672 l 928 672 l 928 499 q 944 343 928 403 q 996 256 961 283 q 1086 228 1031 228 q 1217 300 1168 228 q 1267 507 1267 372 q 1238 665 1267 603 q 1156 760 1210 726 q 1025 800 1103 793 l 1025 1051 q 1313 977 1194 1047 q 1494 786 1432 907 q 1557 507 1557 665 q 1504 230 1557 349 q 1357 44 1451 111 q 1138 -22 1263 -22 q 865 97 956 -22 q 786 426 774 215 l 826 426 q 749 97 839 215 q 476 -22 658 -22 q 256 44 351 -22 q 108 230 161 111 q 56 507 56 349 z "},"Ǫ":{"ha":1340,"x_min":51,"x_max":1289,"o":"m 867 -275 q 806 -287 849 -281 q 715 -294 763 -294 q 557 -258 617 -294 q 497 -161 497 -221 q 554 -60 497 -103 q 722 11 611 -17 l 706 -22 q 438 9 558 -28 q 232 118 318 46 q 99 293 146 190 q 51 521 51 396 q 128 806 51 683 q 345 996 206 928 q 669 1064 485 1064 q 994 996 856 1064 q 1211 806 1133 928 q 1289 521 1289 683 q 1237 283 1289 389 q 1090 105 1185 178 q 867 0 996 32 q 742 -45 783 -21 q 700 -96 700 -69 q 785 -135 700 -135 q 828 -132 808 -135 q 867 -125 849 -129 l 867 -275 m 342 521 q 382 368 342 432 q 496 269 422 304 q 669 235 569 235 q 844 269 771 235 q 958 368 918 304 q 997 521 997 432 q 958 674 997 610 q 844 772 918 738 q 669 807 771 807 q 496 772 569 807 q 382 674 422 738 q 342 521 342 610 z "},"Ǭ":{"ha":1340,"x_min":51,"x_max":1289,"o":"m 867 -275 q 806 -287 849 -281 q 715 -294 763 -294 q 557 -258 617 -294 q 497 -161 497 -221 q 554 -60 497 -103 q 722 11 611 -17 l 706 -22 q 438 9 558 -28 q 232 118 318 46 q 99 293 146 190 q 51 521 51 396 q 128 806 51 683 q 345 996 206 928 q 669 1064 485 1064 q 994 996 856 1064 q 1211 806 1133 928 q 1289 521 1289 683 q 1237 283 1289 389 q 1090 105 1185 178 q 867 0 996 32 q 742 -45 783 -21 q 700 -96 700 -69 q 785 -135 700 -135 q 828 -132 808 -135 q 867 -125 849 -129 l 867 -275 m 342 521 q 382 368 342 432 q 496 269 422 304 q 669 235 569 235 q 844 269 771 235 q 958 368 918 304 q 997 521 997 432 q 958 674 997 610 q 844 772 918 738 q 669 807 771 807 q 496 772 569 807 q 382 674 422 738 q 342 521 342 610 m 332 1147 l 332 1318 l 1008 1318 l 1008 1147 l 332 1147 z "},"Ɔ":{"ha":1297,"x_min":43,"x_max":1246,"o":"m 43 436 l 333 436 q 386 321 346 368 q 491 250 426 274 q 642 226 556 226 q 809 262 739 226 q 917 363 879 297 q 954 521 954 429 q 917 678 954 613 q 809 780 879 744 q 642 815 739 815 q 491 790 556 815 q 386 719 426 765 q 333 606 346 672 l 43 606 q 138 847 60 743 q 346 1007 217 950 q 640 1064 475 1064 q 958 996 822 1064 q 1170 806 1094 928 q 1246 521 1246 683 q 1170 236 1246 358 q 958 46 1094 114 q 640 -22 822 -22 q 346 35 475 -22 q 138 195 217 92 q 43 436 60 299 z "},"Ø":{"ha":1339,"x_min":51,"x_max":1289,"o":"m 1003 1067 l 1261 1067 l 338 -25 l 79 -25 l 1003 1067 m 669 -22 q 345 46 485 -22 q 128 236 206 114 q 51 521 51 358 q 128 806 51 683 q 345 996 206 928 q 669 1064 485 1064 q 920 1025 807 1064 q 1116 915 1033 986 q 1244 743 1199 843 q 1289 521 1289 643 q 1211 236 1289 358 q 994 46 1133 114 q 669 -22 854 -22 m 669 219 q 849 256 774 219 q 965 360 924 292 q 1006 521 1006 428 q 965 682 1006 614 q 849 786 924 750 q 669 822 774 822 q 491 786 567 822 q 374 682 415 750 q 333 521 333 614 q 374 360 333 428 q 491 256 415 292 q 669 219 567 219 z "},"Ǿ":{"ha":1339,"x_min":51,"x_max":1289,"o":"m 1003 1067 l 1261 1067 l 338 -25 l 79 -25 l 1003 1067 m 669 -22 q 345 46 485 -22 q 128 236 206 114 q 51 521 51 358 q 128 806 51 683 q 345 996 206 928 q 669 1064 485 1064 q 920 1025 807 1064 q 1116 915 1033 986 q 1244 743 1199 843 q 1289 521 1289 643 q 1211 236 1289 358 q 994 46 1133 114 q 669 -22 854 -22 m 669 219 q 849 256 774 219 q 965 360 924 292 q 1006 521 1006 428 q 965 682 1006 614 q 849 786 924 750 q 669 822 774 822 q 491 786 567 822 q 374 682 415 750 q 333 521 333 614 q 374 360 333 428 q 491 256 415 292 q 669 219 567 219 m 701 1353 l 1024 1353 l 783 1119 l 497 1119 l 701 1353 z "},"Õ":{"ha":1340,"x_min":51,"x_max":1289,"o":"m 669 -22 q 345 46 485 -22 q 128 236 206 114 q 51 521 51 358 q 128 806 51 683 q 345 996 206 928 q 669 1064 485 1064 q 994 996 856 1064 q 1211 806 1133 928 q 1289 521 1289 683 q 1211 236 1289 358 q 994 46 1133 114 q 669 -22 856 -22 m 669 235 q 844 269 771 235 q 958 368 918 304 q 997 521 997 432 q 958 674 997 610 q 844 772 918 738 q 669 807 771 807 q 496 772 569 807 q 382 674 422 738 q 342 521 342 610 q 382 368 342 432 q 496 269 422 304 q 669 235 569 235 m 292 1126 q 364 1300 306 1236 q 536 1364 422 1364 q 610 1354 574 1364 q 678 1331 646 1344 q 738 1308 710 1318 q 792 1299 767 1299 q 840 1313 821 1299 q 864 1357 858 1328 l 1047 1357 q 975 1183 1033 1247 q 804 1118 917 1118 q 730 1128 765 1118 q 662 1152 694 1139 q 601 1175 629 1165 q 547 1185 572 1185 q 500 1170 519 1185 q 475 1126 481 1156 l 292 1126 z "},"Ṍ":{"ha":1340,"x_min":51,"x_max":1289,"o":"m 669 -22 q 345 46 485 -22 q 128 236 206 114 q 51 521 51 358 q 128 806 51 683 q 345 996 206 928 q 669 1064 485 1064 q 994 996 856 1064 q 1211 806 1133 928 q 1289 521 1289 683 q 1211 236 1289 358 q 994 46 1133 114 q 669 -22 856 -22 m 669 235 q 844 269 771 235 q 958 368 918 304 q 997 521 997 432 q 958 674 997 610 q 844 772 918 738 q 669 807 771 807 q 496 772 569 807 q 382 674 422 738 q 342 521 342 610 q 382 368 342 432 q 496 269 422 304 q 669 235 569 235 m 292 1126 q 364 1300 306 1236 q 536 1364 422 1364 q 610 1354 574 1364 q 678 1331 646 1344 q 738 1308 710 1318 q 792 1299 767 1299 q 840 1313 821 1299 q 864 1357 858 1328 l 1047 1357 q 975 1183 1033 1247 q 804 1118 917 1118 q 730 1128 765 1118 q 662 1152 694 1139 q 601 1175 629 1165 q 547 1185 572 1185 q 500 1170 519 1185 q 475 1126 481 1156 l 292 1126 m 701 1640 l 1024 1640 l 783 1407 l 497 1407 l 701 1640 z "},"Ṏ":{"ha":1340,"x_min":51,"x_max":1289,"o":"m 669 -22 q 345 46 485 -22 q 128 236 206 114 q 51 521 51 358 q 128 806 51 683 q 345 996 206 928 q 669 1064 485 1064 q 994 996 856 1064 q 1211 806 1133 928 q 1289 521 1289 683 q 1211 236 1289 358 q 994 46 1133 114 q 669 -22 856 -22 m 669 235 q 844 269 771 235 q 958 368 918 304 q 997 521 997 432 q 958 674 997 610 q 844 772 918 738 q 669 807 771 807 q 496 772 569 807 q 382 674 422 738 q 342 521 342 610 q 382 368 342 432 q 496 269 422 304 q 669 235 569 235 m 292 1126 q 364 1300 306 1236 q 536 1364 422 1364 q 610 1354 574 1364 q 678 1331 646 1344 q 738 1308 710 1318 q 792 1299 767 1299 q 840 1313 821 1299 q 864 1357 858 1328 l 1047 1357 q 975 1183 1033 1247 q 804 1118 917 1118 q 730 1128 765 1118 q 662 1152 694 1139 q 601 1175 629 1165 q 547 1185 572 1185 q 500 1170 519 1185 q 475 1126 481 1156 l 292 1126 m 454 1406 q 342 1441 385 1406 q 300 1539 300 1476 q 342 1632 300 1597 q 454 1667 385 1667 q 566 1632 524 1667 q 608 1539 608 1597 q 566 1441 608 1476 q 454 1406 524 1406 m 885 1406 q 773 1441 815 1406 q 731 1539 731 1476 q 773 1632 731 1597 q 885 1667 815 1667 q 997 1632 954 1667 q 1039 1539 1039 1597 q 997 1441 1039 1476 q 885 1406 954 1406 z "},"Ȭ":{"ha":1340,"x_min":51,"x_max":1289,"o":"m 669 -22 q 345 46 485 -22 q 128 236 206 114 q 51 521 51 358 q 128 806 51 683 q 345 996 206 928 q 669 1064 485 1064 q 994 996 856 1064 q 1211 806 1133 928 q 1289 521 1289 683 q 1211 236 1289 358 q 994 46 1133 114 q 669 -22 856 -22 m 669 235 q 844 269 771 235 q 958 368 918 304 q 997 521 997 432 q 958 674 997 610 q 844 772 918 738 q 669 807 771 807 q 496 772 569 807 q 382 674 422 738 q 342 521 342 610 q 382 368 342 432 q 496 269 422 304 q 669 235 569 235 m 292 1126 q 364 1300 306 1236 q 536 1364 422 1364 q 610 1354 574 1364 q 678 1331 646 1344 q 738 1308 710 1318 q 792 1299 767 1299 q 840 1313 821 1299 q 864 1357 858 1328 l 1047 1357 q 975 1183 1033 1247 q 804 1118 917 1118 q 730 1128 765 1118 q 662 1152 694 1139 q 601 1175 629 1165 q 547 1185 572 1185 q 500 1170 519 1185 q 475 1126 481 1156 l 292 1126 m 332 1435 l 332 1606 l 1008 1606 l 1008 1435 l 332 1435 z "},"Œ":{"ha":1853,"x_min":51,"x_max":1785,"o":"m 669 0 q 345 65 485 0 q 128 247 206 129 q 51 521 51 364 q 128 795 51 678 q 342 977 204 913 q 667 1042 481 1042 l 1778 1042 l 1778 808 l 1161 808 l 1161 626 l 1738 626 l 1738 417 l 1161 417 l 1161 233 l 1785 233 l 1785 0 l 669 0 m 649 256 l 882 256 l 882 786 l 649 786 q 486 753 556 786 q 379 662 417 721 q 342 521 342 603 q 379 381 342 440 q 486 288 417 321 q 649 256 556 256 z "},"P":{"ha":1131,"x_min":97,"x_max":1103,"o":"m 682 1042 q 908 997 813 1042 q 1053 872 1003 953 q 1103 682 1103 790 q 1053 494 1103 575 q 908 368 1003 413 q 682 324 813 324 l 231 324 l 231 554 l 664 554 q 772 588 733 554 q 811 682 811 622 q 772 777 811 743 q 664 811 733 811 l 256 811 l 385 944 l 385 0 l 97 0 l 97 1042 l 682 1042 z "},"Ṕ":{"ha":1131,"x_min":97,"x_max":1103,"o":"m 682 1042 q 908 997 813 1042 q 1053 872 1003 953 q 1103 682 1103 790 q 1053 494 1103 575 q 908 368 1003 413 q 682 324 813 324 l 231 324 l 231 554 l 664 554 q 772 588 733 554 q 811 682 811 622 q 772 777 811 743 q 664 811 733 811 l 256 811 l 385 944 l 385 0 l 97 0 l 97 1042 l 682 1042 m 606 1353 l 928 1353 l 688 1119 l 401 1119 l 606 1353 z "},"Ṗ":{"ha":1131,"x_min":97,"x_max":1103,"o":"m 682 1042 q 908 997 813 1042 q 1053 872 1003 953 q 1103 682 1103 790 q 1053 494 1103 575 q 908 368 1003 413 q 682 324 813 324 l 231 324 l 231 554 l 664 554 q 772 588 733 554 q 811 682 811 622 q 772 777 811 743 q 664 811 733 811 l 256 811 l 385 944 l 385 0 l 97 0 l 97 1042 l 682 1042 m 574 1118 q 454 1156 500 1118 q 408 1256 408 1193 q 454 1357 408 1319 q 574 1394 500 1394 q 695 1357 650 1394 q 740 1256 740 1319 q 695 1156 740 1193 q 574 1118 650 1118 z "},"Ƥ":{"ha":1457,"x_min":25,"x_max":1429,"o":"m 318 1042 l 1007 1042 q 1233 997 1139 1042 q 1378 872 1328 953 q 1429 682 1429 790 q 1378 494 1429 575 q 1233 368 1328 413 q 1007 324 1139 324 l 556 324 l 556 554 l 990 554 q 1099 588 1060 554 q 1138 682 1138 622 q 1099 777 1138 743 q 990 811 1060 811 l 582 811 l 711 944 l 711 0 l 422 0 l 422 918 l 547 800 l 372 800 q 297 778 324 800 q 271 703 271 757 q 278 635 271 668 q 294 576 285 601 l 81 576 q 43 672 61 619 q 25 790 25 725 q 96 974 25 907 q 318 1042 167 1042 z "},"Þ":{"ha":1153,"x_min":97,"x_max":1103,"o":"m 97 1042 l 385 1042 l 385 0 l 97 0 l 97 1042 m 682 168 l 286 168 l 286 396 l 664 396 q 772 430 733 396 q 811 526 811 464 q 772 624 811 589 q 664 658 733 658 l 288 658 l 288 886 l 682 886 q 908 842 813 886 q 1053 717 1003 797 q 1103 526 1103 636 q 1053 338 1103 418 q 908 213 1003 257 q 682 168 813 168 z "},"Ᵽ":{"ha":1182,"x_min":29,"x_max":1154,"o":"m 29 758 l 668 758 l 668 590 l 29 590 l 29 758 m 732 1042 q 958 996 864 1042 q 1103 867 1053 950 q 1154 674 1154 785 q 1103 481 1154 564 q 958 353 1053 399 q 732 307 864 307 l 281 307 l 281 538 l 715 538 q 824 574 785 538 q 863 674 863 610 q 824 775 863 739 q 715 811 785 811 l 307 811 l 436 944 l 436 0 l 147 0 l 147 1042 l 732 1042 z "},"Q":{"ha":1340,"x_min":51,"x_max":1289,"o":"m 490 424 l 835 424 l 1288 -78 l 936 -78 l 490 424 m 669 -22 q 345 46 485 -22 q 128 236 206 114 q 51 521 51 358 q 128 806 51 683 q 345 996 206 928 q 669 1064 485 1064 q 994 996 856 1064 q 1211 806 1133 928 q 1289 521 1289 683 q 1211 236 1289 358 q 994 46 1133 114 q 669 -22 856 -22 m 669 235 q 844 269 771 235 q 958 368 918 304 q 997 521 997 432 q 958 674 997 610 q 844 772 918 738 q 669 807 771 807 q 496 772 569 807 q 382 674 422 738 q 342 521 342 610 q 382 368 342 432 q 496 269 422 304 q 669 235 569 235 z "},"Ɋ":{"ha":1356,"x_min":54,"x_max":1506,"o":"m 1383 -31 q 1450 -24 1419 -31 q 1506 -10 1481 -18 l 1506 -215 q 1413 -243 1464 -235 q 1313 -251 1361 -251 q 1056 -162 1138 -251 q 975 97 975 -72 l 975 378 l 1019 521 l 975 663 l 975 1042 l 1258 1042 l 1258 117 q 1286 7 1258 44 q 1383 -31 1314 -31 m 1083 521 q 989 235 1060 357 q 810 45 918 113 q 561 -22 701 -22 q 296 46 410 -22 q 118 236 182 114 q 54 521 54 358 q 118 806 54 683 q 296 996 182 928 q 561 1064 410 1064 q 810 998 701 1064 q 990 810 919 932 q 1083 521 1061 689 m 346 521 q 383 372 346 438 q 485 269 419 307 q 636 232 550 232 q 783 269 714 232 q 905 372 853 307 q 983 521 957 438 q 905 670 957 606 q 784 772 853 735 q 636 810 715 810 q 485 772 550 810 q 383 670 419 735 q 346 521 346 606 z "},"R":{"ha":1181,"x_min":97,"x_max":1149,"o":"m 296 586 l 675 586 q 783 618 744 586 q 822 707 822 650 q 783 797 822 765 q 675 828 744 828 l 256 828 l 385 965 l 385 0 l 97 0 l 97 1042 l 715 1042 q 924 999 835 1042 q 1063 883 1013 957 q 1113 707 1113 808 q 1063 533 1113 608 q 924 417 1013 458 q 715 375 835 375 l 296 375 l 296 586 m 451 488 l 775 488 l 1149 0 l 815 0 l 451 488 z "},"Ŕ":{"ha":1181,"x_min":97,"x_max":1149,"o":"m 296 586 l 675 586 q 783 618 744 586 q 822 707 822 650 q 783 797 822 765 q 675 828 744 828 l 256 828 l 385 965 l 385 0 l 97 0 l 97 1042 l 715 1042 q 924 999 835 1042 q 1063 883 1013 957 q 1113 707 1113 808 q 1063 533 1113 608 q 924 417 1013 458 q 715 375 835 375 l 296 375 l 296 586 m 451 488 l 775 488 l 1149 0 l 815 0 l 451 488 m 604 1353 l 926 1353 l 686 1119 l 400 1119 l 604 1353 z "},"Ř":{"ha":1181,"x_min":97,"x_max":1149,"o":"m 296 586 l 675 586 q 783 618 744 586 q 822 707 822 650 q 783 797 822 765 q 675 828 744 828 l 256 828 l 385 965 l 385 0 l 97 0 l 97 1042 l 715 1042 q 924 999 835 1042 q 1063 883 1013 957 q 1113 707 1113 808 q 1063 533 1113 608 q 924 417 1013 458 q 715 375 835 375 l 296 375 l 296 586 m 451 488 l 775 488 l 1149 0 l 815 0 l 451 488 m 722 1118 l 424 1118 l 211 1353 l 444 1353 l 639 1208 l 507 1208 l 701 1353 l 933 1353 l 722 1118 z "},"Ŗ":{"ha":1181,"x_min":97,"x_max":1149,"o":"m 296 586 l 675 586 q 783 618 744 586 q 822 707 822 650 q 783 797 822 765 q 675 828 744 828 l 256 828 l 385 965 l 385 0 l 97 0 l 97 1042 l 715 1042 q 924 999 835 1042 q 1063 883 1013 957 q 1113 707 1113 808 q 1063 533 1113 608 q 924 417 1013 458 q 715 375 835 375 l 296 375 l 296 586 m 451 488 l 775 488 l 1149 0 l 815 0 l 451 488 m 451 -429 l 583 -217 l 594 -296 q 485 -264 526 -296 q 443 -178 443 -232 q 484 -92 443 -124 q 594 -61 525 -61 q 705 -93 664 -61 q 746 -181 746 -125 q 726 -250 746 -218 q 663 -337 707 -282 l 588 -429 l 451 -429 z "},"Ȑ":{"ha":1181,"x_min":69,"x_max":1149,"o":"m 296 586 l 675 586 q 783 618 744 586 q 822 707 822 650 q 783 797 822 765 q 675 828 744 828 l 256 828 l 385 965 l 385 0 l 97 0 l 97 1042 l 715 1042 q 924 999 835 1042 q 1063 883 1013 957 q 1113 707 1113 808 q 1063 533 1113 608 q 924 417 1013 458 q 715 375 835 375 l 296 375 l 296 586 m 451 488 l 775 488 l 1149 0 l 815 0 l 451 488 m 707 1353 l 878 1119 l 631 1119 l 435 1353 l 707 1353 m 342 1353 l 513 1119 l 265 1119 l 69 1353 l 342 1353 z "},"Ṙ":{"ha":1181,"x_min":97,"x_max":1149,"o":"m 296 586 l 675 586 q 783 618 744 586 q 822 707 822 650 q 783 797 822 765 q 675 828 744 828 l 256 828 l 385 965 l 385 0 l 97 0 l 97 1042 l 715 1042 q 924 999 835 1042 q 1063 883 1013 957 q 1113 707 1113 808 q 1063 533 1113 608 q 924 417 1013 458 q 715 375 835 375 l 296 375 l 296 586 m 451 488 l 775 488 l 1149 0 l 815 0 l 451 488 m 572 1118 q 453 1156 499 1118 q 407 1256 407 1193 q 453 1357 407 1319 q 572 1394 499 1394 q 694 1357 649 1394 q 739 1256 739 1319 q 694 1156 739 1193 q 572 1118 649 1118 z "},"Ṛ":{"ha":1181,"x_min":97,"x_max":1149,"o":"m 296 586 l 675 586 q 783 618 744 586 q 822 707 822 650 q 783 797 822 765 q 675 828 744 828 l 256 828 l 385 965 l 385 0 l 97 0 l 97 1042 l 715 1042 q 924 999 835 1042 q 1063 883 1013 957 q 1113 707 1113 808 q 1063 533 1113 608 q 924 417 1013 458 q 715 375 835 375 l 296 375 l 296 586 m 451 488 l 775 488 l 1149 0 l 815 0 l 451 488 m 593 -342 q 474 -305 519 -342 q 428 -204 428 -268 q 474 -104 428 -142 q 593 -67 519 -67 q 715 -104 669 -67 q 760 -204 760 -142 q 715 -305 760 -268 q 593 -342 669 -342 z "},"Ṝ":{"ha":1181,"x_min":97,"x_max":1149,"o":"m 296 586 l 675 586 q 783 618 744 586 q 822 707 822 650 q 783 797 822 765 q 675 828 744 828 l 256 828 l 385 965 l 385 0 l 97 0 l 97 1042 l 715 1042 q 924 999 835 1042 q 1063 883 1013 957 q 1113 707 1113 808 q 1063 533 1113 608 q 924 417 1013 458 q 715 375 835 375 l 296 375 l 296 586 m 451 488 l 775 488 l 1149 0 l 815 0 l 451 488 m 593 -342 q 474 -305 519 -342 q 428 -204 428 -268 q 474 -104 428 -142 q 593 -67 519 -67 q 715 -104 669 -67 q 760 -204 760 -142 q 715 -305 760 -268 q 593 -342 669 -342 m 235 1147 l 235 1318 l 911 1318 l 911 1147 l 235 1147 z "},"Ȓ":{"ha":1181,"x_min":97,"x_max":1149,"o":"m 296 586 l 675 586 q 783 618 744 586 q 822 707 822 650 q 783 797 822 765 q 675 828 744 828 l 256 828 l 385 965 l 385 0 l 97 0 l 97 1042 l 715 1042 q 924 999 835 1042 q 1063 883 1013 957 q 1113 707 1113 808 q 1063 533 1113 608 q 924 417 1013 458 q 715 375 835 375 l 296 375 l 296 586 m 451 488 l 775 488 l 1149 0 l 815 0 l 451 488 m 925 1113 l 710 1113 q 656 1170 689 1150 q 572 1190 622 1190 q 490 1170 524 1190 q 436 1113 456 1150 l 219 1113 q 348 1301 254 1239 q 572 1364 442 1364 q 799 1301 706 1364 q 925 1113 892 1239 z "},"Ṟ":{"ha":1181,"x_min":97,"x_max":1149,"o":"m 296 586 l 675 586 q 783 618 744 586 q 822 707 822 650 q 783 797 822 765 q 675 828 744 828 l 256 828 l 385 965 l 385 0 l 97 0 l 97 1042 l 715 1042 q 924 999 835 1042 q 1063 883 1013 957 q 1113 707 1113 808 q 1063 533 1113 608 q 924 417 1013 458 q 715 375 835 375 l 296 375 l 296 586 m 451 488 l 775 488 l 1149 0 l 815 0 l 451 488 m 271 -260 l 271 -90 l 947 -90 l 947 -260 l 271 -260 z "},"Ɍ":{"ha":1238,"x_min":31,"x_max":1206,"o":"m 31 578 l 429 578 l 429 382 l 31 382 l 31 578 m 353 586 l 732 586 q 839 618 800 586 q 878 707 878 650 q 839 797 878 765 q 732 828 800 828 l 313 828 l 442 965 l 442 0 l 153 0 l 153 1042 l 772 1042 q 981 999 892 1042 q 1119 883 1069 957 q 1169 707 1169 808 q 1119 533 1169 608 q 981 417 1069 458 q 772 375 892 375 l 353 375 l 353 586 m 508 488 l 832 488 l 1206 0 l 871 0 l 508 488 z "},"Ɽ":{"ha":1181,"x_min":97,"x_max":1149,"o":"m 451 488 l 775 488 l 1149 0 l 814 0 l 451 488 m 97 1042 l 715 1042 q 924 999 835 1042 q 1063 883 1013 957 q 1113 707 1113 808 q 1063 533 1113 608 q 924 417 1013 458 q 715 375 835 375 l 385 375 l 385 117 q 413 7 385 44 q 510 -31 440 -31 q 577 -24 546 -31 q 633 -10 608 -18 l 633 -224 q 540 -245 592 -239 q 440 -251 488 -251 q 181 -162 265 -251 q 97 97 97 -72 l 97 1042 m 385 586 l 675 586 q 783 618 743 586 q 822 707 822 650 q 783 796 822 764 q 675 828 743 828 l 385 828 l 385 586 z "},"S":{"ha":1171,"x_min":50,"x_max":1124,"o":"m 50 342 l 343 342 q 383 267 350 299 q 473 217 417 235 q 606 200 529 200 q 772 227 711 200 q 833 307 833 254 q 799 369 833 347 q 665 401 764 392 l 471 419 q 158 517 256 439 q 61 729 61 596 q 124 913 61 838 q 302 1026 188 988 q 569 1064 417 1064 q 836 1022 719 1064 q 1022 901 953 979 q 1096 721 1090 824 l 804 721 q 769 785 799 758 q 688 827 739 813 q 564 842 636 842 q 410 816 467 842 q 353 740 353 790 q 387 682 353 704 q 510 651 421 660 l 717 631 q 954 583 865 617 q 1083 489 1043 549 q 1124 340 1124 429 q 1058 149 1124 231 q 875 23 993 68 q 600 -22 757 -22 q 316 23 439 -22 q 124 151 193 68 q 50 342 54 233 z "},"Ś":{"ha":1171,"x_min":50,"x_max":1124,"o":"m 50 342 l 343 342 q 383 267 350 299 q 473 217 417 235 q 606 200 529 200 q 772 227 711 200 q 833 307 833 254 q 799 369 833 347 q 665 401 764 392 l 471 419 q 158 517 256 439 q 61 729 61 596 q 124 913 61 838 q 302 1026 188 988 q 569 1064 417 1064 q 836 1022 719 1064 q 1022 901 953 979 q 1096 721 1090 824 l 804 721 q 769 785 799 758 q 688 827 739 813 q 564 842 636 842 q 410 816 467 842 q 353 740 353 790 q 387 682 353 704 q 510 651 421 660 l 717 631 q 954 583 865 617 q 1083 489 1043 549 q 1124 340 1124 429 q 1058 149 1124 231 q 875 23 993 68 q 600 -22 757 -22 q 316 23 439 -22 q 124 151 193 68 q 50 342 54 233 m 617 1353 l 939 1353 l 699 1119 l 413 1119 l 617 1353 z "},"Ṥ":{"ha":1171,"x_min":50,"x_max":1124,"o":"m 50 342 l 343 342 q 383 267 350 299 q 473 217 417 235 q 606 200 529 200 q 772 227 711 200 q 833 307 833 254 q 799 369 833 347 q 665 401 764 392 l 471 419 q 158 517 256 439 q 61 729 61 596 q 124 913 61 838 q 302 1026 188 988 q 569 1064 417 1064 q 836 1022 719 1064 q 1022 901 953 979 q 1096 721 1090 824 l 804 721 q 769 785 799 758 q 688 827 739 813 q 564 842 636 842 q 410 816 467 842 q 353 740 353 790 q 387 682 353 704 q 510 651 421 660 l 717 631 q 954 583 865 617 q 1083 489 1043 549 q 1124 340 1124 429 q 1058 149 1124 231 q 875 23 993 68 q 600 -22 757 -22 q 316 23 439 -22 q 124 151 193 68 q 50 342 54 233 m 617 1353 l 939 1353 l 699 1119 l 413 1119 l 617 1353 m 606 1396 q 486 1433 532 1396 q 440 1533 440 1471 q 486 1635 440 1597 q 606 1672 532 1672 q 727 1635 682 1672 q 772 1533 772 1597 q 727 1433 772 1471 q 606 1396 682 1396 z "},"Š":{"ha":1171,"x_min":50,"x_max":1124,"o":"m 50 342 l 343 342 q 383 267 350 299 q 473 217 417 235 q 606 200 529 200 q 772 227 711 200 q 833 307 833 254 q 799 369 833 347 q 665 401 764 392 l 471 419 q 158 517 256 439 q 61 729 61 596 q 124 913 61 838 q 302 1026 188 988 q 569 1064 417 1064 q 836 1022 719 1064 q 1022 901 953 979 q 1096 721 1090 824 l 804 721 q 769 785 799 758 q 688 827 739 813 q 564 842 636 842 q 410 816 467 842 q 353 740 353 790 q 387 682 353 704 q 510 651 421 660 l 717 631 q 954 583 865 617 q 1083 489 1043 549 q 1124 340 1124 429 q 1058 149 1124 231 q 875 23 993 68 q 600 -22 757 -22 q 316 23 439 -22 q 124 151 193 68 q 50 342 54 233 m 735 1118 l 436 1118 l 224 1353 l 457 1353 l 651 1208 l 519 1208 l 714 1353 l 946 1353 l 735 1118 z "},"Ṧ":{"ha":1171,"x_min":50,"x_max":1124,"o":"m 50 342 l 343 342 q 383 267 350 299 q 473 217 417 235 q 606 200 529 200 q 772 227 711 200 q 833 307 833 254 q 799 369 833 347 q 665 401 764 392 l 471 419 q 158 517 256 439 q 61 729 61 596 q 124 913 61 838 q 302 1026 188 988 q 569 1064 417 1064 q 836 1022 719 1064 q 1022 901 953 979 q 1096 721 1090 824 l 804 721 q 769 785 799 758 q 688 827 739 813 q 564 842 636 842 q 410 816 467 842 q 353 740 353 790 q 387 682 353 704 q 510 651 421 660 l 717 631 q 954 583 865 617 q 1083 489 1043 549 q 1124 340 1124 429 q 1058 149 1124 231 q 875 23 993 68 q 600 -22 757 -22 q 316 23 439 -22 q 124 151 193 68 q 50 342 54 233 m 735 1118 l 436 1118 l 224 1353 l 457 1353 l 651 1208 l 519 1208 l 714 1353 l 946 1353 l 735 1118 m 585 1400 q 465 1437 511 1400 q 419 1538 419 1474 q 465 1638 419 1600 q 585 1675 511 1675 q 706 1638 661 1675 q 751 1538 751 1600 q 706 1437 751 1474 q 585 1400 661 1400 z "},"Ş":{"ha":1171,"x_min":50,"x_max":1124,"o":"m 50 342 l 343 342 q 383 267 350 299 q 473 217 417 235 q 606 200 529 200 q 772 227 711 200 q 833 307 833 254 q 799 369 833 347 q 665 401 764 392 l 471 419 q 158 517 256 439 q 61 729 61 596 q 124 913 61 838 q 302 1026 188 988 q 569 1064 417 1064 q 836 1022 719 1064 q 1022 901 953 979 q 1096 721 1090 824 l 804 721 q 769 785 799 758 q 688 827 739 813 q 564 842 636 842 q 410 816 467 842 q 353 740 353 790 q 387 682 353 704 q 510 651 421 660 l 717 631 q 954 583 865 617 q 1083 489 1043 549 q 1124 340 1124 429 q 1058 149 1124 231 q 875 23 993 68 q 600 -22 757 -22 q 316 23 439 -22 q 124 151 193 68 q 50 342 54 233 m 528 28 l 665 28 l 594 -97 l 522 -92 q 597 -65 558 -75 q 681 -54 635 -54 q 829 -91 778 -54 q 881 -192 881 -128 q 813 -306 881 -261 q 614 -350 744 -350 q 424 -309 500 -350 q 326 -196 347 -268 l 510 -196 q 545 -222 521 -211 q 614 -233 569 -233 q 682 -219 660 -233 q 704 -186 704 -206 q 685 -155 704 -167 q 629 -143 667 -143 q 585 -146 607 -143 q 549 -156 564 -149 l 408 -156 l 528 28 z "},"Ŝ":{"ha":1171,"x_min":50,"x_max":1124,"o":"m 50 342 l 343 342 q 383 267 350 299 q 473 217 417 235 q 606 200 529 200 q 772 227 711 200 q 833 307 833 254 q 799 369 833 347 q 665 401 764 392 l 471 419 q 158 517 256 439 q 61 729 61 596 q 124 913 61 838 q 302 1026 188 988 q 569 1064 417 1064 q 836 1022 719 1064 q 1022 901 953 979 q 1096 721 1090 824 l 804 721 q 769 785 799 758 q 688 827 739 813 q 564 842 636 842 q 410 816 467 842 q 353 740 353 790 q 387 682 353 704 q 510 651 421 660 l 717 631 q 954 583 865 617 q 1083 489 1043 549 q 1124 340 1124 429 q 1058 149 1124 231 q 875 23 993 68 q 600 -22 757 -22 q 316 23 439 -22 q 124 151 193 68 q 50 342 54 233 m 436 1353 l 735 1353 l 946 1119 l 714 1119 l 519 1264 l 651 1264 l 457 1119 l 225 1119 l 436 1353 z "},"Ș":{"ha":1171,"x_min":50,"x_max":1124,"o":"m 50 342 l 343 342 q 383 267 350 299 q 473 217 417 235 q 606 200 529 200 q 772 227 711 200 q 833 307 833 254 q 799 369 833 347 q 665 401 764 392 l 471 419 q 158 517 256 439 q 61 729 61 596 q 124 913 61 838 q 302 1026 188 988 q 569 1064 417 1064 q 836 1022 719 1064 q 1022 901 953 979 q 1096 721 1090 824 l 804 721 q 769 785 799 758 q 688 827 739 813 q 564 842 636 842 q 410 816 467 842 q 353 740 353 790 q 387 682 353 704 q 510 651 421 660 l 717 631 q 954 583 865 617 q 1083 489 1043 549 q 1124 340 1124 429 q 1058 149 1124 231 q 875 23 993 68 q 600 -22 757 -22 q 316 23 439 -22 q 124 151 193 68 q 50 342 54 233 m 442 -429 l 574 -217 l 585 -296 q 475 -264 517 -296 q 433 -178 433 -232 q 474 -92 433 -124 q 585 -61 515 -61 q 695 -93 654 -61 q 736 -181 736 -125 q 717 -250 736 -218 q 653 -337 697 -282 l 578 -429 l 442 -429 z "},"Ṡ":{"ha":1171,"x_min":50,"x_max":1124,"o":"m 50 342 l 343 342 q 383 267 350 299 q 473 217 417 235 q 606 200 529 200 q 772 227 711 200 q 833 307 833 254 q 799 369 833 347 q 665 401 764 392 l 471 419 q 158 517 256 439 q 61 729 61 596 q 124 913 61 838 q 302 1026 188 988 q 569 1064 417 1064 q 836 1022 719 1064 q 1022 901 953 979 q 1096 721 1090 824 l 804 721 q 769 785 799 758 q 688 827 739 813 q 564 842 636 842 q 410 816 467 842 q 353 740 353 790 q 387 682 353 704 q 510 651 421 660 l 717 631 q 954 583 865 617 q 1083 489 1043 549 q 1124 340 1124 429 q 1058 149 1124 231 q 875 23 993 68 q 600 -22 757 -22 q 316 23 439 -22 q 124 151 193 68 q 50 342 54 233 m 585 1118 q 465 1156 511 1118 q 419 1256 419 1193 q 465 1357 419 1319 q 585 1394 511 1394 q 706 1357 661 1394 q 751 1256 751 1319 q 706 1156 751 1193 q 585 1118 661 1118 z "},"Ṣ":{"ha":1171,"x_min":50,"x_max":1124,"o":"m 50 342 l 343 342 q 383 267 350 299 q 473 217 417 235 q 606 200 529 200 q 772 227 711 200 q 833 307 833 254 q 799 369 833 347 q 665 401 764 392 l 471 419 q 158 517 256 439 q 61 729 61 596 q 124 913 61 838 q 302 1026 188 988 q 569 1064 417 1064 q 836 1022 719 1064 q 1022 901 953 979 q 1096 721 1090 824 l 804 721 q 769 785 799 758 q 688 827 739 813 q 564 842 636 842 q 410 816 467 842 q 353 740 353 790 q 387 682 353 704 q 510 651 421 660 l 717 631 q 954 583 865 617 q 1083 489 1043 549 q 1124 340 1124 429 q 1058 149 1124 231 q 875 23 993 68 q 600 -22 757 -22 q 316 23 439 -22 q 124 151 193 68 q 50 342 54 233 m 585 -342 q 465 -305 511 -342 q 419 -204 419 -268 q 465 -104 419 -142 q 585 -67 511 -67 q 706 -104 661 -67 q 751 -204 751 -142 q 706 -305 751 -268 q 585 -342 661 -342 z "},"Ṩ":{"ha":1171,"x_min":50,"x_max":1124,"o":"m 50 342 l 343 342 q 383 267 350 299 q 473 217 417 235 q 606 200 529 200 q 772 227 711 200 q 833 307 833 254 q 799 369 833 347 q 665 401 764 392 l 471 419 q 158 517 256 439 q 61 729 61 596 q 124 913 61 838 q 302 1026 188 988 q 569 1064 417 1064 q 836 1022 719 1064 q 1022 901 953 979 q 1096 721 1090 824 l 804 721 q 769 785 799 758 q 688 827 739 813 q 564 842 636 842 q 410 816 467 842 q 353 740 353 790 q 387 682 353 704 q 510 651 421 660 l 717 631 q 954 583 865 617 q 1083 489 1043 549 q 1124 340 1124 429 q 1058 149 1124 231 q 875 23 993 68 q 600 -22 757 -22 q 316 23 439 -22 q 124 151 193 68 q 50 342 54 233 m 585 -342 q 465 -305 511 -342 q 419 -204 419 -268 q 465 -104 419 -142 q 585 -67 511 -67 q 706 -104 661 -67 q 751 -204 751 -142 q 706 -305 751 -268 q 585 -342 661 -342 m 585 1118 q 465 1156 511 1118 q 419 1256 419 1193 q 465 1357 419 1319 q 585 1394 511 1394 q 706 1357 661 1394 q 751 1256 751 1319 q 706 1156 751 1193 q 585 1118 661 1118 z "},"ẞ":{"ha":1283,"x_min":83,"x_max":1235,"o":"m 783 -22 q 670 -17 722 -22 q 568 1 618 -11 q 463 29 518 13 l 463 246 q 620 202 554 215 q 751 189 686 189 q 858 200 814 189 q 924 236 901 211 q 947 301 947 261 q 927 358 947 336 q 853 395 907 381 q 699 421 800 410 l 625 429 l 625 618 l 994 919 l 997 776 q 822 822 906 810 q 661 835 738 835 q 440 774 511 835 q 369 590 369 714 l 369 0 l 83 0 l 83 579 q 147 842 83 733 q 340 1007 211 950 q 661 1064 468 1064 q 932 1038 804 1064 q 1150 972 1060 1013 l 1150 783 l 821 522 l 711 614 l 794 606 q 1012 568 926 593 q 1146 506 1097 543 q 1215 419 1194 468 q 1235 308 1235 369 q 1178 125 1235 199 q 1021 15 1122 51 q 783 -22 919 -22 z "},"T":{"ha":1136,"x_min":26,"x_max":1110,"o":"m 424 915 l 713 915 l 713 0 l 424 0 l 424 915 m 26 1042 l 1110 1042 l 1110 786 l 26 786 l 26 1042 z "},"Ŧ":{"ha":1153,"x_min":35,"x_max":1118,"o":"m 168 554 l 985 554 l 985 357 l 168 357 l 168 554 m 432 915 l 721 915 l 721 0 l 432 0 l 432 915 m 35 1042 l 1118 1042 l 1118 786 l 35 786 l 35 1042 z "},"Ť":{"ha":1136,"x_min":26,"x_max":1110,"o":"m 424 915 l 713 915 l 713 0 l 424 0 l 424 915 m 26 1042 l 1110 1042 l 1110 786 l 26 786 l 26 1042 m 718 1118 l 418 1118 l 207 1353 l 439 1353 l 633 1208 l 503 1208 l 696 1353 l 928 1353 l 718 1118 z "},"Ţ":{"ha":1136,"x_min":26,"x_max":1110,"o":"m 424 915 l 713 915 l 713 0 l 424 0 l 424 915 m 26 1042 l 1110 1042 l 1110 786 l 26 786 l 26 1042 m 510 28 l 647 28 l 576 -97 l 504 -92 q 578 -65 540 -75 q 663 -54 617 -54 q 811 -91 760 -54 q 863 -192 863 -128 q 794 -306 863 -261 q 596 -350 726 -350 q 406 -309 482 -350 q 308 -196 329 -268 l 492 -196 q 527 -222 503 -211 q 596 -233 551 -233 q 664 -219 642 -233 q 686 -186 686 -206 q 667 -155 686 -167 q 611 -143 649 -143 q 567 -146 589 -143 q 531 -156 546 -149 l 390 -156 l 510 28 z "},"Ṱ":{"ha":1136,"x_min":26,"x_max":1110,"o":"m 424 915 l 713 915 l 713 0 l 424 0 l 424 915 m 26 1042 l 1110 1042 l 1110 786 l 26 786 l 26 1042 m 422 -58 l 713 -58 l 911 -321 l 688 -321 l 501 -128 l 633 -128 l 449 -321 l 224 -321 l 422 -58 z "},"Ț":{"ha":1136,"x_min":26,"x_max":1110,"o":"m 424 915 l 713 915 l 713 0 l 424 0 l 424 915 m 26 1042 l 1110 1042 l 1110 786 l 26 786 l 26 1042 m 425 -429 l 557 -217 l 568 -296 q 458 -264 500 -296 q 417 -178 417 -232 q 458 -92 417 -124 q 568 -61 499 -61 q 678 -93 638 -61 q 719 -181 719 -125 q 700 -250 719 -218 q 636 -337 681 -282 l 561 -429 l 425 -429 z "},"Ⱦ":{"ha":1160,"x_min":26,"x_max":1242,"o":"m 1007 1211 l 1242 1211 l 458 -169 l 224 -169 l 1007 1211 m 424 915 l 713 915 l 713 0 l 424 0 l 424 915 m 26 1042 l 1110 1042 l 1110 786 l 26 786 l 26 1042 z "},"Ṫ":{"ha":1136,"x_min":26,"x_max":1110,"o":"m 424 915 l 713 915 l 713 0 l 424 0 l 424 915 m 26 1042 l 1110 1042 l 1110 786 l 26 786 l 26 1042 m 567 1118 q 447 1156 493 1118 q 401 1256 401 1193 q 447 1357 401 1319 q 567 1394 493 1394 q 688 1357 643 1394 q 733 1256 733 1319 q 688 1156 733 1193 q 567 1118 643 1118 z "},"Ṭ":{"ha":1136,"x_min":26,"x_max":1110,"o":"m 424 915 l 713 915 l 713 0 l 424 0 l 424 915 m 26 1042 l 1110 1042 l 1110 786 l 26 786 l 26 1042 m 567 -342 q 447 -305 493 -342 q 401 -204 401 -268 q 447 -104 401 -142 q 567 -67 493 -67 q 688 -104 643 -67 q 733 -204 733 -142 q 688 -305 733 -268 q 567 -342 643 -342 z "},"Ƭ":{"ha":1263,"x_min":25,"x_max":1236,"o":"m 550 915 l 839 915 l 839 0 l 550 0 l 550 915 m 1236 1042 l 1236 786 l 378 786 q 297 763 324 786 q 269 690 269 740 q 277 630 269 660 q 293 576 285 600 l 81 576 q 42 672 60 619 q 25 790 25 725 q 96 974 25 907 q 318 1042 167 1042 l 1236 1042 z "},"Ṯ":{"ha":1136,"x_min":26,"x_max":1110,"o":"m 424 915 l 713 915 l 713 0 l 424 0 l 424 915 m 26 1042 l 1110 1042 l 1110 786 l 26 786 l 26 1042 m 244 -260 l 244 -90 l 921 -90 l 921 -260 l 244 -260 z "},"Ʈ":{"ha":1139,"x_min":26,"x_max":1110,"o":"m 26 1042 l 1110 1042 l 1110 786 l 26 786 l 26 1042 m 836 -31 q 903 -24 872 -31 q 960 -10 935 -18 l 960 -224 q 867 -245 918 -239 q 767 -251 815 -251 q 508 -162 592 -251 q 424 97 424 -72 l 424 915 l 713 915 l 713 117 q 740 7 713 44 q 836 -31 767 -31 z "},"U":{"ha":1219,"x_min":83,"x_max":1136,"o":"m 371 465 q 398 342 371 394 q 478 263 425 290 q 610 235 532 235 q 742 263 689 235 q 821 342 794 290 q 847 465 847 394 l 847 1042 l 1136 1042 l 1136 451 q 1070 202 1136 308 q 886 37 1004 96 q 610 -22 768 -22 q 334 37 453 -22 q 149 202 215 96 q 83 451 83 308 l 83 1042 l 371 1042 l 371 465 z "},"Ú":{"ha":1219,"x_min":83,"x_max":1136,"o":"m 371 465 q 398 342 371 394 q 478 263 425 290 q 610 235 532 235 q 742 263 689 235 q 821 342 794 290 q 847 465 847 394 l 847 1042 l 1136 1042 l 1136 451 q 1070 202 1136 308 q 886 37 1004 96 q 610 -22 768 -22 q 334 37 453 -22 q 149 202 215 96 q 83 451 83 308 l 83 1042 l 371 1042 l 371 465 m 642 1353 l 964 1353 l 724 1119 l 438 1119 l 642 1353 z "},"Ʉ":{"ha":1357,"x_min":35,"x_max":1324,"o":"m 35 696 l 1324 696 l 1324 499 l 35 499 l 35 696 m 440 465 q 467 342 440 394 q 547 263 494 290 q 679 235 600 235 q 811 263 758 235 q 890 342 864 290 q 917 465 917 394 l 917 1042 l 1206 1042 l 1206 451 q 1140 202 1206 308 q 956 37 1074 96 q 679 -22 838 -22 q 403 37 521 -22 q 218 202 285 96 q 151 451 151 308 l 151 1042 l 440 1042 l 440 465 z "},"Ŭ":{"ha":1219,"x_min":83,"x_max":1136,"o":"m 371 465 q 398 342 371 394 q 478 263 425 290 q 610 235 532 235 q 742 263 689 235 q 821 342 794 290 q 847 465 847 394 l 847 1042 l 1136 1042 l 1136 451 q 1070 202 1136 308 q 886 37 1004 96 q 610 -22 768 -22 q 334 37 453 -22 q 149 202 215 96 q 83 451 83 308 l 83 1042 l 371 1042 l 371 465 m 257 1358 l 472 1358 q 526 1301 493 1321 q 610 1281 560 1281 q 692 1301 658 1281 q 747 1358 726 1321 l 963 1358 q 835 1170 929 1232 q 610 1108 742 1108 q 384 1170 478 1108 q 257 1358 290 1232 z "},"Ǔ":{"ha":1219,"x_min":83,"x_max":1136,"o":"m 371 465 q 398 342 371 394 q 478 263 425 290 q 610 235 532 235 q 742 263 689 235 q 821 342 794 290 q 847 465 847 394 l 847 1042 l 1136 1042 l 1136 451 q 1070 202 1136 308 q 886 37 1004 96 q 610 -22 768 -22 q 334 37 453 -22 q 149 202 215 96 q 83 451 83 308 l 83 1042 l 371 1042 l 371 465 m 760 1118 l 460 1118 l 249 1353 l 481 1353 l 675 1208 l 544 1208 l 738 1353 l 969 1353 l 760 1118 z "},"Û":{"ha":1219,"x_min":83,"x_max":1136,"o":"m 371 465 q 398 342 371 394 q 478 263 425 290 q 610 235 532 235 q 742 263 689 235 q 821 342 794 290 q 847 465 847 394 l 847 1042 l 1136 1042 l 1136 451 q 1070 202 1136 308 q 886 37 1004 96 q 610 -22 768 -22 q 334 37 453 -22 q 149 202 215 96 q 83 451 83 308 l 83 1042 l 371 1042 l 371 465 m 460 1353 l 758 1353 l 969 1119 l 738 1119 l 543 1264 l 675 1264 l 481 1119 l 249 1119 l 460 1353 z "},"Ṷ":{"ha":1219,"x_min":83,"x_max":1136,"o":"m 371 465 q 398 342 371 394 q 478 263 425 290 q 610 235 532 235 q 742 263 689 235 q 821 342 794 290 q 847 465 847 394 l 847 1042 l 1136 1042 l 1136 451 q 1070 202 1136 308 q 886 37 1004 96 q 610 -22 768 -22 q 334 37 453 -22 q 149 202 215 96 q 83 451 83 308 l 83 1042 l 371 1042 l 371 465 m 464 -58 l 754 -58 l 953 -321 l 729 -321 l 543 -128 l 675 -128 l 490 -321 l 265 -321 l 464 -58 z "},"Ȕ":{"ha":1219,"x_min":83,"x_max":1136,"o":"m 371 465 q 398 342 371 394 q 478 263 425 290 q 610 235 532 235 q 742 263 689 235 q 821 342 794 290 q 847 465 847 394 l 847 1042 l 1136 1042 l 1136 451 q 1070 202 1136 308 q 886 37 1004 96 q 610 -22 768 -22 q 334 37 453 -22 q 149 202 215 96 q 83 451 83 308 l 83 1042 l 371 1042 l 371 465 m 743 1353 l 915 1119 l 667 1119 l 472 1353 l 743 1353 m 379 1353 l 550 1119 l 301 1119 l 106 1353 l 379 1353 z "},"Ü":{"ha":1219,"x_min":83,"x_max":1136,"o":"m 371 465 q 398 342 371 394 q 478 263 425 290 q 610 235 532 235 q 742 263 689 235 q 821 342 794 290 q 847 465 847 394 l 847 1042 l 1136 1042 l 1136 451 q 1070 202 1136 308 q 886 37 1004 96 q 610 -22 768 -22 q 334 37 453 -22 q 149 202 215 96 q 83 451 83 308 l 83 1042 l 371 1042 l 371 465 m 394 1118 q 283 1153 325 1118 q 240 1251 240 1189 q 283 1344 240 1310 q 394 1379 325 1379 q 506 1344 464 1379 q 549 1251 549 1310 q 506 1153 549 1189 q 394 1118 464 1118 m 825 1118 q 713 1153 756 1118 q 671 1251 671 1189 q 713 1344 671 1310 q 825 1379 756 1379 q 937 1344 894 1379 q 979 1251 979 1310 q 937 1153 979 1189 q 825 1118 894 1118 z "},"Ǘ":{"ha":1219,"x_min":83,"x_max":1136,"o":"m 371 465 q 398 342 371 394 q 478 263 425 290 q 610 235 532 235 q 742 263 689 235 q 821 342 794 290 q 847 465 847 394 l 847 1042 l 1136 1042 l 1136 451 q 1070 202 1136 308 q 886 37 1004 96 q 610 -22 768 -22 q 334 37 453 -22 q 149 202 215 96 q 83 451 83 308 l 83 1042 l 371 1042 l 371 465 m 394 1118 q 283 1153 325 1118 q 240 1251 240 1189 q 283 1344 240 1310 q 394 1379 325 1379 q 506 1344 464 1379 q 549 1251 549 1310 q 506 1153 549 1189 q 394 1118 464 1118 m 825 1118 q 713 1153 756 1118 q 671 1251 671 1189 q 713 1344 671 1310 q 825 1379 756 1379 q 937 1344 894 1379 q 979 1251 979 1310 q 937 1153 979 1189 q 825 1118 894 1118 m 642 1664 l 964 1664 l 724 1431 l 438 1431 l 642 1664 z "},"Ṳ":{"ha":1219,"x_min":83,"x_max":1136,"o":"m 371 465 q 398 342 371 394 q 478 263 425 290 q 610 235 532 235 q 742 263 689 235 q 821 342 794 290 q 847 465 847 394 l 847 1042 l 1136 1042 l 1136 451 q 1070 202 1136 308 q 886 37 1004 96 q 610 -22 768 -22 q 334 37 453 -22 q 149 202 215 96 q 83 451 83 308 l 83 1042 l 371 1042 l 371 465 m 397 -328 q 285 -293 328 -328 q 243 -196 243 -258 q 285 -101 243 -136 q 397 -67 328 -67 q 510 -101 468 -67 q 551 -196 551 -136 q 510 -293 551 -258 q 397 -328 468 -328 m 822 -328 q 710 -293 751 -328 q 668 -196 668 -258 q 710 -101 668 -136 q 822 -67 751 -67 q 933 -101 892 -67 q 975 -196 975 -136 q 933 -293 975 -258 q 822 -328 892 -328 z "},"Ǚ":{"ha":1219,"x_min":83,"x_max":1136,"o":"m 371 465 q 398 342 371 394 q 478 263 425 290 q 610 235 532 235 q 742 263 689 235 q 821 342 794 290 q 847 465 847 394 l 847 1042 l 1136 1042 l 1136 451 q 1070 202 1136 308 q 886 37 1004 96 q 610 -22 768 -22 q 334 37 453 -22 q 149 202 215 96 q 83 451 83 308 l 83 1042 l 371 1042 l 371 465 m 394 1118 q 282 1153 324 1118 q 240 1251 240 1189 q 282 1344 240 1310 q 394 1379 324 1379 q 506 1344 464 1379 q 549 1251 549 1310 q 506 1153 549 1189 q 394 1118 464 1118 m 825 1118 q 713 1153 754 1118 q 671 1251 671 1189 q 713 1344 671 1310 q 825 1379 754 1379 q 937 1344 894 1379 q 979 1251 979 1310 q 937 1153 979 1189 q 825 1118 894 1118 m 760 1429 l 461 1429 l 249 1664 l 482 1664 l 676 1519 l 544 1519 l 739 1664 l 971 1664 l 760 1429 z "},"Ǜ":{"ha":1219,"x_min":83,"x_max":1136,"o":"m 371 465 q 398 342 371 394 q 478 263 425 290 q 610 235 532 235 q 742 263 689 235 q 821 342 794 290 q 847 465 847 394 l 847 1042 l 1136 1042 l 1136 451 q 1070 202 1136 308 q 886 37 1004 96 q 610 -22 768 -22 q 334 37 453 -22 q 149 202 215 96 q 83 451 83 308 l 83 1042 l 371 1042 l 371 465 m 394 1118 q 282 1153 324 1118 q 240 1251 240 1189 q 282 1344 240 1310 q 394 1379 324 1379 q 506 1344 464 1379 q 549 1251 549 1310 q 506 1153 549 1189 q 394 1118 464 1118 m 825 1118 q 713 1153 754 1118 q 671 1251 671 1189 q 713 1344 671 1310 q 825 1379 754 1379 q 937 1344 894 1379 q 979 1251 979 1310 q 937 1153 979 1189 q 825 1118 894 1118 m 563 1664 l 767 1431 l 481 1431 l 240 1664 l 563 1664 z "},"Ǖ":{"ha":1219,"x_min":83,"x_max":1136,"o":"m 371 465 q 398 342 371 394 q 478 263 425 290 q 610 235 532 235 q 742 263 689 235 q 821 342 794 290 q 847 465 847 394 l 847 1042 l 1136 1042 l 1136 451 q 1070 202 1136 308 q 886 37 1004 96 q 610 -22 768 -22 q 334 37 453 -22 q 149 202 215 96 q 83 451 83 308 l 83 1042 l 371 1042 l 371 465 m 394 1118 q 283 1153 325 1118 q 240 1251 240 1189 q 283 1344 240 1310 q 394 1379 325 1379 q 506 1344 464 1379 q 549 1251 549 1310 q 506 1153 549 1189 q 394 1118 464 1118 m 825 1118 q 713 1153 756 1118 q 671 1251 671 1189 q 713 1344 671 1310 q 825 1379 756 1379 q 937 1344 894 1379 q 979 1251 979 1310 q 937 1153 979 1189 q 825 1118 894 1118 m 272 1444 l 272 1615 l 949 1615 l 949 1444 l 272 1444 z "},"Ụ":{"ha":1219,"x_min":83,"x_max":1136,"o":"m 371 465 q 398 342 371 394 q 478 263 425 290 q 610 235 532 235 q 742 263 689 235 q 821 342 794 290 q 847 465 847 394 l 847 1042 l 1136 1042 l 1136 451 q 1070 202 1136 308 q 886 37 1004 96 q 610 -22 768 -22 q 334 37 453 -22 q 149 202 215 96 q 83 451 83 308 l 83 1042 l 371 1042 l 371 465 m 608 -342 q 489 -305 535 -342 q 443 -204 443 -268 q 489 -104 443 -142 q 608 -67 535 -67 q 730 -104 685 -67 q 775 -204 775 -142 q 730 -305 775 -268 q 608 -342 685 -342 z "},"Ù":{"ha":1219,"x_min":83,"x_max":1136,"o":"m 371 465 q 398 342 371 394 q 478 263 425 290 q 610 235 532 235 q 742 263 689 235 q 821 342 794 290 q 847 465 847 394 l 847 1042 l 1136 1042 l 1136 451 q 1070 202 1136 308 q 886 37 1004 96 q 610 -22 768 -22 q 334 37 453 -22 q 149 202 215 96 q 83 451 83 308 l 83 1042 l 371 1042 l 371 465 m 561 1353 l 765 1119 l 481 1119 l 239 1353 l 561 1353 z "},"Ủ":{"ha":1219,"x_min":83,"x_max":1136,"o":"m 371 465 q 398 342 371 394 q 478 263 425 290 q 610 235 532 235 q 742 263 689 235 q 821 342 794 290 q 847 465 847 394 l 847 1042 l 1136 1042 l 1136 451 q 1070 202 1136 308 q 886 37 1004 96 q 610 -22 768 -22 q 334 37 453 -22 q 149 202 215 96 q 83 451 83 308 l 83 1042 l 371 1042 l 371 465 m 547 1100 l 496 1188 q 589 1214 561 1199 q 617 1246 617 1229 q 596 1269 617 1261 q 533 1278 575 1278 q 474 1274 501 1278 q 417 1264 447 1271 l 417 1407 q 496 1424 444 1415 q 601 1432 547 1432 q 789 1397 724 1432 q 854 1286 854 1363 q 784 1171 854 1217 q 547 1100 714 1125 z "},"Ư":{"ha":1331,"x_min":83,"x_max":1394,"o":"m 371 465 q 398 342 371 394 q 478 263 425 290 q 610 235 532 235 q 742 263 689 235 q 821 342 794 290 q 847 465 847 394 l 847 1042 l 1136 1042 l 1136 451 q 1070 202 1136 308 q 886 37 1004 96 q 610 -22 768 -22 q 334 37 453 -22 q 149 202 215 96 q 83 451 83 308 l 83 1042 l 371 1042 l 371 465 m 1393 1081 q 1318 938 1393 990 q 1110 885 1243 885 q 1097 885 1106 885 q 1085 885 1089 885 l 1085 1042 q 1088 1042 1088 1042 q 1089 1042 1088 1042 q 1152 1063 1129 1042 q 1175 1117 1175 1083 q 1165 1167 1175 1140 q 1135 1222 1156 1193 l 1349 1222 q 1393 1081 1393 1151 z "},"Ứ":{"ha":1331,"x_min":83,"x_max":1394,"o":"m 371 465 q 398 342 371 394 q 478 263 425 290 q 610 235 532 235 q 742 263 689 235 q 821 342 794 290 q 847 465 847 394 l 847 1042 l 1136 1042 l 1136 451 q 1070 202 1136 308 q 886 37 1004 96 q 610 -22 768 -22 q 334 37 453 -22 q 149 202 215 96 q 83 451 83 308 l 83 1042 l 371 1042 l 371 465 m 1393 1081 q 1318 938 1393 990 q 1110 885 1243 885 q 1097 885 1106 885 q 1085 885 1089 885 l 1085 1042 q 1088 1042 1088 1042 q 1089 1042 1088 1042 q 1152 1063 1129 1042 q 1175 1117 1175 1083 q 1165 1167 1175 1140 q 1135 1222 1156 1193 l 1349 1222 q 1393 1081 1393 1151 m 646 1353 l 968 1353 l 728 1119 l 442 1119 l 646 1353 z "},"Ự":{"ha":1331,"x_min":83,"x_max":1394,"o":"m 371 465 q 398 342 371 394 q 478 263 425 290 q 610 235 532 235 q 742 263 689 235 q 821 342 794 290 q 847 465 847 394 l 847 1042 l 1136 1042 l 1136 451 q 1070 202 1136 308 q 886 37 1004 96 q 610 -22 768 -22 q 334 37 453 -22 q 149 202 215 96 q 83 451 83 308 l 83 1042 l 371 1042 l 371 465 m 1393 1081 q 1318 938 1393 990 q 1110 885 1243 885 q 1097 885 1106 885 q 1085 885 1089 885 l 1085 1042 q 1088 1042 1088 1042 q 1089 1042 1088 1042 q 1152 1063 1129 1042 q 1175 1117 1175 1083 q 1165 1167 1175 1140 q 1135 1222 1156 1193 l 1349 1222 q 1393 1081 1393 1151 m 614 -342 q 494 -305 540 -342 q 449 -204 449 -268 q 494 -104 449 -142 q 614 -67 540 -67 q 735 -104 690 -67 q 781 -204 781 -142 q 735 -305 781 -268 q 614 -342 690 -342 z "},"Ừ":{"ha":1331,"x_min":83,"x_max":1394,"o":"m 371 465 q 398 342 371 394 q 478 263 425 290 q 610 235 532 235 q 742 263 689 235 q 821 342 794 290 q 847 465 847 394 l 847 1042 l 1136 1042 l 1136 451 q 1070 202 1136 308 q 886 37 1004 96 q 610 -22 768 -22 q 334 37 453 -22 q 149 202 215 96 q 83 451 83 308 l 83 1042 l 371 1042 l 371 465 m 1394 1081 q 1319 938 1394 990 q 1110 886 1243 886 q 1097 886 1106 886 q 1085 886 1089 886 l 1085 1042 q 1088 1042 1088 1042 q 1089 1042 1088 1042 q 1152 1063 1129 1042 q 1175 1118 1175 1083 q 1165 1167 1175 1140 q 1135 1222 1156 1194 l 1349 1222 q 1394 1081 1394 1153 m 565 1353 l 771 1119 l 485 1119 l 243 1353 l 565 1353 z "},"Ử":{"ha":1331,"x_min":83,"x_max":1394,"o":"m 371 465 q 398 342 371 394 q 478 263 425 290 q 610 235 532 235 q 742 263 689 235 q 821 342 794 290 q 847 465 847 394 l 847 1042 l 1136 1042 l 1136 451 q 1070 202 1136 308 q 886 37 1004 96 q 610 -22 768 -22 q 334 37 453 -22 q 149 202 215 96 q 83 451 83 308 l 83 1042 l 371 1042 l 371 465 m 1393 1081 q 1318 938 1393 990 q 1110 885 1243 885 q 1097 885 1106 885 q 1085 885 1089 885 l 1085 1042 q 1088 1042 1088 1042 q 1089 1042 1088 1042 q 1152 1063 1129 1042 q 1175 1117 1175 1083 q 1165 1167 1175 1140 q 1135 1222 1156 1193 l 1349 1222 q 1393 1081 1393 1151 m 551 1100 l 500 1188 q 593 1214 565 1199 q 621 1246 621 1229 q 600 1269 621 1261 q 538 1278 579 1278 q 478 1274 506 1278 q 421 1264 451 1271 l 421 1407 q 500 1424 449 1415 q 606 1432 551 1432 q 793 1397 728 1432 q 858 1286 858 1363 q 788 1171 858 1217 q 551 1100 718 1125 z "},"Ữ":{"ha":1331,"x_min":83,"x_max":1394,"o":"m 371 465 q 398 342 371 394 q 478 263 425 290 q 610 235 532 235 q 742 263 689 235 q 821 342 794 290 q 847 465 847 394 l 847 1042 l 1136 1042 l 1136 451 q 1070 202 1136 308 q 886 37 1004 96 q 610 -22 768 -22 q 334 37 453 -22 q 149 202 215 96 q 83 451 83 308 l 83 1042 l 371 1042 l 371 465 m 1393 1081 q 1318 938 1393 990 q 1110 885 1243 885 q 1097 885 1106 885 q 1085 885 1089 885 l 1085 1042 q 1088 1042 1088 1042 q 1089 1042 1088 1042 q 1152 1063 1129 1042 q 1175 1117 1175 1083 q 1165 1167 1175 1140 q 1135 1222 1156 1193 l 1349 1222 q 1393 1081 1393 1151 m 235 1126 q 307 1300 249 1236 q 479 1364 365 1364 q 553 1354 517 1364 q 621 1331 589 1344 q 681 1308 653 1318 q 735 1299 710 1299 q 783 1313 764 1299 q 807 1357 801 1328 l 990 1357 q 918 1183 976 1247 q 747 1118 860 1118 q 673 1128 708 1118 q 605 1152 638 1139 q 544 1175 572 1165 q 490 1185 515 1185 q 443 1170 463 1185 q 418 1126 424 1156 l 235 1126 z "},"Ű":{"ha":1219,"x_min":83,"x_max":1136,"o":"m 371 465 q 398 342 371 394 q 478 263 425 290 q 610 235 532 235 q 742 263 689 235 q 821 342 794 290 q 847 465 847 394 l 847 1042 l 1136 1042 l 1136 451 q 1070 202 1136 308 q 886 37 1004 96 q 610 -22 768 -22 q 334 37 453 -22 q 149 202 215 96 q 83 451 83 308 l 83 1042 l 371 1042 l 371 465 m 483 1353 l 754 1353 l 560 1119 l 311 1119 l 483 1353 m 847 1353 l 1121 1353 l 925 1119 l 676 1119 l 847 1353 z "},"Ȗ":{"ha":1219,"x_min":83,"x_max":1136,"o":"m 371 465 q 398 342 371 394 q 478 263 425 290 q 610 235 532 235 q 742 263 689 235 q 821 342 794 290 q 847 465 847 394 l 847 1042 l 1136 1042 l 1136 451 q 1070 202 1136 308 q 886 37 1004 96 q 610 -22 768 -22 q 334 37 453 -22 q 149 202 215 96 q 83 451 83 308 l 83 1042 l 371 1042 l 371 465 m 963 1113 l 746 1113 q 692 1170 726 1150 q 610 1190 658 1190 q 526 1170 560 1190 q 472 1113 492 1150 l 256 1113 q 384 1301 290 1239 q 610 1364 478 1364 q 835 1301 742 1364 q 963 1113 929 1239 z "},"Ū":{"ha":1219,"x_min":83,"x_max":1136,"o":"m 371 465 q 398 342 371 394 q 478 263 425 290 q 610 235 532 235 q 742 263 689 235 q 821 342 794 290 q 847 465 847 394 l 847 1042 l 1136 1042 l 1136 451 q 1070 202 1136 308 q 886 37 1004 96 q 610 -22 768 -22 q 334 37 453 -22 q 149 202 215 96 q 83 451 83 308 l 83 1042 l 371 1042 l 371 465 m 271 1147 l 271 1318 l 947 1318 l 947 1147 l 271 1147 z "},"Ṻ":{"ha":1219,"x_min":83,"x_max":1136,"o":"m 371 465 q 398 342 371 394 q 478 263 425 290 q 610 235 532 235 q 742 263 689 235 q 821 342 794 290 q 847 465 847 394 l 847 1042 l 1136 1042 l 1136 451 q 1070 202 1136 308 q 886 37 1004 96 q 610 -22 768 -22 q 334 37 453 -22 q 149 202 215 96 q 83 451 83 308 l 83 1042 l 371 1042 l 371 465 m 271 1147 l 271 1318 l 947 1318 l 947 1147 l 271 1147 m 394 1399 q 283 1434 325 1399 q 240 1532 240 1469 q 283 1625 240 1590 q 394 1660 325 1660 q 506 1625 464 1660 q 549 1532 549 1590 q 506 1434 549 1469 q 394 1399 464 1399 m 825 1399 q 713 1434 756 1399 q 671 1532 671 1469 q 713 1625 671 1590 q 825 1660 756 1660 q 937 1625 894 1660 q 979 1532 979 1590 q 937 1434 979 1469 q 825 1399 894 1399 z "},"Ų":{"ha":1219,"x_min":83,"x_max":1136,"o":"m 847 467 l 847 1042 l 1136 1042 l 1136 451 q 1044 164 1136 281 q 794 1 953 47 q 679 -45 719 -21 q 639 -94 639 -69 q 733 -135 639 -135 q 776 -132 756 -135 q 815 -125 797 -129 l 815 -275 q 753 -287 797 -281 q 663 -294 710 -294 q 502 -257 564 -294 q 440 -157 440 -219 q 496 -57 440 -99 q 664 13 551 -15 l 653 -21 q 356 27 485 -29 q 156 193 228 83 q 83 451 83 303 l 83 1042 l 371 1042 l 371 467 q 398 343 371 394 q 478 263 425 292 q 610 235 532 235 q 742 263 689 235 q 821 342 794 290 q 847 467 847 394 z "},"Ʊ":{"ha":1361,"x_min":57,"x_max":1306,"o":"m 681 -22 q 351 43 483 -22 q 152 220 218 108 q 86 472 86 332 q 201 778 86 649 q 521 961 315 907 l 428 832 l 57 832 l 57 1042 l 571 1042 l 571 853 q 422 726 476 806 q 368 539 368 647 q 406 378 368 447 q 513 272 443 310 q 681 235 583 235 q 849 272 779 235 q 957 378 919 310 q 994 539 994 447 q 940 726 994 647 q 792 853 885 806 l 792 1042 l 1306 1042 l 1306 832 l 933 832 l 842 961 q 1162 778 1047 907 q 1276 472 1276 649 q 1210 220 1276 332 q 1012 43 1144 108 q 681 -22 879 -22 z "},"Ů":{"ha":1219,"x_min":83,"x_max":1136,"o":"m 371 465 q 398 342 371 394 q 478 263 425 290 q 610 235 532 235 q 742 263 689 235 q 821 342 794 290 q 847 465 847 394 l 847 1042 l 1136 1042 l 1136 451 q 1070 202 1136 308 q 886 37 1004 96 q 610 -22 768 -22 q 334 37 453 -22 q 149 202 215 96 q 83 451 83 308 l 83 1042 l 371 1042 l 371 465 m 608 1094 q 406 1144 478 1094 q 333 1283 333 1194 q 406 1424 333 1374 q 608 1474 478 1474 q 813 1424 740 1474 q 885 1283 885 1374 q 813 1144 885 1194 q 608 1094 740 1094 m 608 1218 q 699 1235 671 1218 q 728 1283 728 1253 q 699 1333 728 1317 q 608 1350 671 1350 q 519 1333 547 1350 q 490 1283 490 1317 q 519 1235 490 1253 q 608 1218 547 1218 z "},"Ũ":{"ha":1219,"x_min":83,"x_max":1136,"o":"m 371 465 q 398 342 371 394 q 478 263 425 290 q 610 235 532 235 q 742 263 689 235 q 821 342 794 290 q 847 465 847 394 l 847 1042 l 1136 1042 l 1136 451 q 1070 202 1136 308 q 886 37 1004 96 q 610 -22 768 -22 q 334 37 453 -22 q 149 202 215 96 q 83 451 83 308 l 83 1042 l 371 1042 l 371 465 m 231 1126 q 303 1300 244 1236 q 475 1364 361 1364 q 549 1354 513 1364 q 617 1331 585 1344 q 677 1308 649 1318 q 731 1299 706 1299 q 778 1313 760 1299 q 803 1357 797 1328 l 986 1357 q 914 1183 972 1247 q 743 1118 856 1118 q 669 1128 704 1118 q 601 1152 633 1139 q 540 1175 568 1165 q 486 1185 511 1185 q 439 1170 458 1185 q 414 1126 419 1156 l 231 1126 z "},"Ṹ":{"ha":1219,"x_min":83,"x_max":1136,"o":"m 371 465 q 398 342 371 394 q 478 263 425 290 q 610 235 532 235 q 742 263 689 235 q 821 342 794 290 q 847 465 847 394 l 847 1042 l 1136 1042 l 1136 451 q 1070 202 1136 308 q 886 37 1004 96 q 610 -22 768 -22 q 334 37 453 -22 q 149 202 215 96 q 83 451 83 308 l 83 1042 l 371 1042 l 371 465 m 231 1126 q 303 1300 244 1236 q 475 1364 361 1364 q 549 1354 513 1364 q 617 1331 585 1344 q 677 1308 649 1318 q 731 1299 706 1299 q 778 1313 760 1299 q 803 1357 797 1328 l 986 1357 q 914 1183 972 1247 q 743 1118 856 1118 q 669 1128 704 1118 q 601 1152 633 1139 q 540 1175 568 1165 q 486 1185 511 1185 q 439 1170 458 1185 q 414 1126 419 1156 l 231 1126 m 642 1640 l 964 1640 l 724 1407 l 438 1407 l 642 1640 z "},"Ṵ":{"ha":1219,"x_min":83,"x_max":1136,"o":"m 371 465 q 398 342 371 394 q 478 263 425 290 q 610 235 532 235 q 742 263 689 235 q 821 342 794 290 q 847 465 847 394 l 847 1042 l 1136 1042 l 1136 451 q 1070 202 1136 308 q 886 37 1004 96 q 610 -22 768 -22 q 334 37 453 -22 q 149 202 215 96 q 83 451 83 308 l 83 1042 l 371 1042 l 371 465 m 261 -311 q 318 -122 268 -192 q 467 -53 368 -53 q 540 -63 504 -53 q 606 -87 575 -74 q 665 -113 638 -101 q 715 -125 693 -125 q 765 -106 746 -125 q 789 -54 783 -87 l 957 -54 q 901 -243 951 -172 q 751 -314 851 -314 q 678 -302 714 -314 q 612 -276 643 -290 q 553 -252 581 -262 q 503 -242 525 -242 q 454 -260 474 -242 q 429 -311 435 -278 l 261 -311 z "},"V":{"ha":1299,"x_min":1,"x_max":1297,"o":"m 714 129 l 592 129 l 993 1042 l 1297 1042 l 813 0 l 486 0 l 1 1042 l 310 1042 l 714 129 z "},"Ɣ":{"ha":1282,"x_min":-7,"x_max":1289,"o":"m 440 147 l 828 147 l 800 63 l 581 340 l 701 340 l 476 53 l 440 147 m 146 0 l 550 511 l 526 346 l -7 1042 l 304 1042 l 713 514 l 590 538 l 983 1042 l 1289 1042 l 756 353 l 725 519 l 1138 0 l 146 0 z "},"Ṿ":{"ha":1299,"x_min":1,"x_max":1297,"o":"m 714 129 l 592 129 l 993 1042 l 1297 1042 l 813 0 l 486 0 l 1 1042 l 310 1042 l 714 129 m 649 -342 q 529 -305 575 -342 q 483 -204 483 -268 q 529 -104 483 -142 q 649 -67 575 -67 q 770 -104 725 -67 q 815 -204 815 -142 q 770 -305 815 -268 q 649 -342 725 -342 z "},"Ʋ":{"ha":1228,"x_min":85,"x_max":1174,"o":"m 85 451 l 85 1042 l 371 1042 l 371 465 q 394 336 371 389 q 460 257 417 283 q 568 231 504 231 q 692 263 635 231 q 792 354 749 296 q 858 491 835 413 q 882 661 882 569 q 842 794 882 744 q 722 843 801 843 q 650 835 683 843 q 586 814 617 828 l 586 1031 q 676 1053 621 1043 q 799 1064 731 1064 q 1076 965 979 1064 q 1174 663 1174 865 q 1130 401 1174 525 q 1003 183 1086 278 q 804 33 921 88 q 543 -22 688 -22 q 296 36 399 -22 q 139 201 193 94 q 85 451 85 307 z "},"Ṽ":{"ha":1299,"x_min":1,"x_max":1297,"o":"m 714 129 l 592 129 l 993 1042 l 1297 1042 l 813 0 l 486 0 l 1 1042 l 310 1042 l 714 129 m 271 1126 q 343 1300 285 1236 q 515 1364 401 1364 q 589 1354 553 1364 q 657 1331 625 1344 q 717 1308 689 1318 q 771 1299 746 1299 q 819 1313 800 1299 q 843 1357 838 1328 l 1026 1357 q 954 1183 1013 1247 q 783 1118 896 1118 q 709 1128 744 1118 q 641 1152 674 1139 q 580 1175 608 1165 q 526 1185 551 1185 q 479 1170 499 1185 q 454 1126 460 1156 l 271 1126 z "},"Ʌ":{"ha":1279,"x_min":1,"x_max":1276,"o":"m 1 0 l 476 1042 l 803 1042 l 1276 0 l 983 0 l 581 913 l 704 913 l 301 0 l 1 0 z "},"W":{"ha":1889,"x_min":14,"x_max":1875,"o":"m 1401 122 l 1311 122 l 1571 1042 l 1875 1042 l 1558 0 l 1188 0 l 886 889 l 1004 889 l 701 0 l 332 0 l 14 1042 l 319 1042 l 579 122 l 490 124 l 793 1042 l 1097 1042 l 1401 122 z "},"Ẃ":{"ha":1889,"x_min":14,"x_max":1875,"o":"m 1401 122 l 1311 122 l 1571 1042 l 1875 1042 l 1558 0 l 1188 0 l 886 889 l 1004 889 l 701 0 l 332 0 l 14 1042 l 319 1042 l 579 122 l 490 124 l 793 1042 l 1097 1042 l 1401 122 m 976 1353 l 1299 1353 l 1058 1119 l 772 1119 l 976 1353 z "},"Ŵ":{"ha":1889,"x_min":14,"x_max":1875,"o":"m 1401 122 l 1311 122 l 1571 1042 l 1875 1042 l 1558 0 l 1188 0 l 886 889 l 1004 889 l 701 0 l 332 0 l 14 1042 l 319 1042 l 579 122 l 490 124 l 793 1042 l 1097 1042 l 1401 122 m 794 1353 l 1093 1353 l 1304 1119 l 1072 1119 l 878 1264 l 1010 1264 l 815 1119 l 583 1119 l 794 1353 z "},"Ẅ":{"ha":1889,"x_min":14,"x_max":1875,"o":"m 1401 122 l 1311 122 l 1571 1042 l 1875 1042 l 1558 0 l 1188 0 l 886 889 l 1004 889 l 701 0 l 332 0 l 14 1042 l 319 1042 l 579 122 l 490 124 l 793 1042 l 1097 1042 l 1401 122 m 729 1118 q 617 1153 660 1118 q 575 1251 575 1189 q 617 1344 575 1310 q 729 1379 660 1379 q 841 1344 799 1379 q 883 1251 883 1310 q 841 1153 883 1189 q 729 1118 799 1118 m 1160 1118 q 1048 1153 1090 1118 q 1006 1251 1006 1189 q 1048 1344 1006 1310 q 1160 1379 1090 1379 q 1272 1344 1229 1379 q 1314 1251 1314 1310 q 1272 1153 1314 1189 q 1160 1118 1229 1118 z "},"Ẇ":{"ha":1889,"x_min":14,"x_max":1875,"o":"m 1401 122 l 1311 122 l 1571 1042 l 1875 1042 l 1558 0 l 1188 0 l 886 889 l 1004 889 l 701 0 l 332 0 l 14 1042 l 319 1042 l 579 122 l 490 124 l 793 1042 l 1097 1042 l 1401 122 m 944 1118 q 825 1156 871 1118 q 779 1256 779 1193 q 825 1357 779 1319 q 944 1394 871 1394 q 1066 1357 1021 1394 q 1111 1256 1111 1319 q 1066 1156 1111 1193 q 944 1118 1021 1118 z "},"Ẉ":{"ha":1889,"x_min":14,"x_max":1875,"o":"m 1401 122 l 1311 122 l 1571 1042 l 1875 1042 l 1558 0 l 1188 0 l 886 889 l 1004 889 l 701 0 l 332 0 l 14 1042 l 319 1042 l 579 122 l 490 124 l 793 1042 l 1097 1042 l 1401 122 m 944 -342 q 825 -305 871 -342 q 779 -204 779 -268 q 825 -104 779 -142 q 944 -67 871 -67 q 1066 -104 1021 -67 q 1111 -204 1111 -142 q 1066 -305 1111 -268 q 944 -342 1021 -342 z "},"Ẁ":{"ha":1889,"x_min":14,"x_max":1875,"o":"m 1401 122 l 1311 122 l 1571 1042 l 1875 1042 l 1558 0 l 1188 0 l 886 889 l 1004 889 l 701 0 l 332 0 l 14 1042 l 319 1042 l 579 122 l 490 124 l 793 1042 l 1097 1042 l 1401 122 m 897 1353 l 1101 1119 l 815 1119 l 575 1353 l 897 1353 z "},"Ⱳ":{"ha":1975,"x_min":15,"x_max":1928,"o":"m 1388 122 l 1297 122 l 1504 831 q 1602 1008 1539 953 q 1781 1064 1665 1064 q 1857 1058 1821 1064 q 1928 1040 1893 1053 l 1928 829 q 1899 841 1914 836 q 1863 846 1883 846 q 1814 830 1832 846 q 1785 778 1796 814 l 1543 0 l 1174 0 l 885 889 l 1003 889 l 700 0 l 331 0 l 15 1042 l 321 1042 l 578 122 l 489 124 l 792 1042 l 1096 1042 l 1388 122 z "},"X":{"ha":1208,"x_min":-15,"x_max":1224,"o":"m 713 454 l 713 629 l 1224 0 l 869 0 l 532 436 l 674 436 l 335 0 l -15 0 l 499 628 l 499 456 l 15 1042 l 375 1042 l 681 647 l 539 647 l 840 1042 l 1194 1042 l 713 454 z "},"Ẍ":{"ha":1208,"x_min":-15,"x_max":1224,"o":"m 713 454 l 713 629 l 1224 0 l 869 0 l 532 436 l 674 436 l 335 0 l -15 0 l 499 628 l 499 456 l 15 1042 l 375 1042 l 681 647 l 539 647 l 840 1042 l 1194 1042 l 713 454 m 389 1118 q 277 1153 319 1118 q 235 1251 235 1189 q 277 1344 235 1310 q 389 1379 319 1379 q 501 1344 458 1379 q 543 1251 543 1310 q 501 1153 543 1189 q 389 1118 458 1118 m 819 1118 q 708 1153 750 1118 q 665 1251 665 1189 q 708 1344 665 1310 q 819 1379 750 1379 q 931 1344 889 1379 q 974 1251 974 1310 q 931 1153 974 1189 q 819 1118 889 1118 z "},"Ẋ":{"ha":1208,"x_min":-15,"x_max":1224,"o":"m 713 454 l 713 629 l 1224 0 l 869 0 l 532 436 l 674 436 l 335 0 l -15 0 l 499 628 l 499 456 l 15 1042 l 375 1042 l 681 647 l 539 647 l 840 1042 l 1194 1042 l 713 454 m 604 1118 q 485 1156 531 1118 q 439 1256 439 1193 q 485 1357 439 1319 q 604 1394 531 1394 q 726 1357 681 1394 q 771 1256 771 1319 q 726 1156 771 1193 q 604 1118 681 1118 z "},"Y":{"ha":1282,"x_min":8,"x_max":1272,"o":"m 497 0 l 497 507 l 786 507 l 786 0 l 497 0 m 8 1042 l 328 1042 l 706 561 l 576 561 l 953 1042 l 1272 1042 l 733 357 l 549 354 l 8 1042 z "},"Ý":{"ha":1282,"x_min":8,"x_max":1272,"o":"m 497 0 l 497 507 l 786 507 l 786 0 l 497 0 m 8 1042 l 328 1042 l 706 561 l 576 561 l 953 1042 l 1272 1042 l 733 357 l 549 354 l 8 1042 m 672 1353 l 994 1353 l 754 1119 l 468 1119 l 672 1353 z "},"Ŷ":{"ha":1282,"x_min":8,"x_max":1272,"o":"m 497 0 l 497 507 l 786 507 l 786 0 l 497 0 m 8 1042 l 328 1042 l 706 561 l 576 561 l 953 1042 l 1272 1042 l 733 357 l 549 354 l 8 1042 m 490 1353 l 789 1353 l 1000 1119 l 768 1119 l 574 1264 l 706 1264 l 511 1119 l 279 1119 l 490 1353 z "},"Ÿ":{"ha":1282,"x_min":8,"x_max":1272,"o":"m 497 0 l 497 507 l 786 507 l 786 0 l 497 0 m 8 1042 l 328 1042 l 706 561 l 576 561 l 953 1042 l 1272 1042 l 733 357 l 549 354 l 8 1042 m 425 1118 q 313 1153 356 1118 q 271 1251 271 1189 q 313 1344 271 1310 q 425 1379 356 1379 q 537 1344 494 1379 q 579 1251 579 1310 q 537 1153 579 1189 q 425 1118 494 1118 m 856 1118 q 744 1153 786 1118 q 701 1251 701 1189 q 744 1344 701 1310 q 856 1379 786 1379 q 967 1344 925 1379 q 1010 1251 1010 1310 q 967 1153 1010 1189 q 856 1118 925 1118 z "},"Ẏ":{"ha":1282,"x_min":8,"x_max":1272,"o":"m 497 0 l 497 507 l 786 507 l 786 0 l 497 0 m 8 1042 l 328 1042 l 706 561 l 576 561 l 953 1042 l 1272 1042 l 733 357 l 549 354 l 8 1042 m 640 1118 q 521 1156 567 1118 q 475 1256 475 1193 q 521 1357 475 1319 q 640 1394 567 1394 q 762 1357 717 1394 q 807 1256 807 1319 q 762 1156 807 1193 q 640 1118 717 1118 z "},"Ỵ":{"ha":1282,"x_min":8,"x_max":1272,"o":"m 497 0 l 497 507 l 786 507 l 786 0 l 497 0 m 8 1042 l 328 1042 l 706 561 l 576 561 l 953 1042 l 1272 1042 l 733 357 l 549 354 l 8 1042 m 639 -342 q 519 -305 565 -342 q 474 -204 474 -268 q 519 -104 474 -142 q 639 -67 565 -67 q 760 -104 715 -67 q 806 -204 806 -142 q 760 -305 806 -268 q 639 -342 715 -342 z "},"Ỳ":{"ha":1282,"x_min":8,"x_max":1272,"o":"m 497 0 l 497 507 l 786 507 l 786 0 l 497 0 m 8 1042 l 328 1042 l 706 561 l 576 561 l 953 1042 l 1272 1042 l 733 357 l 549 354 l 8 1042 m 593 1353 l 797 1119 l 511 1119 l 271 1353 l 593 1353 z "},"Ƴ":{"ha":1288,"x_min":6,"x_max":1253,"o":"m 493 0 l 493 507 l 782 507 l 782 0 l 493 0 m 729 354 l 544 354 l 6 1042 l 324 1042 l 700 561 l 581 561 l 840 910 q 919 1000 882 967 q 1001 1049 957 1033 q 1104 1064 1046 1064 q 1181 1058 1144 1064 q 1253 1040 1218 1053 l 1253 829 q 1208 840 1229 836 q 1163 843 1188 843 q 1096 826 1121 843 q 1044 775 1071 810 l 729 354 z "},"Ỷ":{"ha":1282,"x_min":8,"x_max":1272,"o":"m 497 0 l 497 507 l 786 507 l 786 0 l 497 0 m 8 1042 l 328 1042 l 706 561 l 576 561 l 953 1042 l 1272 1042 l 733 357 l 549 354 l 8 1042 m 578 1100 l 526 1188 q 619 1214 592 1199 q 647 1246 647 1229 q 626 1269 647 1261 q 564 1278 606 1278 q 505 1274 532 1278 q 447 1264 478 1271 l 447 1407 q 526 1424 475 1415 q 632 1432 578 1432 q 819 1397 754 1432 q 885 1286 885 1363 q 815 1171 885 1217 q 578 1100 744 1125 z "},"Ȳ":{"ha":1282,"x_min":8,"x_max":1272,"o":"m 497 0 l 497 507 l 786 507 l 786 0 l 497 0 m 8 1042 l 328 1042 l 706 561 l 576 561 l 953 1042 l 1272 1042 l 733 357 l 549 354 l 8 1042 m 303 1147 l 303 1318 l 979 1318 l 979 1147 l 303 1147 z "},"Ɏ":{"ha":1349,"x_min":25,"x_max":1324,"o":"m 25 944 l 1324 944 l 1324 747 l 25 747 l 25 944 m 531 0 l 531 507 l 819 507 l 819 0 l 531 0 m 42 1042 l 361 1042 l 739 561 l 610 561 l 986 1042 l 1306 1042 l 767 357 l 582 354 l 42 1042 z "},"Ỹ":{"ha":1282,"x_min":8,"x_max":1272,"o":"m 497 0 l 497 507 l 786 507 l 786 0 l 497 0 m 8 1042 l 328 1042 l 706 561 l 576 561 l 953 1042 l 1272 1042 l 733 357 l 549 354 l 8 1042 m 263 1126 q 335 1300 276 1236 q 507 1364 393 1364 q 581 1354 544 1364 q 649 1331 617 1344 q 709 1308 681 1318 q 763 1299 738 1299 q 810 1313 792 1299 q 835 1357 829 1328 l 1018 1357 q 946 1183 1004 1247 q 775 1118 888 1118 q 701 1128 736 1118 q 633 1152 665 1139 q 572 1175 600 1165 q 518 1185 543 1185 q 471 1170 490 1185 q 446 1126 451 1156 l 263 1126 z "},"Z":{"ha":1122,"x_min":58,"x_max":1064,"o":"m 58 0 l 58 208 l 740 878 l 949 817 l 63 817 l 63 1043 l 1060 1043 l 1060 835 l 378 164 l 199 226 l 1064 226 l 1064 0 l 58 0 z "},"Ź":{"ha":1122,"x_min":58,"x_max":1064,"o":"m 58 0 l 58 208 l 740 878 l 949 817 l 63 817 l 63 1043 l 1060 1043 l 1060 835 l 378 164 l 199 226 l 1064 226 l 1064 0 l 58 0 m 593 1353 l 915 1353 l 675 1119 l 389 1119 l 593 1353 z "},"Ž":{"ha":1122,"x_min":58,"x_max":1064,"o":"m 58 0 l 58 208 l 740 878 l 949 817 l 63 817 l 63 1043 l 1060 1043 l 1060 835 l 378 164 l 199 226 l 1064 226 l 1064 0 l 58 0 m 711 1118 l 411 1118 l 200 1353 l 433 1353 l 626 1208 l 496 1208 l 690 1353 l 922 1353 l 711 1118 z "},"Ẑ":{"ha":1122,"x_min":58,"x_max":1064,"o":"m 58 0 l 58 208 l 740 878 l 949 817 l 63 817 l 63 1043 l 1060 1043 l 1060 835 l 378 164 l 199 226 l 1064 226 l 1064 0 l 58 0 m 411 1353 l 710 1353 l 921 1119 l 689 1119 l 494 1264 l 626 1264 l 432 1119 l 200 1119 l 411 1353 z "},"Ż":{"ha":1122,"x_min":58,"x_max":1064,"o":"m 58 0 l 58 208 l 740 878 l 949 817 l 63 817 l 63 1043 l 1060 1043 l 1060 835 l 378 164 l 199 226 l 1064 226 l 1064 0 l 58 0 m 561 1118 q 442 1156 488 1118 q 396 1256 396 1193 q 442 1357 396 1319 q 561 1394 488 1394 q 683 1357 638 1394 q 728 1256 728 1319 q 683 1156 728 1193 q 561 1118 638 1118 z "},"Ẓ":{"ha":1122,"x_min":58,"x_max":1064,"o":"m 58 0 l 58 208 l 740 878 l 949 817 l 63 817 l 63 1043 l 1060 1043 l 1060 835 l 378 164 l 199 226 l 1064 226 l 1064 0 l 58 0 m 560 -342 q 440 -305 486 -342 q 394 -204 394 -268 q 440 -104 394 -142 q 560 -67 486 -67 q 681 -104 636 -67 q 726 -204 726 -142 q 681 -305 726 -268 q 560 -342 636 -342 z "},"Ẕ":{"ha":1122,"x_min":58,"x_max":1064,"o":"m 58 0 l 58 208 l 740 878 l 949 817 l 63 817 l 63 1043 l 1060 1043 l 1060 835 l 378 164 l 199 226 l 1064 226 l 1064 0 l 58 0 m 238 -260 l 238 -90 l 914 -90 l 914 -260 l 238 -260 z "},"Ƶ":{"ha":1131,"x_min":63,"x_max":1068,"o":"m 132 626 l 1003 626 l 1003 429 l 132 429 l 132 626 m 63 0 l 63 208 l 744 878 l 953 817 l 67 817 l 67 1043 l 1064 1043 l 1064 835 l 382 164 l 203 226 l 1068 226 l 1068 0 l 63 0 z "},"Ꞌ":{"ha":435,"x_min":69,"x_max":364,"o":"m 69 1042 l 364 1042 l 319 361 l 115 361 l 69 1042 z "},"ɪ":{"ha":864,"x_min":49,"x_max":815,"o":"m 290 0 l 290 740 l 574 740 l 574 0 l 290 0 m 49 0 l 49 168 l 815 168 l 815 0 l 49 0 m 49 625 l 49 793 l 815 793 l 815 625 l 49 625 z "},"a":{"ha":1147,"x_min":44,"x_max":1089,"o":"m 794 0 l 758 286 l 796 396 l 758 506 l 794 793 l 1089 793 l 1039 397 l 1089 0 l 794 0 m 861 396 q 784 176 842 271 q 638 30 726 82 q 438 -22 550 -22 q 233 30 321 -22 q 94 177 144 82 q 44 396 44 272 q 94 617 44 522 q 233 764 144 711 q 438 817 321 817 q 638 765 550 817 q 785 619 726 713 q 861 396 843 525 m 332 396 q 356 292 332 338 q 424 220 381 246 q 522 194 467 194 q 632 220 581 194 q 722 292 683 246 q 781 396 761 338 q 722 501 761 456 q 632 574 683 547 q 522 600 581 600 q 424 574 467 600 q 356 501 381 547 q 332 396 332 456 z "},"á":{"ha":1147,"x_min":44,"x_max":1089,"o":"m 794 0 l 758 286 l 796 396 l 758 506 l 794 793 l 1089 793 l 1039 397 l 1089 0 l 794 0 m 861 396 q 784 176 842 271 q 638 30 726 82 q 438 -22 550 -22 q 233 30 321 -22 q 94 177 144 82 q 44 396 44 272 q 94 617 44 522 q 233 764 144 711 q 438 817 321 817 q 638 765 550 817 q 785 619 726 713 q 861 396 843 525 m 332 396 q 356 292 332 338 q 424 220 381 246 q 522 194 467 194 q 632 220 581 194 q 722 292 683 246 q 781 396 761 338 q 722 501 761 456 q 632 574 683 547 q 522 600 581 600 q 424 574 467 600 q 356 501 381 547 q 332 396 332 456 m 590 1133 l 865 1133 l 678 871 l 415 871 l 590 1133 z "},"ă":{"ha":1147,"x_min":44,"x_max":1089,"o":"m 794 0 l 758 286 l 796 396 l 758 506 l 794 793 l 1089 793 l 1039 397 l 1089 0 l 794 0 m 861 396 q 784 176 842 271 q 638 30 726 82 q 438 -22 550 -22 q 233 30 321 -22 q 94 177 144 82 q 44 396 44 272 q 94 617 44 522 q 233 764 144 711 q 438 817 321 817 q 638 765 550 817 q 785 619 726 713 q 861 396 843 525 m 332 396 q 356 292 332 338 q 424 220 381 246 q 522 194 467 194 q 632 220 581 194 q 722 292 683 246 q 781 396 761 338 q 722 501 761 456 q 632 574 683 547 q 522 600 581 600 q 424 574 467 600 q 356 501 381 547 q 332 396 332 456 m 235 1132 l 443 1132 q 488 1058 454 1085 q 572 1032 521 1032 q 656 1058 622 1032 q 701 1132 690 1085 l 910 1132 q 803 933 890 1006 q 572 860 717 860 q 342 933 428 860 q 235 1132 256 1006 z "},"ắ":{"ha":1147,"x_min":44,"x_max":1089,"o":"m 794 0 l 758 286 l 796 396 l 758 506 l 794 793 l 1089 793 l 1039 397 l 1089 0 l 794 0 m 861 396 q 784 176 842 271 q 638 30 726 82 q 438 -22 550 -22 q 233 30 321 -22 q 94 177 144 82 q 44 396 44 272 q 94 617 44 522 q 233 764 144 711 q 438 817 321 817 q 638 765 550 817 q 785 619 726 713 q 861 396 843 525 m 332 396 q 356 292 332 338 q 424 220 381 246 q 522 194 467 194 q 632 220 581 194 q 722 292 683 246 q 781 396 761 338 q 722 501 761 456 q 632 574 683 547 q 522 600 581 600 q 424 574 467 600 q 356 501 381 547 q 332 396 332 456 m 560 1421 l 815 1421 l 669 1163 l 461 1163 l 560 1421 m 235 1132 l 443 1132 q 488 1058 454 1085 q 572 1032 521 1032 q 656 1058 622 1032 q 701 1132 690 1085 l 910 1132 q 803 933 890 1006 q 572 860 717 860 q 342 933 428 860 q 235 1132 256 1006 z "},"ặ":{"ha":1147,"x_min":44,"x_max":1089,"o":"m 794 0 l 758 286 l 796 396 l 758 506 l 794 793 l 1089 793 l 1039 397 l 1089 0 l 794 0 m 861 396 q 784 176 842 271 q 638 30 726 82 q 438 -22 550 -22 q 233 30 321 -22 q 94 177 144 82 q 44 396 44 272 q 94 617 44 522 q 233 764 144 711 q 438 817 321 817 q 638 765 550 817 q 785 619 726 713 q 861 396 843 525 m 332 396 q 356 292 332 338 q 424 220 381 246 q 522 194 467 194 q 632 220 581 194 q 722 292 683 246 q 781 396 761 338 q 722 501 761 456 q 632 574 683 547 q 522 600 581 600 q 424 574 467 600 q 356 501 381 547 q 332 396 332 456 m 572 -342 q 453 -305 499 -342 q 407 -204 407 -268 q 453 -104 407 -142 q 572 -67 499 -67 q 694 -104 649 -67 q 739 -204 739 -142 q 694 -305 739 -268 q 572 -342 649 -342 m 235 1132 l 443 1132 q 488 1058 454 1085 q 572 1032 521 1032 q 656 1058 622 1032 q 701 1132 690 1085 l 910 1132 q 803 933 890 1006 q 572 860 717 860 q 342 933 428 860 q 235 1132 256 1006 z "},"ằ":{"ha":1147,"x_min":44,"x_max":1089,"o":"m 794 0 l 758 286 l 796 396 l 758 506 l 794 793 l 1089 793 l 1039 397 l 1089 0 l 794 0 m 861 396 q 784 176 842 271 q 638 30 726 82 q 438 -22 550 -22 q 233 30 321 -22 q 94 177 144 82 q 44 396 44 272 q 94 617 44 522 q 233 764 144 711 q 438 817 321 817 q 638 765 550 817 q 785 619 726 713 q 861 396 843 525 m 332 396 q 356 292 332 338 q 424 220 381 246 q 522 194 467 194 q 632 220 581 194 q 722 292 683 246 q 781 396 761 338 q 722 501 761 456 q 632 574 683 547 q 522 600 581 600 q 424 574 467 600 q 356 501 381 547 q 332 396 332 456 m 572 1421 l 671 1161 l 463 1161 l 317 1421 l 572 1421 m 235 1132 l 443 1132 q 488 1058 454 1085 q 572 1032 521 1032 q 656 1058 622 1032 q 701 1132 690 1085 l 910 1132 q 803 933 890 1006 q 572 860 717 860 q 342 933 428 860 q 235 1132 256 1006 z "},"ẳ":{"ha":1147,"x_min":44,"x_max":1089,"o":"m 794 0 l 758 286 l 796 396 l 758 506 l 794 793 l 1089 793 l 1039 397 l 1089 0 l 794 0 m 861 396 q 784 176 842 271 q 638 30 726 82 q 438 -22 550 -22 q 233 30 321 -22 q 94 177 144 82 q 44 396 44 272 q 94 617 44 522 q 233 764 144 711 q 438 817 321 817 q 638 765 550 817 q 785 619 726 713 q 861 396 843 525 m 332 396 q 356 292 332 338 q 424 220 381 246 q 522 194 467 194 q 632 220 581 194 q 722 292 683 246 q 781 396 761 338 q 722 501 761 456 q 632 574 683 547 q 522 600 581 600 q 424 574 467 600 q 356 501 381 547 q 332 396 332 456 m 560 1143 l 508 1214 q 583 1278 583 1242 q 510 1318 583 1318 q 468 1316 490 1318 q 424 1308 446 1314 l 424 1453 q 492 1467 450 1461 q 583 1472 535 1472 q 751 1436 690 1472 q 811 1333 811 1400 q 747 1219 811 1268 q 560 1143 683 1171 m 235 1132 l 443 1132 q 488 1058 454 1085 q 572 1032 521 1032 q 656 1058 622 1032 q 701 1132 690 1085 l 910 1132 q 803 933 890 1006 q 572 860 717 860 q 342 933 428 860 q 235 1132 256 1006 z "},"ẵ":{"ha":1147,"x_min":44,"x_max":1089,"o":"m 794 0 l 758 286 l 796 396 l 758 506 l 794 793 l 1089 793 l 1039 397 l 1089 0 l 794 0 m 861 396 q 784 176 842 271 q 638 30 726 82 q 438 -22 550 -22 q 233 30 321 -22 q 94 177 144 82 q 44 396 44 272 q 94 617 44 522 q 233 764 144 711 q 438 817 321 817 q 638 765 550 817 q 785 619 726 713 q 861 396 843 525 m 332 396 q 356 292 332 338 q 424 220 381 246 q 522 194 467 194 q 632 220 581 194 q 722 292 683 246 q 781 396 761 338 q 722 501 761 456 q 632 574 683 547 q 522 600 581 600 q 424 574 467 600 q 356 501 381 547 q 332 396 332 456 m 257 1185 q 313 1370 264 1301 q 463 1439 363 1439 q 525 1428 497 1439 q 576 1404 553 1418 q 621 1379 600 1390 q 661 1368 642 1368 q 703 1386 688 1368 q 724 1436 718 1404 l 886 1436 q 831 1251 881 1319 q 681 1182 782 1182 q 618 1193 646 1182 q 567 1219 590 1204 q 522 1244 543 1233 q 482 1254 501 1254 q 440 1236 456 1254 q 419 1185 425 1218 l 257 1185 m 235 1132 l 443 1132 q 488 1058 454 1085 q 572 1032 521 1032 q 656 1058 622 1032 q 701 1132 690 1085 l 910 1132 q 803 933 890 1006 q 572 860 717 860 q 342 933 428 860 q 235 1132 256 1006 z "},"ǎ":{"ha":1147,"x_min":44,"x_max":1089,"o":"m 794 0 l 758 286 l 796 396 l 758 506 l 794 793 l 1089 793 l 1039 397 l 1089 0 l 794 0 m 861 396 q 784 176 842 271 q 638 30 726 82 q 438 -22 550 -22 q 233 30 321 -22 q 94 177 144 82 q 44 396 44 272 q 94 617 44 522 q 233 764 144 711 q 438 817 321 817 q 638 765 550 817 q 785 619 726 713 q 861 396 843 525 m 332 396 q 356 292 332 338 q 424 220 381 246 q 522 194 467 194 q 632 220 581 194 q 722 292 683 246 q 781 396 761 338 q 722 501 761 456 q 632 574 683 547 q 522 600 581 600 q 424 574 467 600 q 356 501 381 547 q 332 396 332 456 m 718 871 l 426 871 l 228 1133 l 451 1133 l 638 940 l 507 940 l 692 1133 l 917 1133 l 718 871 z "},"â":{"ha":1147,"x_min":44,"x_max":1089,"o":"m 794 0 l 758 286 l 796 396 l 758 506 l 794 793 l 1089 793 l 1039 397 l 1089 0 l 794 0 m 861 396 q 784 176 842 271 q 638 30 726 82 q 438 -22 550 -22 q 233 30 321 -22 q 94 177 144 82 q 44 396 44 272 q 94 617 44 522 q 233 764 144 711 q 438 817 321 817 q 638 765 550 817 q 785 619 726 713 q 861 396 843 525 m 332 396 q 356 292 332 338 q 424 220 381 246 q 522 194 467 194 q 632 220 581 194 q 722 292 683 246 q 781 396 761 338 q 722 501 761 456 q 632 574 683 547 q 522 600 581 600 q 424 574 467 600 q 356 501 381 547 q 332 396 332 456 m 426 1133 l 717 1133 l 915 871 l 692 871 l 506 1064 l 638 1064 l 453 871 l 228 871 l 426 1133 z "},"ấ":{"ha":1147,"x_min":44,"x_max":1179,"o":"m 794 0 l 758 286 l 796 396 l 758 506 l 794 793 l 1089 793 l 1039 397 l 1089 0 l 794 0 m 861 396 q 784 176 842 271 q 638 30 726 82 q 438 -22 550 -22 q 233 30 321 -22 q 94 177 144 82 q 44 396 44 272 q 94 617 44 522 q 233 764 144 711 q 438 817 321 817 q 638 765 550 817 q 785 619 726 713 q 861 396 843 525 m 332 396 q 356 292 332 338 q 424 220 381 246 q 522 194 467 194 q 632 220 581 194 q 722 292 683 246 q 781 396 761 338 q 722 501 761 456 q 632 574 683 547 q 522 600 581 600 q 424 574 467 600 q 356 501 381 547 q 332 396 332 456 m 922 1318 l 1178 1318 l 1032 1058 l 824 1058 l 922 1318 m 426 1133 l 717 1133 l 915 871 l 692 871 l 506 1064 l 638 1064 l 451 871 l 228 871 l 426 1133 z "},"ậ":{"ha":1147,"x_min":44,"x_max":1089,"o":"m 794 0 l 758 286 l 796 396 l 758 506 l 794 793 l 1089 793 l 1039 397 l 1089 0 l 794 0 m 861 396 q 784 176 842 271 q 638 30 726 82 q 438 -22 550 -22 q 233 30 321 -22 q 94 177 144 82 q 44 396 44 272 q 94 617 44 522 q 233 764 144 711 q 438 817 321 817 q 638 765 550 817 q 785 619 726 713 q 861 396 843 525 m 332 396 q 356 292 332 338 q 424 220 381 246 q 522 194 467 194 q 632 220 581 194 q 722 292 683 246 q 781 396 761 338 q 722 501 761 456 q 632 574 683 547 q 522 600 581 600 q 424 574 467 600 q 356 501 381 547 q 332 396 332 456 m 572 -342 q 453 -305 499 -342 q 407 -204 407 -268 q 453 -104 407 -142 q 572 -67 499 -67 q 694 -104 649 -67 q 739 -204 739 -142 q 694 -305 739 -268 q 572 -342 649 -342 m 426 1133 l 717 1133 l 915 871 l 692 871 l 506 1064 l 638 1064 l 453 871 l 228 871 l 426 1133 z "},"ầ":{"ha":1147,"x_min":44,"x_max":1089,"o":"m 794 0 l 758 286 l 796 396 l 758 506 l 794 793 l 1089 793 l 1039 397 l 1089 0 l 794 0 m 861 396 q 784 176 842 271 q 638 30 726 82 q 438 -22 550 -22 q 233 30 321 -22 q 94 177 144 82 q 44 396 44 272 q 94 617 44 522 q 233 764 144 711 q 438 817 321 817 q 638 765 550 817 q 785 619 726 713 q 861 396 843 525 m 332 396 q 356 292 332 338 q 424 220 381 246 q 522 194 467 194 q 632 220 581 194 q 722 292 683 246 q 781 396 761 338 q 722 501 761 456 q 632 574 683 547 q 522 600 581 600 q 424 574 467 600 q 356 501 381 547 q 332 396 332 456 m 961 1318 l 1060 1058 l 851 1058 l 706 1318 l 961 1318 m 426 1133 l 717 1133 l 915 871 l 692 871 l 506 1064 l 638 1064 l 451 871 l 228 871 l 426 1133 z "},"ẩ":{"ha":1147,"x_min":44,"x_max":1118,"o":"m 794 0 l 758 286 l 796 396 l 758 506 l 794 793 l 1089 793 l 1039 397 l 1089 0 l 794 0 m 861 396 q 784 176 842 271 q 638 30 726 82 q 438 -22 550 -22 q 233 30 321 -22 q 94 177 144 82 q 44 396 44 272 q 94 617 44 522 q 233 764 144 711 q 438 817 321 817 q 638 765 550 817 q 785 619 726 713 q 861 396 843 525 m 332 396 q 356 292 332 338 q 424 220 381 246 q 522 194 467 194 q 632 220 581 194 q 722 292 683 246 q 781 396 761 338 q 722 501 761 456 q 632 574 683 547 q 522 600 581 600 q 424 574 467 600 q 356 501 381 547 q 332 396 332 456 m 865 1049 l 815 1121 q 889 1185 889 1149 q 815 1225 889 1225 q 774 1223 796 1225 q 729 1215 751 1221 l 729 1360 q 798 1373 756 1367 q 889 1379 840 1379 q 1057 1342 997 1379 q 1117 1240 1117 1306 q 1053 1126 1117 1175 q 865 1049 989 1076 m 426 1133 l 717 1133 l 915 871 l 692 871 l 506 1064 l 638 1064 l 451 871 l 228 871 l 426 1133 z "},"ẫ":{"ha":1147,"x_min":44,"x_max":1089,"o":"m 794 0 l 758 286 l 796 396 l 758 506 l 794 793 l 1089 793 l 1039 397 l 1089 0 l 794 0 m 861 396 q 784 176 842 271 q 638 30 726 82 q 438 -22 550 -22 q 233 30 321 -22 q 94 177 144 82 q 44 396 44 272 q 94 617 44 522 q 233 764 144 711 q 438 817 321 817 q 638 765 550 817 q 785 619 726 713 q 861 396 843 525 m 332 396 q 356 292 332 338 q 424 220 381 246 q 522 194 467 194 q 632 220 581 194 q 722 292 683 246 q 781 396 761 338 q 722 501 761 456 q 632 574 683 547 q 522 600 581 600 q 424 574 467 600 q 356 501 381 547 q 332 396 332 456 m 257 1185 q 313 1371 264 1303 q 463 1439 363 1439 q 524 1428 497 1439 q 575 1404 551 1418 q 619 1379 599 1390 q 661 1368 640 1368 q 703 1387 688 1368 q 724 1438 718 1406 l 886 1438 q 831 1252 881 1321 q 679 1183 781 1183 q 618 1194 646 1183 q 567 1219 590 1206 q 522 1244 543 1233 q 482 1254 501 1254 q 440 1236 456 1254 q 418 1185 425 1218 l 257 1185 m 426 1133 l 717 1133 l 915 871 l 692 871 l 506 1064 l 638 1064 l 453 871 l 228 871 l 426 1133 z "},"ȁ":{"ha":1147,"x_min":44,"x_max":1089,"o":"m 794 0 l 758 286 l 796 396 l 758 506 l 794 793 l 1089 793 l 1039 397 l 1089 0 l 794 0 m 861 396 q 784 176 842 271 q 638 30 726 82 q 438 -22 550 -22 q 233 30 321 -22 q 94 177 144 82 q 44 396 44 272 q 94 617 44 522 q 233 764 144 711 q 438 817 321 817 q 638 765 550 817 q 785 619 726 713 q 861 396 843 525 m 332 396 q 356 292 332 338 q 424 220 381 246 q 522 194 467 194 q 632 220 581 194 q 722 292 683 246 q 781 396 761 338 q 722 501 761 456 q 632 574 683 547 q 522 600 581 600 q 424 574 467 600 q 356 501 381 547 q 332 396 332 456 m 707 1133 l 864 871 l 626 871 l 457 1133 l 707 1133 m 360 1133 l 515 871 l 279 871 l 110 1133 l 360 1133 z "},"ä":{"ha":1147,"x_min":44,"x_max":1089,"o":"m 794 0 l 758 286 l 796 396 l 758 506 l 794 793 l 1089 793 l 1039 397 l 1089 0 l 794 0 m 861 396 q 784 176 842 271 q 638 30 726 82 q 438 -22 550 -22 q 233 30 321 -22 q 94 177 144 82 q 44 396 44 272 q 94 617 44 522 q 233 764 144 711 q 438 817 321 817 q 638 765 550 817 q 785 619 726 713 q 861 396 843 525 m 332 396 q 356 292 332 338 q 424 220 381 246 q 522 194 467 194 q 632 220 581 194 q 722 292 683 246 q 781 396 761 338 q 722 501 761 456 q 632 574 683 547 q 522 600 581 600 q 424 574 467 600 q 356 501 381 547 q 332 396 332 456 m 360 871 q 248 906 290 871 q 206 1003 206 940 q 248 1097 206 1063 q 360 1132 290 1132 q 472 1097 431 1132 q 514 1003 514 1063 q 472 906 514 940 q 360 871 431 871 m 785 871 q 672 906 714 871 q 631 1003 631 940 q 672 1097 631 1063 q 785 1132 714 1132 q 896 1097 854 1132 q 938 1003 938 1063 q 896 906 938 940 q 785 871 854 871 z "},"ǟ":{"ha":1147,"x_min":44,"x_max":1089,"o":"m 794 0 l 758 286 l 796 396 l 758 506 l 794 793 l 1089 793 l 1039 397 l 1089 0 l 794 0 m 861 396 q 784 176 842 271 q 638 30 726 82 q 438 -22 550 -22 q 233 30 321 -22 q 94 177 144 82 q 44 396 44 272 q 94 617 44 522 q 233 764 144 711 q 438 817 321 817 q 638 765 550 817 q 785 619 726 713 q 861 396 843 525 m 332 396 q 356 292 332 338 q 424 220 381 246 q 522 194 467 194 q 632 220 581 194 q 722 292 683 246 q 781 396 761 338 q 722 501 761 456 q 632 574 683 547 q 522 600 581 600 q 424 574 467 600 q 356 501 381 547 q 332 396 332 456 m 360 871 q 248 906 290 871 q 206 1003 206 940 q 248 1097 206 1063 q 360 1132 290 1132 q 472 1097 431 1132 q 514 1003 514 1063 q 472 906 514 940 q 360 871 431 871 m 785 871 q 672 906 714 871 q 631 1003 631 940 q 672 1097 631 1063 q 785 1132 714 1132 q 896 1097 854 1132 q 938 1003 938 1063 q 896 906 938 940 q 785 871 854 871 m 232 1194 l 232 1364 l 908 1364 l 908 1194 l 232 1194 z "},"ȧ":{"ha":1147,"x_min":44,"x_max":1089,"o":"m 794 0 l 758 286 l 796 396 l 758 506 l 794 793 l 1089 793 l 1039 397 l 1089 0 l 794 0 m 861 396 q 784 176 842 271 q 638 30 726 82 q 438 -22 550 -22 q 233 30 321 -22 q 94 177 144 82 q 44 396 44 272 q 94 617 44 522 q 233 764 144 711 q 438 817 321 817 q 638 765 550 817 q 785 619 726 713 q 861 396 843 525 m 332 396 q 356 292 332 338 q 424 220 381 246 q 522 194 467 194 q 632 220 581 194 q 722 292 683 246 q 781 396 761 338 q 722 501 761 456 q 632 574 683 547 q 522 600 581 600 q 424 574 467 600 q 356 501 381 547 q 332 396 332 456 m 571 871 q 451 908 497 871 q 406 1008 406 944 q 451 1108 406 1071 q 571 1146 497 1146 q 692 1108 647 1146 q 738 1008 738 1071 q 692 908 738 944 q 571 871 647 871 z "},"ạ":{"ha":1147,"x_min":44,"x_max":1089,"o":"m 794 0 l 758 286 l 796 396 l 758 506 l 794 793 l 1089 793 l 1039 397 l 1089 0 l 794 0 m 861 396 q 784 176 842 271 q 638 30 726 82 q 438 -22 550 -22 q 233 30 321 -22 q 94 177 144 82 q 44 396 44 272 q 94 617 44 522 q 233 764 144 711 q 438 817 321 817 q 638 765 550 817 q 785 619 726 713 q 861 396 843 525 m 332 396 q 356 292 332 338 q 424 220 381 246 q 522 194 467 194 q 632 220 581 194 q 722 292 683 246 q 781 396 761 338 q 722 501 761 456 q 632 574 683 547 q 522 600 581 600 q 424 574 467 600 q 356 501 381 547 q 332 396 332 456 m 572 -342 q 453 -305 499 -342 q 407 -204 407 -268 q 453 -104 407 -142 q 572 -67 499 -67 q 694 -104 649 -67 q 739 -204 739 -142 q 694 -305 739 -268 q 572 -342 649 -342 z "},"ǡ":{"ha":1147,"x_min":44,"x_max":1089,"o":"m 794 0 l 758 286 l 796 396 l 758 506 l 794 793 l 1089 793 l 1039 397 l 1089 0 l 794 0 m 861 396 q 784 176 842 271 q 638 30 726 82 q 438 -22 550 -22 q 233 30 321 -22 q 94 177 144 82 q 44 396 44 272 q 94 617 44 522 q 233 764 144 711 q 438 817 321 817 q 638 765 550 817 q 785 619 726 713 q 861 396 843 525 m 332 396 q 356 292 332 338 q 424 220 381 246 q 522 194 467 194 q 632 220 581 194 q 722 292 683 246 q 781 396 761 338 q 722 501 761 456 q 632 574 683 547 q 522 600 581 600 q 424 574 467 600 q 356 501 381 547 q 332 396 332 456 m 571 871 q 451 908 497 871 q 406 1008 406 944 q 451 1108 406 1071 q 571 1146 497 1146 q 692 1108 647 1146 q 738 1008 738 1071 q 692 908 738 944 q 571 871 647 871 m 233 1194 l 233 1364 l 910 1364 l 910 1194 l 233 1194 z "},"à":{"ha":1147,"x_min":44,"x_max":1089,"o":"m 794 0 l 758 286 l 796 396 l 758 506 l 794 793 l 1089 793 l 1039 397 l 1089 0 l 794 0 m 861 396 q 784 176 842 271 q 638 30 726 82 q 438 -22 550 -22 q 233 30 321 -22 q 94 177 144 82 q 44 396 44 272 q 94 617 44 522 q 233 764 144 711 q 438 817 321 817 q 638 765 550 817 q 785 619 726 713 q 861 396 843 525 m 332 396 q 356 292 332 338 q 424 220 381 246 q 522 194 467 194 q 632 220 581 194 q 722 292 683 246 q 781 396 761 338 q 722 501 761 456 q 632 574 683 547 q 522 600 581 600 q 424 574 467 600 q 356 501 381 547 q 332 396 332 456 m 538 1133 l 711 871 l 449 871 l 261 1133 l 538 1133 z "},"ả":{"ha":1147,"x_min":44,"x_max":1089,"o":"m 794 0 l 758 286 l 796 396 l 758 506 l 794 793 l 1089 793 l 1039 397 l 1089 0 l 794 0 m 861 396 q 784 176 842 271 q 638 30 726 82 q 438 -22 550 -22 q 233 30 321 -22 q 94 177 144 82 q 44 396 44 272 q 94 617 44 522 q 233 764 144 711 q 438 817 321 817 q 638 765 550 817 q 785 619 726 713 q 861 396 843 525 m 332 396 q 356 292 332 338 q 424 220 381 246 q 522 194 467 194 q 632 220 581 194 q 722 292 683 246 q 781 396 761 338 q 722 501 761 456 q 632 574 683 547 q 522 600 581 600 q 424 574 467 600 q 356 501 381 547 q 332 396 332 456 m 521 851 l 469 928 q 531 959 510 942 q 553 997 553 976 q 532 1027 553 1017 q 472 1038 511 1038 q 424 1035 447 1038 q 381 1028 401 1032 l 381 1179 q 451 1194 407 1188 q 544 1200 494 1200 q 717 1161 656 1200 q 779 1053 779 1122 q 719 933 779 983 q 521 851 658 882 z "},"ȃ":{"ha":1147,"x_min":44,"x_max":1089,"o":"m 794 0 l 758 286 l 796 396 l 758 506 l 794 793 l 1089 793 l 1039 397 l 1089 0 l 794 0 m 861 396 q 784 176 842 271 q 638 30 726 82 q 438 -22 550 -22 q 233 30 321 -22 q 94 177 144 82 q 44 396 44 272 q 94 617 44 522 q 233 764 144 711 q 438 817 321 817 q 638 765 550 817 q 785 619 726 713 q 861 396 843 525 m 332 396 q 356 292 332 338 q 424 220 381 246 q 522 194 467 194 q 632 220 581 194 q 722 292 683 246 q 781 396 761 338 q 722 501 761 456 q 632 574 683 547 q 522 600 581 600 q 424 574 467 600 q 356 501 381 547 q 332 396 332 456 m 910 871 l 700 871 q 656 945 690 919 q 572 971 622 971 q 488 945 521 971 q 443 871 454 919 l 235 871 q 341 1071 254 999 q 572 1143 428 1143 q 802 1071 715 1143 q 910 871 889 999 z "},"ɑ":{"ha":1147,"x_min":44,"x_max":1089,"o":"m 794 0 l 758 286 l 796 396 l 758 506 l 794 793 l 1089 793 l 1039 397 l 1089 0 l 794 0 m 861 396 q 784 176 842 271 q 638 30 726 82 q 438 -22 550 -22 q 233 30 321 -22 q 94 177 144 82 q 44 396 44 272 q 94 617 44 522 q 233 764 144 711 q 438 817 321 817 q 638 765 550 817 q 785 619 726 713 q 861 396 843 525 m 332 396 q 356 292 332 338 q 424 220 381 246 q 522 194 467 194 q 632 220 581 194 q 722 292 683 246 q 781 396 761 338 q 722 501 761 456 q 632 574 683 547 q 522 600 581 600 q 424 574 467 600 q 356 501 381 547 q 332 396 332 456 z "},"ɒ":{"ha":1147,"x_min":58,"x_max":1103,"o":"m 353 0 l 58 0 l 108 397 l 58 793 l 353 793 l 389 506 l 351 396 l 389 286 l 353 0 m 286 396 q 363 619 306 525 q 510 765 421 713 q 710 817 599 817 q 915 764 826 817 q 1053 617 1003 711 q 1103 396 1103 522 q 1053 177 1103 272 q 915 30 1003 82 q 710 -22 826 -22 q 509 30 597 -22 q 364 176 421 82 q 286 396 307 271 m 815 396 q 791 501 815 456 q 724 574 767 547 q 625 600 681 600 q 516 574 568 600 q 426 501 464 547 q 367 396 388 456 q 426 292 388 338 q 516 220 464 246 q 625 194 568 194 q 724 220 681 194 q 791 292 767 246 q 815 396 815 338 z "},"ā":{"ha":1147,"x_min":44,"x_max":1089,"o":"m 794 0 l 758 286 l 796 396 l 758 506 l 794 793 l 1089 793 l 1039 397 l 1089 0 l 794 0 m 861 396 q 784 176 842 271 q 638 30 726 82 q 438 -22 550 -22 q 233 30 321 -22 q 94 177 144 82 q 44 396 44 272 q 94 617 44 522 q 233 764 144 711 q 438 817 321 817 q 638 765 550 817 q 785 619 726 713 q 861 396 843 525 m 332 396 q 356 292 332 338 q 424 220 381 246 q 522 194 467 194 q 632 220 581 194 q 722 292 683 246 q 781 396 761 338 q 722 501 761 456 q 632 574 683 547 q 522 600 581 600 q 424 574 467 600 q 356 501 381 547 q 332 396 332 456 m 233 906 l 233 1075 l 910 1075 l 910 906 l 233 906 z "},"ą":{"ha":1147,"x_min":44,"x_max":1089,"o":"m 794 0 l 758 286 l 796 396 l 758 506 l 794 793 l 1089 793 l 1039 397 l 1089 0 l 794 0 m 861 396 q 784 176 842 271 q 638 30 726 82 q 438 -22 550 -22 q 233 30 321 -22 q 94 177 144 82 q 44 396 44 272 q 94 617 44 522 q 233 764 144 711 q 438 817 321 817 q 638 765 550 817 q 785 619 726 713 q 861 396 843 525 m 332 396 q 356 292 332 338 q 424 220 381 246 q 522 194 467 194 q 632 220 581 194 q 722 292 683 246 q 781 396 761 338 q 722 501 761 456 q 632 574 683 547 q 522 600 581 600 q 424 574 467 600 q 356 501 381 547 q 332 396 332 456 m 963 28 l 1057 17 l 1057 0 l 1088 0 q 999 -30 1038 -14 q 941 -62 961 -46 q 921 -96 921 -78 q 1007 -135 921 -135 q 1049 -132 1029 -135 q 1088 -125 1069 -129 l 1088 -275 q 1026 -287 1069 -281 q 936 -294 983 -294 q 778 -258 839 -294 q 718 -160 718 -221 q 779 -49 718 -96 q 963 28 840 -3 z "},"ẚ":{"ha":1147,"x_min":44,"x_max":1089,"o":"m 794 0 l 758 286 l 796 396 l 758 506 l 794 793 l 1089 793 l 1039 397 l 1089 0 l 794 0 m 861 396 q 784 176 842 271 q 638 30 726 82 q 438 -22 550 -22 q 233 30 321 -22 q 94 177 144 82 q 44 396 44 272 q 94 617 44 522 q 233 764 144 711 q 438 817 321 817 q 638 765 550 817 q 785 619 726 713 q 861 396 843 525 m 332 396 q 356 292 332 338 q 424 220 381 246 q 522 194 467 194 q 632 220 581 194 q 722 292 683 246 q 781 396 761 338 q 722 501 761 456 q 632 574 683 547 q 522 600 581 600 q 424 574 467 600 q 356 501 381 547 q 332 396 332 456 m 572 857 l 572 972 q 649 993 622 972 q 676 1050 676 1014 q 649 1108 676 1088 q 572 1128 622 1128 l 572 1243 q 765 1192 696 1243 q 835 1050 835 1140 q 765 908 835 960 q 572 857 696 857 z "},"å":{"ha":1147,"x_min":44,"x_max":1089,"o":"m 794 0 l 758 286 l 796 396 l 758 506 l 794 793 l 1089 793 l 1039 397 l 1089 0 l 794 0 m 861 396 q 784 176 842 271 q 638 30 726 82 q 438 -22 550 -22 q 233 30 321 -22 q 94 177 144 82 q 44 396 44 272 q 94 617 44 522 q 233 764 144 711 q 438 817 321 817 q 638 765 550 817 q 785 619 726 713 q 861 396 843 525 m 332 396 q 356 292 332 338 q 424 220 381 246 q 522 194 467 194 q 632 220 581 194 q 722 292 683 246 q 781 396 761 338 q 722 501 761 456 q 632 574 683 547 q 522 600 581 600 q 424 574 467 600 q 356 501 381 547 q 332 396 332 456 m 572 857 q 378 908 449 857 q 308 1050 308 960 q 378 1192 308 1140 q 572 1243 449 1243 q 765 1192 696 1243 q 835 1050 835 1140 q 765 908 835 960 q 572 857 696 857 m 572 972 q 649 993 622 972 q 676 1050 676 1014 q 649 1108 676 1088 q 572 1128 622 1128 q 495 1108 524 1128 q 467 1050 467 1088 q 494 993 467 1014 q 572 972 522 972 z "},"ǻ":{"ha":1147,"x_min":44,"x_max":1089,"o":"m 560 1474 l 815 1474 l 669 1214 l 461 1214 l 560 1474 m 794 0 l 758 286 l 796 396 l 758 506 l 794 793 l 1089 793 l 1039 397 l 1089 0 l 794 0 m 861 396 q 784 176 842 271 q 638 30 726 82 q 438 -22 550 -22 q 233 30 321 -22 q 94 177 144 82 q 44 396 44 272 q 94 617 44 522 q 233 764 144 711 q 438 817 321 817 q 638 765 550 817 q 785 619 726 713 q 861 396 843 525 m 332 396 q 356 292 332 338 q 424 220 381 246 q 522 194 467 194 q 632 220 581 194 q 722 292 683 246 q 781 396 761 338 q 722 501 761 456 q 632 574 683 547 q 522 600 581 600 q 424 574 467 600 q 356 501 381 547 q 332 396 332 456 m 572 857 q 378 908 449 857 q 308 1050 308 960 q 378 1192 308 1140 q 572 1243 449 1243 q 765 1192 696 1243 q 835 1050 835 1140 q 765 908 835 960 q 572 857 696 857 m 572 972 q 649 993 622 972 q 676 1050 676 1014 q 649 1108 676 1088 q 572 1128 622 1128 q 495 1108 524 1128 q 467 1050 467 1088 q 495 993 467 1014 q 572 972 524 972 z "},"ḁ":{"ha":1147,"x_min":44,"x_max":1089,"o":"m 794 0 l 758 286 l 796 396 l 758 506 l 794 793 l 1089 793 l 1039 397 l 1089 0 l 794 0 m 861 396 q 784 176 842 271 q 638 30 726 82 q 438 -22 550 -22 q 233 30 321 -22 q 94 177 144 82 q 44 396 44 272 q 94 617 44 522 q 233 764 144 711 q 438 817 321 817 q 638 765 550 817 q 785 619 726 713 q 861 396 843 525 m 332 396 q 356 292 332 338 q 424 220 381 246 q 522 194 467 194 q 632 220 581 194 q 722 292 683 246 q 781 396 761 338 q 722 501 761 456 q 632 574 683 547 q 522 600 581 600 q 424 574 467 600 q 356 501 381 547 q 332 396 332 456 m 572 -444 q 378 -393 449 -444 q 308 -251 308 -342 q 378 -110 308 -161 q 572 -58 449 -58 q 765 -110 696 -58 q 835 -251 835 -161 q 765 -393 835 -342 q 572 -444 696 -444 m 572 -329 q 649 -308 622 -329 q 676 -251 676 -287 q 649 -194 676 -214 q 572 -174 622 -174 q 495 -194 524 -174 q 467 -251 467 -214 q 494 -308 467 -287 q 572 -329 522 -329 z "}}}
